<svg width="35" height="35" fill="none" xmlns="http://www.w3.org/2000/svg"><path d="M22 18c.4-4-2.5-5-4-5-4.4-.8-5.166 3-5 5H4.5c-.166-4.5 2.2-13.5 13-13.5S31 13.833 31 18.5c-3.166 1.5-9.4 3.5-9-.5z" fill="#6DAC52"/><path d="M12.492 16.849c-.4 4 3.5 6 5 6 2.508-.349 5.167-4 5-6h8.5c.167 4.5-2.2 13.5-13 13.5s-13.5-9.333-13.5-14c3.167-1.5 8.4-3.5 8 .5z" fill="#6DAC52"/><path d="M22 18c.4-4-2.5-5-4-5-4.4-.8-5.166 3-5 5H4.5c-.166-4.5 2.2-13.5 13-13.5S31 13.833 31 18.5c-3.166 1.5-9.4 3.5-9-.5z" stroke="#6DAC52"/><path d="M12.492 16.849c-.4 4 3.5 6 5 6 2.508-.349 5.167-4 5-6h8.5c.167 4.5-2.2 13.5-13 13.5s-13.5-9.333-13.5-14c3.167-1.5 8.4-3.5 8 .5z" stroke="#6DAC52"/><path d="M17.526 12.096a5.442 5.442 0 00-5.441 5.45 5.442 5.442 0 005.441 5.448c3.008 0 5.488-2.437 5.488-5.449s-2.48-5.449-5.488-5.449zm0 9.306a3.858 3.858 0 010-7.714 3.858 3.858 0 010 7.714zM34.21 16.75h-2.434c-.398-7.221-6.241-13.073-13.453-13.47V.795A.791.791 0 0017.526 0a.791.791 0 00-.794.796v2.482c-7.217.44-12.97 6.245-13.413 13.426H.795A.791.791 0 000 17.5a.79.79 0 00.795.796h2.524c.398 7.222 6.196 13.027 13.409 13.425v2.483a.79.79 0 00.794.796.791.791 0 00.796-.796v-2.483c7.257-.398 13.055-6.203 13.453-13.47h2.434a.791.791 0 00.795-.796c.008-.443-.349-.706-.791-.706zM18.32 30.175v-2.483a.791.791 0 00-.795-.796.791.791 0 00-.794.796v2.483C10.445 29.73 5.4 24.68 4.958 18.386h2.435a.791.791 0 00.795-.796.791.791 0 00-.795-.796H4.958C5.356 10.5 10.4 5.404 16.732 5.006v2.482a.79.79 0 00.794.796.791.791 0 00.796-.796V5.006c6.327.398 11.416 5.449 11.818 11.788h-2.524a.791.791 0 00-.796.796c0 .443.353.796.796.796h2.524c-.398 6.34-5.487 11.39-11.819 11.789z" fill="#4F4F4F"/></svg>