<svg width="51" height="35" fill="none" xmlns="http://www.w3.org/2000/svg"><path d="M11.195 12.727c6.155 0 11.145 4.986 11.145 11.137C22.34 30.014 17.35 35 11.195 35 5.04 35 .05 30.014.05 23.864L0 22.273C0 9.972 9.98 0 22.29 0v6.364a15.824 15.824 0 00-11.258 4.66 16.151 16.151 0 00-1.584 1.84c.57-.09 1.153-.137 1.747-.137zm28.66 0C46.01 12.727 51 17.713 51 23.864 51 30.014 46.01 35 39.855 35c-6.156 0-11.146-4.986-11.146-11.136l-.05-1.591C28.66 9.972 38.64 0 50.95 0v6.364a15.824 15.824 0 00-11.258 4.66 16.145 16.145 0 00-1.584 1.84c.569-.09 1.152-.137 1.747-.137z" fill="#fff"/></svg>