<svg width="34" height="38" fill="none" xmlns="http://www.w3.org/2000/svg"><path d="M32 21.5c-.8-5.6-6.667-6.333-9.5-6 2.4 0 4.333 4 5 6V33H32c.333-1.5.8-5.9 0-11.5z" fill="#6DAC52"/><path d="M32 21.5c-.8-5.6-6.667-6.333-9.5-6 2.4 0 4.333 4 5 6V33H32c.333-1.5.8-5.9 0-11.5z" stroke="#6DAC52"/><path d="M32 21.5c-.8-5.6-6.667-6.333-9.5-6 2.4 0 4.333 4 5 6V33H32c.333-1.5.8-5.9 0-11.5z" stroke="#6DAC52"/><path d="M2.442 21.217c.8-5.738 6.665-6.49 9.498-6.148-2.4 0-4.774 4.099-5.44 6.148L6 33H2.442c-.334-1.537-.8-6.045 0-11.783z" fill="#6DAC52"/><path d="M2.442 21.217c.8-5.738 6.665-6.49 9.498-6.148-2.4 0-4.774 4.099-5.44 6.148L6 33H2.442c-.334-1.537-.8-6.045 0-11.783z" stroke="#6DAC52"/><path d="M2.442 21.217c.8-5.738 6.665-6.49 9.498-6.148-2.4 0-4.774 4.099-5.44 6.148L6 33H2.442c-.334-1.537-.8-6.045 0-11.783z" stroke="#6DAC52"/><path d="M25.046 14.566a5.417 5.417 0 003.902-6.599 5.43 5.43 0 00-6.764-3.852 6.373 6.373 0 00-10.886-.11 5.376 5.376 0 00-.989-.101A5.422 5.422 0 004.88 9.32a5.419 5.419 0 004.074 5.246C4.506 14.774 1.006 18.43 1 22.873v10.643c0 .32.26.58.582.58h4.073v2.323c0 .321.26.581.581.581h20.946c.321 0 .582-.26.582-.58v-2.323h4.654a.58.58 0 00.582-.58V22.872c-.006-4.443-3.506-8.1-7.954-8.307zm-2.333-9.39a4.31 4.31 0 01.978-.11 4.263 4.263 0 014.27 4.255 4.263 4.263 0 01-4.265 4.262 4.272 4.272 0 01-2.988-1.215 6.368 6.368 0 002.005-7.192zm-.407 9.384a8.53 8.53 0 00-.487.04 9.839 9.839 0 00-3.946-.825h-2.328c-.981 0-1.958.146-2.896.433a5.44 5.44 0 001.442-1.006c1.8.828 3.885.755 5.622-.197a5.395 5.395 0 002.593 1.555zm-8.43-11.57a5.241 5.241 0 012.833-.828 5.2 5.2 0 014.691 2.91v.004a5.202 5.202 0 01-1.87 6.704 5.24 5.24 0 01-7.231-1.574 5.217 5.217 0 011.577-7.217zM7.03 12.053a4.265 4.265 0 013.28-6.99c.144.001.285.015.427.029a6.363 6.363 0 002.286 7.506 4.261 4.261 0 01-5.993-.545zM5.655 23.645v9.29H2.164V22.874c.002-3.954 3.212-7.16 7.173-7.165h.354a9.845 9.845 0 00-4.036 7.937zM26.6 35.84H6.818V23.645c.006-4.808 3.91-8.704 8.728-8.71h2.327c4.817.006 8.721 3.902 8.727 8.71V35.84zm5.236-2.903h-4.072v-9.29a9.846 9.846 0 00-4.036-7.938h.934c3.962.006 7.172 3.211 7.174 7.165v10.063z" fill="#4F4F4F" stroke="#4F4F4F" stroke-width=".3"/><path d="M14.602 19.57l1.718-1.292 1.72 1.292-.86 2.152 1.719 1.292-2.579 8.612-2.578-8.612 2.149-1.722-1.29-1.722z" fill="#6DAC52" stroke="#6DAC52"/><path d="M19.8 22.6l-1.6-1.2 1.2-1.6a.5.5 0 00-.087-.69l-2.5-2a.5.5 0 00-.625 0l-2.5 2a.5.5 0 00-.088.69l1.2 1.6-1.6 1.2a.5.5 0 00-.18.537l3 10.501a.5.5 0 00.96 0l3-10.5a.5.5 0 00-.18-.538zm-3.3 9.081l-2.425-8.487 1.725-1.293a.5.5 0 00.1-.7l-1.21-1.613 1.81-1.448 1.81 1.45-1.21 1.61a.5.5 0 00.1.7l1.725 1.294-2.425 8.487zM21 26.5c0 .276.199.5.444.5h3.112c.245 0 .444-.224.444-.5s-.199-.5-.444-.5h-3.112c-.245 0-.444.224-.444.5z" fill="#4F4F4F" stroke="#4F4F4F" stroke-width=".3"/></svg>