<svg width="22" height="22" fill="none" xmlns="http://www.w3.org/2000/svg"><path d="M21.496 3.705c-.089-.084-.177-.169-.354-.169H4.319l-.443-2.198C3.876 1.17 3.61 1 3.433 1H.777c-.265 0-.443.169-.443.423 0 .253.178.422.443.422H3.08l2.125 10.313c.266 1.353 1.594 2.367 3.01 2.367h10.183c.265 0 .442-.169.442-.422s-.177-.423-.442-.423H8.303c-.709 0-1.417-.338-1.771-.93l12.927-1.69c.177 0 .354-.17.354-.339l1.77-6.763s0-.169-.088-.253zm-2.48 6.594L6.09 11.905 4.496 4.297h16.026l-1.505 6.002zM7.86 16.611c-1.24 0-2.213.966-2.213 2.195C5.647 20.035 6.62 21 7.86 21c1.24 0 2.213-.966 2.213-2.194 0-1.23-.973-2.195-2.213-2.195zm0 3.511c-.708 0-1.328-.614-1.328-1.317s.62-1.316 1.328-1.316 1.328.614 1.328 1.316-.62 1.317-1.328 1.317zm8.854-3.511c-1.24 0-2.213.966-2.213 2.195 0 1.229.973 2.194 2.213 2.194 1.24 0 2.214-.966 2.214-2.194s-.974-2.195-2.214-2.195zm0 3.511c-.708 0-1.328-.614-1.328-1.317s.62-1.316 1.328-1.316c.708 0 1.328.614 1.328 1.316s-.62 1.317-1.328 1.317z" fill="#fff"/><path d="M21.496 3.705c-.089-.084-.177-.169-.354-.169H4.319l-.443-2.198C3.876 1.17 3.61 1 3.433 1H.777c-.265 0-.443.169-.443.423 0 .253.178.422.443.422H3.08l2.125 10.313c.266 1.353 1.594 2.367 3.01 2.367h10.183c.265 0 .442-.169.442-.422s-.177-.423-.442-.423H8.303c-.709 0-1.417-.338-1.771-.93l12.927-1.69c.177 0 .354-.17.354-.339l1.77-6.763s0-.169-.088-.253zm-2.48 6.594L6.09 11.905 4.496 4.297h16.026l-1.505 6.002zM7.86 16.611c-1.24 0-2.213.966-2.213 2.195C5.647 20.035 6.62 21 7.86 21c1.24 0 2.213-.966 2.213-2.194 0-1.23-.973-2.195-2.213-2.195zm0 3.511c-.708 0-1.328-.614-1.328-1.317s.62-1.316 1.328-1.316 1.328.614 1.328 1.316-.62 1.317-1.328 1.317zm8.854-3.511c-1.24 0-2.213.966-2.213 2.195 0 1.229.973 2.194 2.213 2.194 1.24 0 2.214-.966 2.214-2.194s-.974-2.195-2.214-2.195zm0 3.511c-.708 0-1.328-.614-1.328-1.317s.62-1.316 1.328-1.316c.708 0 1.328.614 1.328 1.316s-.62 1.317-1.328 1.317z" stroke="#fff" stroke-width=".5"/></svg>