<svg width="29" height="32" fill="none" xmlns="http://www.w3.org/2000/svg"><path d="M24.164 22.62a4.68 4.68 0 00-3.153 1.233L9.522 17.19c.083-.369.147-.741.147-1.125s-.065-.755-.147-1.125l11.36-6.602a4.82 4.82 0 003.282 1.3A4.817 4.817 0 0029 4.82 4.821 4.821 0 0024.164 0a4.82 4.82 0 00-4.832 4.817c0 .39.066.755.147 1.126L8.12 12.549a4.808 4.808 0 00-3.283-1.302A4.82 4.82 0 000 16.064a4.82 4.82 0 004.836 4.819c1.27 0 2.416-.5 3.282-1.3l11.47 6.678c-.08.34-.13.695-.13 1.048 0 2.587 2.115 4.691 4.705 4.691 2.592 0 4.707-2.103 4.707-4.69 0-2.589-2.114-4.69-4.706-4.69z" fill="#000"/></svg>