<svg width="16" height="16" fill="none" xmlns="http://www.w3.org/2000/svg"><g clip-path="url(#clip0)" fill="#000"><path d="M8 8.905a.906.906 0 010-1.81.906.906 0 010 1.81z"/><path d="M8 12.354c-1.8 0-3.736-.704-5.6-2.035C1.007 9.324.146 8.338.11 8.296a.452.452 0 010-.592c.036-.042.896-1.028 2.29-2.023C4.264 4.35 6.2 3.646 8 3.646c1.8 0 3.736.704 5.6 2.035 1.393.995 2.254 1.981 2.29 2.023a.453.453 0 010 .592c-.036.042-.897 1.028-2.29 2.023-1.864 1.331-3.8 2.035-5.6 2.035zM1.073 8a14.28 14.28 0 001.87 1.595c1.19.846 3.031 1.854 5.057 1.854 2.026 0 3.868-1.008 5.056-1.854A14.278 14.278 0 0014.927 8a14.276 14.276 0 00-1.87-1.595C11.866 5.559 10.025 4.55 8 4.55c-2.026 0-3.868 1.008-5.056 1.854A14.276 14.276 0 001.073 8z"/><path d="M8 10.805A2.808 2.808 0 015.195 8 2.808 2.808 0 018 5.195c.68 0 1.336.247 1.848.694a.452.452 0 11-.597.681A1.902 1.902 0 006.1 8a1.9 1.9 0 003.8 0 .452.452 0 01.905 0A2.808 2.808 0 018 10.805z"/></g><defs><clipPath id="clip0"><path fill="#fff" d="M0 0h16v16H0z"/></clipPath></defs></svg>