<svg width="24" height="24" viewBox="0 0 24 24" fill="none" xmlns="http://www.w3.org/2000/svg">
<path d="M17.6251 1.50007H8.62507C8.57822 1.48891 8.52941 1.48891 8.48257 1.50007C8.43577 1.51606 8.39426 1.5446 8.36257 1.58257L4.61257 5.33257C4.55835 5.36752 4.51845 5.42073 4.50007 5.48257C4.48891 5.52941 4.48891 5.57822 4.50007 5.62507V20.6251C4.50007 21.1223 4.69761 21.5993 5.04924 21.9509C5.40087 22.3025 5.87779 22.5001 6.37507 22.5001H17.6251C18.1223 22.5001 18.5993 22.3025 18.9509 21.9509C19.3025 21.5993 19.5001 21.1223 19.5001 20.6251V3.37507C19.5001 2.87779 19.3025 2.40087 18.9509 2.04924C18.5993 1.69761 18.1223 1.50007 17.6251 1.50007V1.50007ZM8.25007 2.78257V4.12507C8.25007 4.42344 8.13154 4.70958 7.92056 4.92056C7.70958 5.13154 7.42344 5.25007 7.12507 5.25007H5.78257L8.25007 2.78257ZM18.7501 20.6251C18.7501 20.9234 18.6315 21.2096 18.4206 21.4206C18.2096 21.6315 17.9234 21.7501 17.6251 21.7501H6.37507C6.0767 21.7501 5.79055 21.6315 5.57957 21.4206C5.36859 21.2096 5.25007 20.9234 5.25007 20.6251V6.00007H7.12507C7.3713 6.00007 7.61511 5.95157 7.8426 5.85734C8.07008 5.76311 8.27678 5.625 8.45089 5.45089C8.625 5.27678 8.76311 5.07008 8.85734 4.8426C8.95157 4.61511 9.00007 4.3713 9.00007 4.12507V2.25007H17.6251C17.9234 2.25007 18.2096 2.36859 18.4206 2.57957C18.6315 2.79055 18.7501 3.0767 18.7501 3.37507V20.6251Z" fill="#6DAC52"/>
</svg>
