<svg width="28" height="28" fill="none" xmlns="http://www.w3.org/2000/svg"><path d="M17.598 23.402l3.807-5.076 1.312.985-3.807 5.076-1.312-.985zm-.325-4.996h1.641v1.64h-1.64v-1.64zm4.223 4.057h1.64v1.641h-1.64v-1.64z" fill="#6DAC52"/><path d="M20.204 14.51c-.15 0-.297.006-.445.015l-.475-8.142h-3.882V4.8c0-2.647-2.153-4.8-4.8-4.8a4.805 4.805 0 00-4.8 4.8v1.583H1.92l-.862 14.759a4.099 4.099 0 001.12 3.08 4.098 4.098 0 003.01 1.299h9.796A6.734 6.734 0 0020.204 28a6.752 6.752 0 006.745-6.745 6.753 6.753 0 00-6.745-6.745zM7.443 4.8a3.163 3.163 0 013.159-3.16 3.163 3.163 0 013.16 3.16v1.583h-6.32V4.8zM5.189 23.88c-.695 0-1.34-.278-1.817-.783a2.473 2.473 0 01-.676-1.86l.772-13.213h2.334v2.056h1.64V8.023h6.32v2.056h1.64V8.023h2.334l.398 6.812a6.755 6.755 0 00-4.674 6.42c0 .93.19 1.817.531 2.624H5.19zm15.015 2.48a5.11 5.11 0 01-5.104-5.105 5.11 5.11 0 015.104-5.104 5.11 5.11 0 015.105 5.104 5.11 5.11 0 01-5.105 5.104z" fill="#6DAC52"/></svg>