<svg width="35" height="35" fill="none" xmlns="http://www.w3.org/2000/svg"><path d="M29.722 23.431l-.347-.566a14.944 14.944 0 00-2.438-3.018l-1.16-1.104a.303.303 0 01-.04-.397l1.584-2.256c.228-.325.44-.668.627-1.018L29.3 12.54a1.4 1.4 0 00-.034-1.39 1.4 1.4 0 00-1.21-.687l-2.928-.003h-.002c-.614 0-1.17.363-1.416.924l-.31.707a17.478 17.478 0 01-3.212 4.89v-5.16c0-.751-.611-1.362-1.362-1.362H14.68a1.237 1.237 0 00-1.003 1.956l.29.404c.285.396.435.864.435 1.352v3.77a15.034 15.034 0 01-1.662-2.328c-.807-1.42-1.386-3.077-1.659-3.938a1.736 1.736 0 00-1.66-1.216H6.452c-.419 0-.804.191-1.057.525a1.315 1.315 0 00-.219 1.16l.554 1.964a18.101 18.101 0 001.385 3.483.684.684 0 101.211-.635 16.727 16.727 0 01-1.28-3.22l-.539-1.91H9.42c.165 0 .308.105.358.262.29.912.905 2.671 1.774 4.2.713 1.255 1.579 2.3 2.179 2.956.329.36.835.478 1.29.301.454-.176.748-.606.748-1.094v-4.28c0-.776-.239-1.52-.691-2.15l-.14-.195h3.885v5.482c0 .401.2.77.538.987.338.217.757.247 1.122.08l.281-.128c.13-.06.246-.142.343-.246a18.848 18.848 0 003.547-5.36l.31-.707a.179.179 0 01.164-.107l2.929.003c.01 0 .025 0 .038.022.013.021.006.034.001.043l-1.353 2.532a8.54 8.54 0 01-.54.878L24.62 17.56a1.662 1.662 0 00.215 2.172l1.16 1.104a13.54 13.54 0 012.215 2.742l.347.566c.008.014.034.055.002.112-.032.056-.08.056-.096.056h-2.529c-.325 0-.64-.133-.867-.366l-2.529-2.6a4.34 4.34 0 00-2.186-1.217 1.253 1.253 0 00-1.06.249c-.298.24-.47.598-.47.981v2.554a.4.4 0 01-.398.4 9.023 9.023 0 01-5.452-1.847 16.748 16.748 0 01-1.777-1.572.684.684 0 00-.977.958c.598.61 1.245 1.181 1.923 1.7a10.397 10.397 0 006.283 2.127c.974 0 1.766-.792 1.766-1.766v-2.416c.52.139.991.414 1.368.802l2.529 2.6c.482.496 1.155.78 1.847.78h2.529a1.479 1.479 0 001.26-2.249z" fill="#F22"/><path d="M9.574 18.973l-.007-.01a.684.684 0 00-1.112.796l.005.007.559-.394-.556.398a.683.683 0 101.111-.797zm4.43 11.379H8.433a.684.684 0 000 1.367h5.571a.684.684 0 100-1.367zm3.111 0h-.008a.684.684 0 100 1.367h.008a.684.684 0 100-1.367z" fill="#F22"/><path d="M30.488 0H4.512A4.517 4.517 0 000 4.512v25.976A4.517 4.517 0 004.512 35h25.976A4.517 4.517 0 0035 30.488V4.512A4.517 4.517 0 0030.488 0zm3.145 30.488a3.148 3.148 0 01-3.145 3.145H4.512a3.148 3.148 0 01-3.145-3.145V4.512a3.148 3.148 0 013.145-3.145h25.976a3.148 3.148 0 013.145 3.145v25.976z" fill="#F22"/></svg>