<svg width="36" height="36" fill="none" xmlns="http://www.w3.org/2000/svg"><path d="M25.453 0H10.547C4.73 0 0 4.731 0 10.547v14.906C0 31.27 4.731 36 10.547 36h14.906C31.27 36 36 31.269 36 25.453V10.547C36 4.73 31.269 0 25.453 0zm9.14 25.453c0 5.04-4.1 9.14-9.14 9.14H10.547c-5.04 0-9.14-4.1-9.14-9.14V10.547c0-5.04 4.1-9.14 9.14-9.14h14.906c5.04 0 9.14 4.1 9.14 9.14v14.906z" fill="#FF3030"/><path d="M25.453 3.094H10.547c-4.11 0-7.453 3.343-7.453 7.453v14.906c0 4.11 3.343 7.453 7.453 7.453h4.289a.703.703 0 100-1.406h-4.29A6.054 6.054 0 014.5 25.453V10.547A6.054 6.054 0 0110.547 4.5h14.906a6.054 6.054 0 016.047 6.047v14.906a6.054 6.054 0 01-6.047 6.047h-4.242a.703.703 0 100 1.406h4.242c4.11 0 7.453-3.343 7.453-7.453V10.547c0-4.11-3.343-7.453-7.453-7.453z" fill="#FF3030"/><path d="M18.497 31.706A.708.708 0 0018 31.5a.708.708 0 00-.497.206.708.708 0 00-.206.497.707.707 0 00.703.703.708.708 0 00.497-.206.708.708 0 00.206-.497.708.708 0 00-.206-.497zm-6.134-20.758a.703.703 0 00-.994-.032l-.031.03a.703.703 0 00.965 1.022l.028-.026a.703.703 0 00.032-.994z" fill="#FF3030"/><path d="M18 8.297a9.73 9.73 0 00-4.445 1.076.703.703 0 10.645 1.25 8.205 8.205 0 013.8-.92c4.575 0 8.297 3.722 8.297 8.297 0 4.575-3.722 8.297-8.297 8.297-4.575 0-8.297-3.722-8.297-8.297 0-1.436.372-2.85 1.077-4.09a.703.703 0 10-1.223-.695A9.706 9.706 0 008.297 18c0 5.35 4.353 9.703 9.703 9.703S27.703 23.35 27.703 18 23.35 8.297 18 8.297z" fill="#FF3030"/><path d="M18 11.672A6.335 6.335 0 0011.672 18 6.335 6.335 0 0018 24.328 6.335 6.335 0 0024.328 18 6.335 6.335 0 0018 11.672zm0 11.25A4.928 4.928 0 0113.078 18 4.928 4.928 0 0118 13.078 4.928 4.928 0 0122.922 18 4.928 4.928 0 0118 22.922zM27.229 6.1a2.675 2.675 0 00-2.672 2.671 2.675 2.675 0 002.672 2.672A2.675 2.675 0 0029.9 8.771 2.675 2.675 0 0027.23 6.1zm0 3.937a1.267 1.267 0 01-1.266-1.266c0-.697.568-1.265 1.265-1.265.698 0 1.266.568 1.266 1.265 0 .698-.568 1.266-1.265 1.266z" fill="#FF3030"/></svg>