<svg width="24" height="15" fill="none" xmlns="http://www.w3.org/2000/svg"><path d="M21.674 2.123H15.66v-1.5h6.014v1.5zM11.657 8.275c.388.604.582 1.337.582 2.197 0 .89-.219 1.689-.664 2.394-.282.467-.634.86-1.056 1.178a4.074 4.074 0 01-1.685.753c-.65.135-1.352.203-2.109.203H0V0h7.212c1.818.03 3.107.559 3.867 1.598.457.637.683 1.401.683 2.29 0 .917-.229 1.651-.69 2.209-.256.312-.635.596-1.137.853.76.28 1.337.72 1.722 1.325zM3.444 5.914h3.16c.65 0 1.174-.124 1.579-.372.404-.248.605-.687.605-1.319 0-.698-.267-1.16-.802-1.384-.46-.155-1.048-.234-1.763-.234H3.444v3.309zm5.648 4.344c0-.779-.317-1.318-.95-1.607-.353-.164-.853-.248-1.493-.254H3.444v3.998H6.6c.648 0 1.15-.086 1.512-.263.653-.327.98-.95.98-1.874zm14.813-2.44c.073.49.105 1.203.092 2.133H16.21c.043 1.08.414 1.835 1.118 2.268.424.27.939.403 1.541.403.636 0 1.154-.162 1.553-.493.217-.176.408-.424.574-.737h2.855c-.075.637-.419 1.284-1.037 1.942-.956 1.044-2.299 1.568-4.022 1.568-1.424 0-2.68-.442-3.769-1.322-1.085-.884-1.63-2.316-1.63-4.304 0-1.864.489-3.29 1.471-4.284.986-.995 2.259-1.49 3.827-1.49.93 0 1.768.167 2.515.502.746.336 1.362.865 1.847 1.592.439.64.721 1.38.853 2.222zm-2.81.28c-.052-.747-.3-1.312-.747-1.698-.444-.387-.997-.582-1.658-.582-.719 0-1.274.208-1.669.616-.397.408-.644.962-.745 1.664h4.82z" fill="#fff"/></svg>