<svg xmlns="http://www.w3.org/2000/svg" width="20" height="24" fill="none"><path d="M15.967 16.793h-1.136l.005-.66c0-.294.241-.534.536-.534h.072c.295 0 .537.24.537.533zm-4.262-1.415c-.288 0-.524.194-.524.431v3.21c0 .237.236.43.524.43.29 0 .526-.193.526-.43v-3.21c0-.237-.236-.43-.526-.43zm6.922-1.795v6.106c0 1.465-1.27 2.664-2.823 2.664H4.196c-1.553 0-2.823-1.199-2.823-2.664v-6.106c0-1.465 1.27-2.664 2.823-2.664h11.608c1.553 0 2.823 1.199 2.823 2.664zM4.97 20.353V13.92h1.438v-.953l-3.836-.006v.937l1.198.004v6.45zm4.314-5.475h-1.2v3.435c0 .497.03.745-.002.833-.097.266-.536.55-.707.029-.029-.092-.003-.366-.004-.839l-.004-3.458H6.173l.004 3.404c.001.522-.012.91.004 1.088.03.312.02.676.309.884.54.389 1.574-.058 1.833-.614l-.002.71h.963zm3.838 3.933l-.003-2.859c0-1.09-.816-1.742-1.922-.86l.005-2.126-1.199.002-.005 7.337.985-.014.09-.457c1.259 1.155 2.05.363 2.049-1.023zm3.755-.379l-.9.005-.002.122v.502a.491.491 0 01-.492.487h-.176a.491.491 0 01-.492-.487v-1.32h2.06v-.776c0-.566-.015-1.133-.062-1.457-.147-1.024-1.585-1.187-2.312-.662a1.355 1.355 0 00-.503.677c-.102.295-.153.697-.153 1.209v1.704c0 2.834 3.442 2.434 3.032-.004zm-4.615-9.254c.062.15.158.272.289.364.128.09.293.136.49.136a.764.764 0 00.46-.143c.133-.096.245-.24.337-.43l-.023.47h1.337V3.888H14.1v4.426a.439.439 0 01-.877 0V3.888h-1.099v3.836c0 .489.01.815.024.98.015.164.052.321.114.474zM8.21 5.966c0-.546.046-.973.136-1.28.092-.306.255-.552.492-.738.236-.187.539-.28.907-.28.31 0 .574.06.795.18.223.12.395.275.514.466.12.193.203.39.247.592.045.205.067.515.067.932v1.438c0 .528-.021.916-.062 1.162a1.857 1.857 0 01-.264.691 1.25 1.25 0 01-.515.473 1.642 1.642 0 01-.725.153c-.305 0-.562-.042-.773-.13a1.061 1.061 0 01-.494-.395 1.75 1.75 0 01-.25-.637c-.051-.25-.075-.623-.075-1.122zm1.048 2.259c0 .322.24.585.532.585.292 0 .53-.263.53-.585V5.197c0-.321-.238-.584-.53-.584-.292 0-.532.263-.532.584zM5.556 9.753h1.261l.002-4.361 1.49-3.737H6.93L6.138 4.43l-.804-2.783H3.968l1.586 3.747z" fill="#fff"/></svg>