<svg width="1122" height="1122" viewBox="0 0 296.862 296.863" xmlns="http://www.w3.org/2000/svg"><path d="M339.375-67.656l-.761-.001c-.856 0-1.409.613-1.409 1.562v.72h-.765c-.066 0-.12.059-.12.13v1.044c0 .072.054.13.12.13h.765v2.634c0 .072.054.13.12.13h1c.065 0 .119-.059.119-.13v-2.634h.895c.066 0 .12-.058.12-.13v-1.044a.135.135 0 00-.035-.091.115.115 0 00-.085-.038h-.895v-.611c0-.294.065-.443.418-.443h.513c.066 0 .12-.058.12-.13v-.969c0-.071-.054-.129-.12-.13zM215.776 2.82l-34.938-.06c-39.253 0-64.62 28.141-64.62 71.697v33.058h-35.13c-3.036 0-5.494 2.661-5.494 5.944v47.897c0 3.282 2.461 5.94 5.494 5.94h35.13v120.859c0 3.282 2.458 5.94 5.494 5.94h45.834c3.036 0 5.494-2.66 5.494-5.94V167.296h41.075c3.036 0 5.494-2.658 5.494-5.94l.017-47.897c0-1.576-.58-3.086-1.61-4.201-1.028-1.115-2.43-1.743-3.888-1.743H173.04V79.492c0-13.47 2.969-20.307 19.195-20.307l23.537-.009c3.032 0 5.49-2.661 5.49-5.94V8.76c0-3.276-2.455-5.934-5.485-5.94z" fill="#fff"/></svg>