<svg width="20" height="20" viewBox="0 0 20 20" fill="none" xmlns="http://www.w3.org/2000/svg">
<path d="M5.04737 6.1816C4.73495 5.86918 4.73495 5.36265 5.04737 5.05023C5.35979 4.73781 5.86632 4.73781 6.17874 5.05023L14.9469 13.8184C15.2593 14.1308 15.2593 14.6373 14.9469 14.9497C14.6344 15.2621 14.1279 15.2621 13.8155 14.9497C13.8155 14.9497 5.35979 6.49402 5.04737 6.1816Z" fill="#EE4848"/>
<path d="M6.17881 14.9497C5.86639 15.2621 5.35986 15.2621 5.04744 14.9497C4.73502 14.6373 4.73502 14.1308 5.04744 13.8183L13.8156 5.05023C14.128 4.73781 14.6345 4.73781 14.9469 5.05023C15.2594 5.36265 15.2594 5.86918 14.9469 6.1816L6.17881 14.9497Z" fill="#EE4848"/>
</svg>
