<svg width="9" height="6" viewBox="0 0 9 6" fill="none" xmlns="http://www.w3.org/2000/svg">
<path d="M0.706956 3.53551C0.316431 3.14498 0.316431 2.51182 0.706956 2.12129C1.09748 1.73077 1.73065 1.73077 2.12117 2.12129L4.24249 4.24261C4.63301 4.63314 4.63301 5.2663 4.24249 5.65683C3.85197 6.04735 3.2188 6.04735 2.82828 5.65683L0.706956 3.53551Z" fill="#6DAC52"/>
<path d="M6.36305 0.707078C6.75358 0.316553 7.38674 0.316554 7.77727 0.707078C8.16779 1.0976 8.16779 1.73077 7.77727 2.12129L4.24249 5.65683C3.85197 6.04735 3.2188 6.04735 2.82828 5.65683C2.43775 5.2663 2.437 4.63314 2.82752 4.24261L6.36305 0.707078Z" fill="#6DAC52"/>
</svg>
