<svg width="14" height="14" viewBox="0 0 14 14" fill="none" xmlns="http://www.w3.org/2000/svg">
<path d="M6.19995 0.8C6.19995 0.358172 6.55812 0 6.99995 0C7.44178 0 7.79995 0.358172 7.79995 0.8L7.79995 13.2C7.79995 13.6418 7.44178 14 6.99995 14C6.55812 14 6.19995 13.6418 6.19995 13.2C6.19995 13.2 6.19995 1.24183 6.19995 0.8Z" fill="#6DAC52"/>
<path d="M0.8 7.80005C0.358172 7.80005 0 7.44188 0 7.00005C0 6.55822 0.358172 6.20005 0.8 6.20005L13.2 6.20005C13.6418 6.20005 14 6.55822 14 7.00005C14 7.44188 13.6418 7.80005 13.2 7.80005L0.8 7.80005Z" fill="#6DAC52"/>
</svg>
