<svg width="51" height="35" viewBox="0 0 51 35" fill="none" xmlns="http://www.w3.org/2000/svg">
<path d="M11.1951 12.7273C17.3505 12.7273 22.3405 17.7133 22.3405 23.8636C22.3405 30.014 17.3505 35 11.1951 35C5.0397 35 0.0497561 30.014 0.0497561 23.8636L0 22.2727C0 9.97182 9.97988 0 22.2907 0V6.36364C18.0379 6.36364 14.0395 8.01848 11.0322 11.0233C10.4534 11.6018 9.92505 12.2173 9.44848 12.8638C10.0176 12.7743 10.6008 12.7273 11.1951 12.7273ZM39.8546 12.7273C46.01 12.7273 51 17.7133 51 23.8636C51 30.014 46.01 35 39.8546 35C33.6993 35 28.7093 30.014 28.7093 23.8636L28.6595 22.2727C28.6595 9.97182 38.6393 0 50.9502 0V6.36364C46.6975 6.36364 42.6989 8.01848 39.6917 11.0233C39.1128 11.6018 38.5845 12.2173 38.1079 12.8638C38.677 12.7743 39.2603 12.7273 39.8546 12.7273Z" fill="white"/>
</svg>
