<svg width="35" height="35" viewBox="0 0 35 35" fill="none" xmlns="http://www.w3.org/2000/svg">
<path d="M22.0002 18C22.4002 14 19.5002 13 18.0002 13C13.6002 12.2 12.8335 16 13.0002 18H4.50021C4.33355 13.5 6.70021 4.5 17.5002 4.5C28.3002 4.5 31.0002 13.8333 31.0002 18.5C27.8335 20 21.6002 22 22.0002 18Z" fill="#6DAC52"/>
<path d="M12.4922 16.849C12.0922 20.849 15.9922 22.849 17.4922 22.849C20.0002 22.5 22.6589 18.849 22.4922 16.849H30.9922C31.1589 21.349 28.7922 30.349 17.9922 30.349C7.19219 30.349 4.49219 21.0157 4.49219 16.349C7.65885 14.849 12.8922 12.849 12.4922 16.849Z" fill="#6DAC52"/>
<path d="M22.0002 18C22.4002 14 19.5002 13 18.0002 13C13.6002 12.2 12.8335 16 13.0002 18H4.50021C4.33355 13.5 6.70021 4.5 17.5002 4.5C28.3002 4.5 31.0002 13.8333 31.0002 18.5C27.8335 20 21.6002 22 22.0002 18Z" stroke="#6DAC52"/>
<path d="M12.4922 16.849C12.0922 20.849 15.9922 22.849 17.4922 22.849C20.0002 22.5 22.6589 18.849 22.4922 16.849H30.9922C31.1589 21.349 28.7922 30.349 17.9922 30.349C7.19219 30.349 4.49219 21.0157 4.49219 16.349C7.65885 14.849 12.8922 12.849 12.4922 16.849Z" stroke="#6DAC52"/>
<path d="M17.5265 12.0961C14.5187 12.0961 12.0846 14.5334 12.0846 17.5451C12.0846 20.5569 14.5187 22.9941 17.5265 22.9941C20.5344 22.9941 23.0136 20.5569 23.0136 17.5451C23.0136 14.5334 20.5344 12.0961 17.5265 12.0961ZM17.5265 21.4021C15.4039 21.4021 13.6746 19.6747 13.6746 17.5451C13.6746 15.4156 15.3997 13.6882 17.5265 13.6882C19.6492 13.6882 21.3785 15.4156 21.3785 17.5451C21.3785 19.6747 19.6492 21.4021 17.5265 21.4021ZM34.2089 16.7491H31.7748C31.3773 9.52756 25.5338 3.67641 18.3215 3.27845V0.79603C18.3215 0.352881 17.9691 0 17.5265 0C17.084 0 16.7315 0.352881 16.7315 0.79603V3.27845C9.51525 3.71748 3.76181 9.52344 3.31924 16.704H0.795002C0.352425 16.704 0 17.0569 0 17.5C0 17.9431 0.352425 18.296 0.795002 18.296H3.3193C3.7168 25.5176 9.51525 31.3235 16.7275 31.7215V34.204C16.7275 34.6471 17.0799 35 17.5225 35C17.965 35 18.3175 34.6471 18.3175 34.204V31.7215C25.5748 31.3235 31.3732 25.5176 31.7707 18.2509H34.2049C34.6474 18.2509 34.9999 17.898 34.9999 17.4549C35.008 17.0117 34.6515 16.7491 34.2089 16.7491ZM18.3215 30.1746V27.6922C18.3215 27.249 17.9691 26.8962 17.5265 26.8962C17.084 26.8962 16.7315 27.249 16.7315 27.6922V30.1746C10.4454 29.7315 5.40095 24.6805 4.95838 18.3862H7.39252C7.8351 18.3862 8.18752 18.0334 8.18752 17.5902C8.18752 17.1471 7.8351 16.7942 7.39252 16.7942H4.95838C5.35588 10.5 10.4003 5.40387 16.7315 5.00586V7.48828C16.7315 7.93143 17.084 8.28431 17.5265 8.28431C17.9691 8.28431 18.3215 7.93143 18.3215 7.48828V5.00586C24.6486 5.40387 29.7381 10.4549 30.1398 16.7942H27.6155C27.1729 16.7942 26.8205 17.1471 26.8205 17.5903C26.8205 18.0334 27.1729 18.3863 27.6155 18.3863H30.1398C29.7423 24.7256 24.6527 29.7766 18.3215 30.1746Z" fill="#4F4F4F"/>
</svg>
