<svg width="34" height="38" viewBox="0 0 34 38" fill="none" xmlns="http://www.w3.org/2000/svg">
<path d="M32 21.5C31.2 15.9 25.3333 15.1666 22.5 15.5C24.9 15.5 26.8333 19.5 27.5 21.5V33H32C32.3333 31.5 32.8 27.1 32 21.5Z" fill="#6DAC52"/>
<path d="M32 21.5C31.2 15.9 25.3333 15.1666 22.5 15.5C24.9 15.5 26.8333 19.5 27.5 21.5V33H32C32.3333 31.5 32.8 27.1 32 21.5Z" stroke="#6DAC52"/>
<path d="M32 21.5C31.2 15.9 25.3333 15.1666 22.5 15.5C24.9 15.5 26.8333 19.5 27.5 21.5V33H32C32.3333 31.5 32.8 27.1 32 21.5Z" stroke="#6DAC52"/>
<path d="M2.44159 21.2169C3.24145 15.4791 9.1071 14.7277 11.9399 15.0693C9.54036 15.0693 7.16649 19.1677 6.49994 21.2169L5.99994 33H2.44159C2.10831 31.4631 1.64172 26.9548 2.44159 21.2169Z" fill="#6DAC52"/>
<path d="M2.44159 21.2169C3.24145 15.4791 9.1071 14.7277 11.9399 15.0693C9.54036 15.0693 7.16649 19.1677 6.49994 21.2169L5.99994 33H2.44159C2.10831 31.4631 1.64172 26.9548 2.44159 21.2169Z" stroke="#6DAC52"/>
<path d="M2.44159 21.2169C3.24145 15.4791 9.1071 14.7277 11.9399 15.0693C9.54036 15.0693 7.16649 19.1677 6.49994 21.2169L5.99994 33H2.44159C2.10831 31.4631 1.64172 26.9548 2.44159 21.2169Z" stroke="#6DAC52"/>
<path d="M25.046 14.566C27.9495 13.8193 29.6966 10.8651 28.9484 7.9675C28.2001 5.06992 25.2399 3.32635 22.3364 4.07304C22.2854 4.08618 22.2345 4.10004 22.184 4.11463C20.3915 1.09642 16.4866 0.0999101 13.4623 1.88877C12.5807 2.41025 11.8383 3.13634 11.2982 4.00547C10.9724 3.94109 10.6412 3.90713 10.3091 3.90386C7.31142 3.90335 4.88087 6.32815 4.88044 9.31972C4.88 11.7911 6.55593 13.9495 8.95404 14.566C4.5064 14.7736 1.00567 18.4297 1 22.8732V33.5162C1 33.8368 1.26051 34.0968 1.58182 34.0968H5.65455V36.4194C5.65455 36.74 5.91505 37 6.23636 37H27.1818C27.5031 37 27.7636 36.74 27.7636 36.4194V34.0968H32.4182C32.7395 34.0968 33 33.8368 33 33.5162V22.8732C32.9943 18.4297 29.4936 14.7736 25.046 14.566ZM22.7129 5.17603C23.0335 5.10185 23.3617 5.06462 23.6909 5.06513C26.0479 5.0636 27.9598 6.96925 27.9612 9.32139C27.9628 11.6735 26.0532 13.5816 23.6963 13.583C22.5793 13.5838 21.5067 13.1474 20.7084 12.3678C22.8598 10.652 23.6675 7.75383 22.7129 5.17603ZM22.3056 14.5602C22.1462 14.5684 21.9833 14.5823 21.8186 14.6003C20.5747 14.0557 19.2311 13.7746 17.8727 13.7746H15.5455C14.5636 13.7746 13.5872 13.9207 12.6486 14.2084C13.1809 13.9532 13.6681 13.6131 14.0909 13.2016C15.8901 14.0298 17.9764 13.9568 19.713 13.0047C20.4108 13.7594 21.3104 14.2992 22.3056 14.5602ZM13.8762 2.98929C14.7214 2.44792 15.7048 2.16073 16.7091 2.16189C18.7026 2.15441 20.525 3.28512 21.4003 5.0726V5.07609C22.584 7.45952 21.7775 10.3502 19.5297 11.7801C17.0973 13.3381 13.8598 12.6332 12.2986 10.2057C10.7375 7.77821 11.4437 4.54735 13.8762 2.98929ZM7.03004 12.0543C6.38975 11.2872 6.0408 10.3195 6.04436 9.3211C6.04691 6.97164 7.95484 5.0676 10.3091 5.06506C10.454 5.06506 10.5953 5.07899 10.7373 5.09293C9.68182 7.82205 10.6246 10.9178 13.0233 12.5994C11.2175 14.1005 8.53418 13.8564 7.03004 12.0543ZM5.65455 23.6454V32.9356H2.16364V22.8732C2.16618 18.9193 5.37556 15.7139 9.33745 15.7081H9.69062C7.15607 17.562 5.65738 20.5093 5.65455 23.6454ZM26.6 35.8387H6.81818V23.6454C6.82364 18.8375 10.7278 14.9414 15.5455 14.9359H17.8727C22.6904 14.9414 26.5945 18.8375 26.6 23.6454V35.8387ZM31.8364 32.9356H27.7636V23.6454C27.7608 20.5094 26.262 17.562 23.7276 15.7081H24.6625C28.6244 15.7139 31.8338 18.9193 31.8364 22.8732C31.8364 26.8028 31.8364 29.006 31.8364 32.9356Z" fill="#4F4F4F" stroke="#4F4F4F" stroke-width="0.3"/>
<path d="M14.6016 19.5696L16.3205 18.2778L18.0394 19.5696L17.18 21.7225L18.8988 23.0143L16.3205 31.6261L13.7422 23.0143L15.8908 21.2919L14.6016 19.5696Z" fill="#6DAC52" stroke="#6DAC52"/>
<path d="M19.8003 22.6005L18.2001 21.4004L19.4002 19.8003C19.5624 19.5843 19.5236 19.2786 19.3127 19.1098L16.8125 17.1097C16.6298 16.9634 16.3702 16.9634 16.1875 17.1097L13.6873 19.1098C13.4764 19.2786 13.4376 19.5843 13.5998 19.8003L14.7999 21.4004L13.1997 22.6005C13.0342 22.7249 12.9624 22.9384 13.0192 23.1375L16.0195 33.6381C16.0958 33.9035 16.3729 34.0567 16.6383 33.9804C16.8036 33.9328 16.9329 33.8035 16.9805 33.6381L19.9808 23.1375C20.0376 22.9384 19.9658 22.7248 19.8003 22.6005ZM16.5 31.681L14.0748 23.194L15.7999 21.9005C16.0209 21.7348 16.0657 21.4214 15.9 21.2004L14.6904 19.5883L16.5 18.1403L18.3096 19.5903L17.1 21.2004C16.9343 21.4214 16.9791 21.7348 17.2001 21.9005L18.9252 23.194L16.5 31.681Z" fill="#4F4F4F" stroke="#4F4F4F" stroke-width="0.3"/>
<path d="M21 26.5C21 26.7761 21.199 27 21.4444 27H24.5556C24.801 27 25 26.7761 25 26.5C25 26.2239 24.801 26 24.5556 26H21.4444C21.199 26 21 26.2238 21 26.5Z" fill="#4F4F4F" stroke="#4F4F4F" stroke-width="0.3"/>
</svg>
