<?xml version="1.0" encoding="UTF-8"?>
<svg id="svg14" width="22" height="22" fill="none" version="1.1" viewBox="0 0 22 22" xmlns="http://www.w3.org/2000/svg" xmlns:cc="http://creativecommons.org/ns#" xmlns:dc="http://purl.org/dc/elements/1.1/" xmlns:rdf="http://www.w3.org/1999/02/22-rdf-syntax-ns#">
 <metadata id="metadata20">
  <rdf:RDF>
   <cc:Work rdf:about="">
    <dc:format>image/svg+xml</dc:format>
    <dc:type rdf:resource="http://purl.org/dc/dcmitype/StillImage"/>
    <dc:title/>
   </cc:Work>
  </rdf:RDF>
 </metadata>
 <path id="path2" d="m21.496 3.7051c-0.0886-0.08452-0.1771-0.16908-0.3542-0.16908h-16.823l-0.44272-2.1979c0-0.16908-0.26563-0.33813-0.44273-0.33813h-2.6562c-0.26558-4e-5 -0.44268 0.16905-0.44268 0.42265 0 0.25361 0.1771 0.4227 0.44272 0.4227h2.3021l2.125 10.313c0.26563 1.3526 1.5938 2.367 3.0104 2.367h10.182c0.2656 0 0.4427-0.1691 0.4427-0.4227s-0.1771-0.4227-0.4427-0.4227h-10.094c-0.70834 0-1.4166-0.3381-1.7708-0.9299l12.927-1.6907c0.1771 0 0.3541-0.169 0.3541-0.3381l1.7709-6.7629s0-0.16908-0.0885-0.25361zm-2.4792 6.5938l-12.927 1.6062-1.5938-7.6082h16.026l-1.5052 6.002z" fill="#fff"/>
 <path id="path4" d="m7.86 16.611c-1.2396 0-2.2135 0.9656-2.2135 2.1945 0 1.229 0.97398 2.1946 2.2135 2.1946 1.2396 0 2.2135-0.9657 2.2135-2.1946 1e-4 -1.2289-0.97389-2.1945-2.2135-2.1945zm0 3.5112c-0.70835 0-1.3281-0.6145-1.3281-1.3167s0.61977-1.3167 1.3281-1.3167 1.3281 0.6145 1.3281 1.3167-0.61978 1.3167-1.3281 1.3167z" fill="#fff"/>
 <path id="path6" d="m16.714 16.611c-1.2396 0-2.2135 0.9656-2.2135 2.1945 0 1.229 0.974 2.1946 2.2135 2.1946 1.2396 0 2.2136-0.9657 2.2136-2.1946s-0.974-2.1945-2.2136-2.1945zm0 3.5112c-0.7083 0-1.3281-0.6145-1.3281-1.3167s0.6198-1.3167 1.3281-1.3167c0.7084 0 1.3282 0.6145 1.3282 1.3167s-0.6199 1.3167-1.3282 1.3167z" fill="#fff"/>
 <path id="path8" d="m21.496 3.7051c-0.0886-0.08452-0.1771-0.16908-0.3542-0.16908h-16.823l-0.44272-2.1979c0-0.16908-0.26563-0.33813-0.44273-0.33813h-2.6562c-0.26558-4e-5 -0.44268 0.16905-0.44268 0.42265 0 0.25361 0.1771 0.4227 0.44272 0.4227h2.3021l2.125 10.313c0.26563 1.3526 1.5938 2.367 3.0104 2.367h10.182c0.2656 0 0.4427-0.1691 0.4427-0.4227s-0.1771-0.4227-0.4427-0.4227h-10.094c-0.70834 0-1.4166-0.3381-1.7708-0.9299l12.927-1.6907c0.1771 0 0.3541-0.169 0.3541-0.3381l1.7709-6.7629s0-0.16908-0.0885-0.25361zm-2.4792 6.5938l-12.927 1.6062-1.5938-7.6082h16.026l-1.5052 6.002z" stroke="#fff" stroke-width=".5"/>
 <path id="path10" d="m7.86 16.611c-1.2396 0-2.2135 0.9656-2.2135 2.1945 0 1.229 0.97398 2.1946 2.2135 2.1946 1.2396 0 2.2135-0.9657 2.2135-2.1946 1e-4 -1.2289-0.97389-2.1945-2.2135-2.1945zm0 3.5112c-0.70835 0-1.3281-0.6145-1.3281-1.3167s0.61977-1.3167 1.3281-1.3167 1.3281 0.6145 1.3281 1.3167-0.61978 1.3167-1.3281 1.3167z" stroke="#fff" stroke-width=".5"/>
 <path id="path12" d="m16.714 16.611c-1.2396 0-2.2135 0.9656-2.2135 2.1945 0 1.229 0.974 2.1946 2.2135 2.1946 1.2396 0 2.2136-0.9657 2.2136-2.1946s-0.974-2.1945-2.2136-2.1945zm0 3.5112c-0.7083 0-1.3281-0.6145-1.3281-1.3167s0.6198-1.3167 1.3281-1.3167c0.7084 0 1.3282 0.6145 1.3282 1.3167s-0.6199 1.3167-1.3282 1.3167z" stroke="#fff" stroke-width=".5"/>
</svg>
