<svg width="29" height="32" viewBox="0 0 29 32" fill="none" xmlns="http://www.w3.org/2000/svg">
<path d="M24.164 22.62C22.9407 22.62 21.8456 23.0986 21.0113 23.8533L9.5223 17.1893C9.60522 16.82 9.66938 16.448 9.66938 16.064C9.66938 15.6799 9.60387 15.3093 9.5223 14.9386L20.8816 8.33726C21.748 9.13727 22.8938 9.63724 24.164 9.63724C26.842 9.63724 29 7.48923 29 4.81859C29 2.15331 26.8407 0 24.164 0C21.4913 0 19.332 2.15331 19.332 4.81731C19.332 5.20662 19.3975 5.57198 19.4791 5.94265L8.11974 12.5493C7.25202 11.7453 6.10756 11.2466 4.836 11.2466C2.15798 11.2466 0 13.3987 0 16.064C0 18.7292 2.15798 20.8826 4.836 20.8826C6.10615 20.8826 7.25202 20.3826 8.1184 19.5826L19.5873 26.2613C19.5084 26.6013 19.4589 26.956 19.4589 27.3093C19.4589 29.896 21.5727 32 24.1626 32C26.7551 32 28.8702 29.8973 28.8702 27.3093C28.8702 24.7213 26.7565 22.62 24.164 22.62Z" fill="white"/>
</svg>
