<svg width="22" height="22" viewBox="0 0 22 22" fill="none" xmlns="http://www.w3.org/2000/svg">
<path d="M21.4955 3.70512C21.4069 3.6206 21.3184 3.53604 21.1413 3.53604H4.31836L3.87564 1.33813C3.87564 1.16905 3.61001 1 3.43291 1H0.776665C0.511082 0.99996 0.333984 1.16905 0.333984 1.42265C0.333984 1.67626 0.511082 1.84535 0.776707 1.84535H3.0788L5.2038 12.1587C5.46943 13.5113 6.79755 14.5257 8.21421 14.5257H18.3965C18.6621 14.5257 18.8392 14.3566 18.8392 14.103C18.8392 13.8494 18.6621 13.6803 18.3965 13.6803H8.30273C7.59439 13.6803 6.88608 13.3422 6.53189 12.7504L19.459 11.0597C19.6361 11.0597 19.8131 10.8907 19.8131 10.7216L21.584 3.95873C21.584 3.95873 21.584 3.78965 21.4955 3.70512ZM19.0163 10.2989L6.08917 11.9051L4.49542 4.29686H20.5215L19.0163 10.2989Z" fill="#242424"/>
<path d="M7.86001 16.611C6.62046 16.611 5.64648 17.5766 5.64648 18.8055C5.64648 20.0345 6.62046 21.0001 7.86001 21.0001C9.09961 21.0001 10.0735 20.0344 10.0735 18.8055C10.0736 17.5766 9.09961 16.611 7.86001 16.611ZM7.86001 20.1222C7.15166 20.1222 6.53189 19.5077 6.53189 18.8055C6.53189 18.1033 7.15166 17.4888 7.86001 17.4888C8.56836 17.4888 9.18814 18.1033 9.18814 18.8055C9.18814 19.5077 8.56836 20.1222 7.86001 20.1222Z" fill="#242424"/>
<path d="M16.7142 16.611C15.4746 16.611 14.5007 17.5766 14.5007 18.8055C14.5007 20.0345 15.4747 21.0001 16.7142 21.0001C17.9538 21.0001 18.9278 20.0344 18.9278 18.8055C18.9278 17.5766 17.9538 16.611 16.7142 16.611ZM16.7142 20.1222C16.0059 20.1222 15.3861 19.5077 15.3861 18.8055C15.3861 18.1033 16.0059 17.4888 16.7142 17.4888C17.4226 17.4888 18.0424 18.1033 18.0424 18.8055C18.0424 19.5077 17.4225 20.1222 16.7142 20.1222Z" fill="#242424"/>
<path d="M21.4955 3.70512C21.4069 3.6206 21.3184 3.53604 21.1413 3.53604H4.31836L3.87564 1.33813C3.87564 1.16905 3.61001 1 3.43291 1H0.776665C0.511082 0.99996 0.333984 1.16905 0.333984 1.42265C0.333984 1.67626 0.511082 1.84535 0.776707 1.84535H3.0788L5.2038 12.1587C5.46943 13.5113 6.79755 14.5257 8.21421 14.5257H18.3965C18.6621 14.5257 18.8392 14.3566 18.8392 14.103C18.8392 13.8494 18.6621 13.6803 18.3965 13.6803H8.30273C7.59439 13.6803 6.88608 13.3422 6.53189 12.7504L19.459 11.0597C19.6361 11.0597 19.8131 10.8907 19.8131 10.7216L21.584 3.95873C21.584 3.95873 21.584 3.78965 21.4955 3.70512ZM19.0163 10.2989L6.08917 11.9051L4.49542 4.29686H20.5215L19.0163 10.2989Z" stroke="#242424" stroke-width="0.5"/>
<path d="M7.86001 16.611C6.62046 16.611 5.64648 17.5766 5.64648 18.8055C5.64648 20.0345 6.62046 21.0001 7.86001 21.0001C9.09961 21.0001 10.0735 20.0344 10.0735 18.8055C10.0736 17.5766 9.09961 16.611 7.86001 16.611ZM7.86001 20.1222C7.15166 20.1222 6.53189 19.5077 6.53189 18.8055C6.53189 18.1033 7.15166 17.4888 7.86001 17.4888C8.56836 17.4888 9.18814 18.1033 9.18814 18.8055C9.18814 19.5077 8.56836 20.1222 7.86001 20.1222Z" stroke="#242424" stroke-width="0.5"/>
<path d="M16.7142 16.611C15.4746 16.611 14.5007 17.5766 14.5007 18.8055C14.5007 20.0345 15.4747 21.0001 16.7142 21.0001C17.9538 21.0001 18.9278 20.0344 18.9278 18.8055C18.9278 17.5766 17.9538 16.611 16.7142 16.611ZM16.7142 20.1222C16.0059 20.1222 15.3861 19.5077 15.3861 18.8055C15.3861 18.1033 16.0059 17.4888 16.7142 17.4888C17.4226 17.4888 18.0424 18.1033 18.0424 18.8055C18.0424 19.5077 17.4225 20.1222 16.7142 20.1222Z" stroke="#242424" stroke-width="0.5"/>
</svg>
