<svg width="35" height="35" viewBox="0 0 35 35" fill="none" xmlns="http://www.w3.org/2000/svg">
<path d="M31.582 3.00781H28.3235V2.05078C28.3235 0.91998 27.4036 0 26.2728 0C25.142 0 24.222 0.91998 24.222 2.05078V3.00781H12.7376V2.05078C12.7376 0.91998 11.8176 0 10.6868 0C9.55602 0 8.63604 0.91998 8.63604 2.05078V3.03311C8.57794 3.01704 8.51703 3.00781 8.4538 3.00781H5.73009C3.84542 3.00781 2.31212 4.54111 2.31212 6.42578V18.0696C2.31212 18.4472 2.61823 18.7532 2.99571 18.7532C3.37319 18.7532 3.67931 18.4472 3.67931 18.0696V10.0488H28.3235C28.701 10.0488 29.0071 9.74278 29.0071 9.36523C29.0071 8.98769 28.701 8.68164 28.3235 8.68164H3.67931V6.42578C3.67931 5.29498 4.59929 4.375 5.73009 4.375H8.4538C8.51703 4.375 8.57794 4.3657 8.63604 4.34971V5.22949C8.63604 6.36029 9.55602 7.28027 10.6868 7.28027C11.8176 7.28027 12.7376 6.36029 12.7376 5.22949V4.375H24.222V5.22949C24.222 6.36029 25.142 7.28027 26.2728 7.28027C27.4036 7.28027 28.3235 6.36029 28.3235 5.22949V4.375H31.582C32.7128 4.375 33.6328 5.29498 33.6328 6.42578V32.4019C33.6328 33.0806 33.0807 33.6328 32.4019 33.6328C31.7232 33.6328 31.1711 33.0806 31.1711 32.4019V30.6335C31.1711 30.256 30.8649 29.95 30.4875 29.95H22.5358C22.1583 29.95 21.8522 30.256 21.8522 30.6335C21.8522 31.0111 22.1583 31.3171 22.5358 31.3171H29.8039V32.4019C29.8039 32.847 29.9165 33.2662 30.1146 33.6328H2.59766C1.91919 33.6328 1.36719 33.0808 1.36719 32.4023V31.3171H16.6677C17.0452 31.3171 17.3513 31.0111 17.3513 30.6335C17.3513 30.256 17.0452 29.95 16.6677 29.95H9.83753C11.032 28.9212 11.7906 27.3995 11.7906 25.7031C11.7906 22.6123 9.27596 20.0977 6.18509 20.0977C3.09422 20.0977 0.579619 22.6123 0.579619 25.7031C0.579619 27.3995 1.33813 28.9212 2.53265 29.95H0.683594C0.306113 29.95 0 30.256 0 30.6335V32.4023C0 33.8347 1.16532 35 2.59766 35H32.4019C33.8345 35 35 33.8345 35 32.4019V6.42578C35 4.54111 33.4667 3.00781 31.582 3.00781ZM11.3704 5.22949C11.3704 5.60643 11.0638 5.91309 10.6868 5.91309C10.3099 5.91309 10.0032 5.60643 10.0032 5.22949V2.05078C10.0032 1.67385 10.3099 1.36719 10.6868 1.36719C11.0638 1.36719 11.3704 1.67385 11.3704 2.05078V5.22949ZM26.9564 5.22949C26.9564 5.60643 26.6497 5.91309 26.2728 5.91309C25.8958 5.91309 25.5892 5.60643 25.5892 5.22949V2.05078C25.5892 1.67385 25.8958 1.36719 26.2728 1.36719C26.6497 1.36719 26.9564 1.67385 26.9564 2.05078V5.22949ZM1.94681 25.7031C1.94681 23.3661 3.84809 21.4648 6.18509 21.4648C8.52209 21.4648 10.4234 23.3661 10.4234 25.7031C10.4234 28.0401 8.52209 29.9414 6.18509 29.9414C3.84809 29.9414 1.94681 28.0401 1.94681 25.7031Z" fill="#00AF80"/>
<path d="M32.0133 8.88193C31.8862 8.75478 31.7099 8.68164 31.5301 8.68164C31.3502 8.68164 31.1739 8.75478 31.0468 8.88193C30.9196 9.00908 30.8465 9.18545 30.8465 9.36523C30.8465 9.54502 30.9196 9.72139 31.0468 9.84854C31.174 9.97568 31.3502 10.0488 31.5301 10.0488C31.7099 10.0488 31.8862 9.97568 32.0133 9.84854C32.1405 9.72139 32.2137 9.54502 32.2137 9.36523C32.2137 9.18545 32.1405 9.00908 32.0133 8.88193Z" fill="#00AF80"/>
<path d="M20.4155 30.15C20.2884 30.0229 20.112 29.9504 19.9322 29.9504C19.7524 29.9504 19.5761 30.0229 19.4489 30.15C19.3218 30.2779 19.2486 30.4536 19.2486 30.6333C19.2486 30.8138 19.3217 30.9895 19.4489 31.1173C19.5761 31.2445 19.7524 31.3169 19.9322 31.3169C20.112 31.3169 20.2884 31.2445 20.4155 31.1173C20.5426 30.9895 20.6158 30.8131 20.6158 30.6333C20.6158 30.4536 20.5427 30.2779 20.4155 30.15Z" fill="#00AF80"/>
<path d="M15.466 20.7812C14.0336 20.7812 12.8683 21.9466 12.8683 23.3789C12.8683 24.8112 14.0336 25.9766 15.466 25.9766C16.8983 25.9766 18.0636 24.8112 18.0636 23.3789C18.0636 21.9466 16.8983 20.7812 15.466 20.7812ZM15.466 24.6094C14.7875 24.6094 14.2355 24.0574 14.2355 23.3789C14.2355 22.7004 14.7875 22.1484 15.466 22.1484C16.1444 22.1484 16.6964 22.7004 16.6964 23.3789C16.6964 24.0574 16.1444 24.6094 15.466 24.6094Z" fill="#00AF80"/>
<path d="M21.8462 20.7812C20.4138 20.7812 19.2485 21.9466 19.2485 23.3789C19.2485 24.8112 20.4138 25.9766 21.8462 25.9766C23.2785 25.9766 24.4438 24.8112 24.4438 23.3789C24.4438 21.9466 23.2785 20.7812 21.8462 20.7812ZM21.8462 24.6094C21.1677 24.6094 20.6157 24.0574 20.6157 23.3789C20.6157 22.7004 21.1677 22.1484 21.8462 22.1484C22.5246 22.1484 23.0766 22.7004 23.0766 23.3789C23.0766 24.0574 22.5246 24.6094 21.8462 24.6094Z" fill="#00AF80"/>
<path d="M28.2264 20.7812C26.7941 20.7812 25.6288 21.9466 25.6288 23.3789C25.6288 24.8112 26.7941 25.9766 28.2264 25.9766C29.6587 25.9766 30.8241 24.8112 30.8241 23.3789C30.8241 21.9466 29.6587 20.7812 28.2264 20.7812ZM28.2264 24.6094C27.5479 24.6094 26.9959 24.0574 26.9959 23.3789C26.9959 22.7004 27.5479 22.1484 28.2264 22.1484C28.9049 22.1484 29.4569 22.7004 29.4569 23.3789C29.4569 24.0574 28.9049 24.6094 28.2264 24.6094Z" fill="#00AF80"/>
<path d="M9.08578 13.6719C7.65345 13.6719 6.48813 14.8372 6.48813 16.2695C6.48813 17.7019 7.65345 18.8672 9.08578 18.8672C10.5181 18.8672 11.6834 17.7019 11.6834 16.2695C11.6834 14.8372 10.5181 13.6719 9.08578 13.6719ZM9.08578 17.5C8.40732 17.5 7.85532 16.948 7.85532 16.2695C7.85532 15.5911 8.40732 15.0391 9.08578 15.0391C9.76425 15.0391 10.3163 15.5911 10.3163 16.2695C10.3163 16.948 9.76425 17.5 9.08578 17.5Z" fill="#00AF80"/>
<path d="M21.8462 13.6719C20.4138 13.6719 19.2485 14.8372 19.2485 16.2695C19.2485 17.7019 20.4138 18.8672 21.8462 18.8672C23.2785 18.8672 24.4438 17.7019 24.4438 16.2695C24.4438 14.8372 23.2785 13.6719 21.8462 13.6719ZM21.8462 17.5C21.1677 17.5 20.6157 16.948 20.6157 16.2695C20.6157 15.5911 21.1677 15.0391 21.8462 15.0391C22.5246 15.0391 23.0766 15.5911 23.0766 16.2695C23.0766 16.948 22.5246 17.5 21.8462 17.5Z" fill="#00AF80"/>
<path d="M28.2264 13.6719C26.7941 13.6719 25.6288 14.8372 25.6288 16.2695C25.6288 17.7019 26.7941 18.8672 28.2264 18.8672C29.6587 18.8672 30.8241 17.7019 30.8241 16.2695C30.8241 14.8372 29.6587 13.6719 28.2264 13.6719ZM28.2264 17.5C27.5479 17.5 26.9959 16.948 26.9959 16.2695C26.9959 15.5911 27.5479 15.0391 28.2264 15.0391C28.9049 15.0391 29.4569 15.5911 29.4569 16.2695C29.4569 16.948 28.9049 17.5 28.2264 17.5Z" fill="#00AF80"/>
<path d="M15.466 13.6719C14.0336 13.6719 12.8683 14.8372 12.8683 16.2695C12.8683 17.7019 14.0336 18.8672 15.466 18.8672C16.8983 18.8672 18.0636 17.7019 18.0636 16.2695C18.0636 14.8372 16.8983 13.6719 15.466 13.6719ZM15.466 17.5C14.7875 17.5 14.2355 16.948 14.2355 16.2695C14.2355 15.5911 14.7875 15.0391 15.466 15.0391C16.1444 15.0391 16.6964 15.5911 16.6964 16.2695C16.6964 16.948 16.1444 17.5 15.466 17.5Z" fill="#00AF80"/>
<path d="M8.62039 24.0371C8.35337 23.7702 7.92066 23.7702 7.65358 24.0371L5.42739 26.2634L4.66662 25.5026C4.39961 25.2357 3.96689 25.2357 3.69981 25.5026C3.43287 25.7696 3.43287 26.2024 3.69981 26.4694L4.94402 27.7135C5.07226 27.8417 5.2461 27.9137 5.42739 27.9137C5.60868 27.9137 5.78252 27.8417 5.91076 27.7135L8.62039 25.0039C8.88733 24.7369 8.88733 24.3041 8.62039 24.0371Z" fill="#00AF80"/>
</svg>
