<svg width="12" height="12" viewBox="0 0 12 12" fill="none" xmlns="http://www.w3.org/2000/svg">
<path d="M0.234338 10.8409C-0.0780817 10.5285 -0.0780817 10.022 0.234338 9.70955L9.70957 0.234315C10.022 -0.0781049 10.5285 -0.0781048 10.8409 0.234315C11.1534 0.546734 11.1534 1.05327 10.8409 1.36569L1.36571 10.8409C1.05329 11.1533 0.546757 11.1533 0.234338 10.8409Z" fill="#919393"/>
<path d="M0.234315 0.234349C0.546734 -0.0780707 1.05327 -0.0780707 1.36569 0.234349L10.8409 9.70958C11.1533 10.022 11.1533 10.5285 10.8409 10.841C10.5285 11.1534 10.022 11.1534 9.70955 10.841L0.234315 1.36572C-0.0781049 1.0533 -0.0781048 0.546768 0.234315 0.234349Z" fill="#919393"/>
</svg>
