<svg width="96" height="92" viewBox="0 0 96 92" fill="none" xmlns="http://www.w3.org/2000/svg">
<path d="M7.03638 19.3345L0 4.86367L21.6533 10.0008L28.1448 0.0323355L39.1978 9.12493L47.9121 0.0182765L56.8213 9.12703L67.7183 0L74.2427 10.0191L96 5.0366L88.4246 19.3345H80.0449L81.969 15.6468L70.7424 18.2182L66.022 10.9702L56.3042 19.2009L47.9722 10.592L39.8196 19.203L29.8828 10.9378L25.1301 18.2372L13.4246 15.4599L15.3091 19.3345H7.03638ZM80.0208 72.5748L81.969 76.3539L70.7424 73.7825L66.022 81.0305L56.3042 72.8904L47.9722 81.4087L39.8196 72.8883L29.8828 81.0622L25.1301 73.7635L13.4246 76.5408L15.3091 72.5748H7.03638L0 87.137L21.6533 81.9999L28.1448 91.9684L39.1978 82.8751L47.9121 91.9817L56.8213 82.873L67.7183 92L74.2427 81.9809L96 86.9641L88.4246 72.5748H80.0208ZM58.4714 36.6016V55.6676C58.4714 61.1225 53.8477 65.5601 48.1641 65.5601C42.4805 65.5601 37.8567 61.1225 37.8567 55.6676V36.6016C37.8567 31.1468 42.4805 26.7091 48.1641 26.7091C53.8477 26.7091 58.4714 31.1468 58.4714 36.6016ZM50.9751 36.6016C50.9751 35.1142 49.7139 33.9037 48.1641 33.9037C46.6135 33.9037 45.353 35.1142 45.353 36.6016V55.6676C45.353 57.155 46.6135 58.3655 48.1641 58.3655C49.7139 58.3655 50.9751 57.155 50.9751 55.6676V36.6016ZM63.531 27.4289V47.5739C63.531 52.1915 68.5356 60.4912 70.0693 62.9255L71.1628 64.6611H75.731L76.8318 62.967C77.447 62.0208 78.6013 60.1882 79.7849 58.0302C80.9238 60.1693 82.0334 61.9857 82.626 62.9255L83.7195 64.6611H88.3213L89.4155 62.9255C90.9485 60.4912 95.9531 52.1915 95.9531 47.5739V27.4289H88.4568V47.5739C88.4568 48.6466 87.4211 51.1505 86.0193 53.8884C84.6182 51.1526 83.584 48.6494 83.584 47.5739V27.4289H76.0876V47.5739C76.0876 48.6325 74.9788 51.2032 73.5081 53.977C72.0842 51.2067 71.0273 48.6614 71.0273 47.5739V27.4289H63.531ZM7.63184 64.6611H12.167L13.2737 63.0085C13.9204 62.0426 15.1458 60.1538 16.3909 57.936C17.5474 60.1165 18.6812 61.9716 19.2817 62.9248L20.3752 64.6604H24.9104L26.0171 63.0077C27.6511 60.5671 32.9839 52.2407 32.9839 47.5739V27.4289H25.4875V47.5739C25.4875 48.6382 24.3127 51.258 22.7681 54.0691C21.3201 51.2637 20.2397 48.6733 20.2397 47.5739V27.4289H12.7434V47.5739C12.7434 48.6382 11.5693 51.258 10.0247 54.0691C8.57666 51.2637 7.49634 48.6733 7.49634 47.5739V27.4289H0V47.5739C0 52.1915 5.00464 60.4912 6.53833 62.9255L7.63184 64.6611Z" fill="#D44543"/>
</svg>
