<svg width="86" height="95" viewBox="0 0 86 95" fill="none" xmlns="http://www.w3.org/2000/svg">
<path d="M72.852 22.1478C66.1686 15.4644 57.658 11.2738 48.4472 10.036C49.0235 9.04912 49.3555 7.90281 49.3555 6.67969C49.3555 2.9964 46.3591 0 42.6758 0C38.9925 0 35.9961 2.9964 35.9961 6.67969C35.9961 7.90281 36.328 9.04912 36.9043 10.036C27.6936 11.2738 19.1829 15.4642 12.4995 22.1478C4.43902 30.2083 0 40.925 0 52.3242C0 63.7235 4.43902 74.4401 12.4995 82.5006C20.5599 90.561 31.2767 95 42.6758 95C54.0749 95 64.7917 90.561 72.852 82.5006C80.9125 74.4401 85.3516 63.7233 85.3516 52.3242C85.3516 40.9251 80.9125 30.2083 72.852 22.1478ZM39.707 6.67969C39.707 5.04279 41.0389 3.71094 42.6758 3.71094C44.3127 3.71094 45.6445 5.04279 45.6445 6.67969C45.6445 8.31658 44.3127 9.64844 42.6758 9.64844C41.0389 9.64844 39.707 8.31658 39.707 6.67969ZM42.6758 91.2891C21.1906 91.2891 3.71094 73.8094 3.71094 52.3242C3.71094 30.839 21.1906 13.3594 42.6758 13.3594C64.161 13.3594 81.6406 30.839 81.6406 52.3242C81.6406 73.8094 64.161 91.2891 42.6758 91.2891Z" fill="#FFF741"/>
<path d="M42.6758 18.9258C24.2599 18.9258 9.27734 33.9083 9.27734 52.3242C9.27734 53.0313 9.30202 53.7327 9.34562 54.4291C9.30239 54.5862 9.27734 54.751 9.27734 54.9219C9.27734 55.197 9.33895 55.4574 9.44638 55.6923C11.1406 72.5325 25.3965 85.7227 42.6758 85.7227C61.0917 85.7227 76.0742 70.7401 76.0742 52.3242C76.0742 33.9083 61.0917 18.9258 42.6758 18.9258ZM44.5312 81.952V78.3008C44.5312 77.2762 43.7006 76.4453 42.6758 76.4453C41.651 76.4453 40.8203 77.2762 40.8203 78.3008V81.952C26.8021 81.0832 15.3868 70.4436 13.3223 56.7773H16.6992C17.724 56.7773 18.5547 55.9465 18.5547 54.9219C18.5547 53.8973 17.724 53.0664 16.6992 53.0664H12.9977C12.9916 52.8196 12.9883 52.5723 12.9883 52.3242C12.9883 36.5778 25.3117 23.6576 40.8203 22.6965V26.3477C40.8203 27.3724 41.651 28.2031 42.6758 28.2031C43.7006 28.2031 44.5312 27.3724 44.5312 26.3477V22.6965C59.4258 23.6197 71.3804 35.5742 72.3035 50.4688H68.6523C67.6276 50.4688 66.7969 51.2996 66.7969 52.3242C66.7969 53.3488 67.6276 54.1797 68.6523 54.1797H72.3035C71.3804 69.0743 59.4258 81.0289 44.5312 81.952Z" fill="#FFF741"/>
<path d="M51.7744 50.1266C51.5407 48.9495 51.0805 47.8355 50.417 46.8361L58.8317 38.4214C59.5563 37.6968 59.5563 36.5219 58.8317 35.7972C58.1072 35.0728 56.9323 35.0728 56.2075 35.7972L47.7928 44.2119C46.8198 43.5659 45.7377 43.1144 44.5951 42.8753L26.8349 33.6089C26.1165 33.2344 25.2377 33.3688 24.6646 33.9419C24.0916 34.5151 23.9567 35.3936 24.3317 36.1123L33.5981 53.8722C33.8372 55.015 34.2887 56.0971 34.9348 57.0701L26.52 65.4849C25.7955 66.2094 25.7955 67.3843 26.52 68.1091C26.8824 68.4712 27.3572 68.6525 27.832 68.6525C28.3068 68.6525 28.7818 68.4712 29.144 68.1091L37.5586 59.6943C38.4893 60.3124 39.52 60.7512 40.6079 60.9978C40.6494 61.0238 40.6912 61.0496 40.7353 61.0728L58.5165 70.3503C58.7879 70.4919 59.0822 70.5607 59.3743 70.5607C59.8552 70.5607 60.3302 70.3738 60.6868 70.0172C61.2598 69.4441 61.3947 68.5655 61.0197 67.8469L51.7744 50.1266ZM42.6758 57.5195C41.189 57.5195 39.7911 56.9406 38.7398 55.8891C37.6885 54.8378 37.1094 53.4399 37.1094 51.9531C37.1094 50.4663 37.6885 49.0684 38.7398 48.0171C39.7911 46.9656 41.189 46.3867 42.6758 46.3867C44.1626 46.3867 45.5605 46.9656 46.6118 48.0171C47.6633 49.0684 48.2422 50.4663 48.2422 51.9531C48.2422 53.4399 47.6631 54.8378 46.6118 55.8891C45.5605 56.9406 44.1626 57.5195 42.6758 57.5195ZM38.2919 43.7724C37.5012 44.1975 36.7683 44.7404 36.1156 45.3929C35.463 46.0457 34.9199 46.7786 34.495 47.5692L30.3527 39.63L38.2919 43.7724ZM47.0092 60.1602C47.8191 59.7314 48.5695 59.1796 49.2358 58.5133C49.8813 57.8678 50.4192 57.1432 50.8421 56.3623L54.9987 64.3289L47.0092 60.1602Z" fill="#FFF741"/>
<path d="M42.6758 54.7363C44.2129 54.7363 45.459 53.4902 45.459 51.9531C45.459 50.416 44.2129 49.1699 42.6758 49.1699C41.1387 49.1699 39.8926 50.416 39.8926 51.9531C39.8926 53.4902 41.1387 54.7363 42.6758 54.7363Z" fill="#FFF741"/>
</svg>
