<svg width="16" height="16" viewBox="0 0 16 16" fill="none" xmlns="http://www.w3.org/2000/svg">
<g clip-path="url(#clip0)">
<path d="M8.0006 8.90495C7.50164 8.90495 7.0957 8.49901 7.0957 8.00005C7.0957 7.50109 7.50164 7.09515 8.0006 7.09515C8.4996 7.09515 8.9055 7.50109 8.9055 8.00005C8.9055 8.49901 8.4996 8.90495 8.0006 8.90495Z" fill="black"/>
<path d="M8 12.3538C6.20078 12.3538 4.26437 11.6502 2.40014 10.3189C1.00653 9.3237 0.146376 8.33776 0.110433 8.29621C-0.0368111 8.1262 -0.0368111 7.87384 0.110433 7.70379C0.146376 7.66231 1.0065 6.6763 2.40014 5.68113C4.26441 4.34996 6.20081 3.64624 8 3.64624C9.79922 3.64624 11.7357 4.34992 13.5999 5.68113C14.9935 6.6763 15.8536 7.66227 15.8896 7.70379C16.0368 7.8738 16.0368 8.12616 15.8896 8.29621C15.8536 8.33769 14.9935 9.3237 13.5999 10.3189C11.7357 11.6501 9.79926 12.3538 8 12.3538ZM1.07277 8.00005C1.42061 8.35474 2.0771 8.97843 2.94388 9.59524C4.13219 10.4408 5.97398 11.4489 8 11.4489C10.026 11.4489 11.8678 10.4408 13.0561 9.59524C13.9228 8.97854 14.5793 8.35477 14.9272 8.00005C14.5794 7.64537 13.9229 7.02168 13.0561 6.40487C11.8678 5.55926 10.026 4.55121 8 4.55121C5.97398 4.55121 4.13219 5.55926 2.94388 6.40487C2.07721 7.02157 1.42069 7.64526 1.07277 8.00005Z" fill="black"/>
<path d="M8 10.8053C6.45321 10.8053 5.19482 9.54684 5.19482 8.00009C5.19482 6.45333 6.45321 5.19491 8 5.19491C8.68026 5.19491 9.33649 5.44155 9.84772 5.88944C10.0357 6.05409 10.0546 6.33993 9.88993 6.5279C9.72527 6.71586 9.4394 6.73472 9.25147 6.5701C8.90529 6.26681 8.46081 6.09981 7.99996 6.09981C6.95213 6.09981 6.09968 6.95229 6.09968 8.00009C6.09968 9.04788 6.95213 9.90037 7.99996 9.90037C9.04783 9.90037 9.90024 9.04788 9.90024 8.00009C9.90024 7.75023 10.1028 7.54764 10.3527 7.54764C10.6026 7.54764 10.8051 7.75023 10.8051 8.00009C10.8052 9.54684 9.54679 10.8053 8 10.8053Z" fill="black"/>
</g>
<defs>
<clipPath id="clip0">
<rect width="16" height="16" fill="white"/>
</clipPath>
</defs>
</svg>
