<svg width="38" height="14" viewBox="0 0 38 14" fill="none" xmlns="http://www.w3.org/2000/svg">
<path d="M8.14281 12.6003L8.14281 9.79962L29.857 9.79962L29.857 12.6003C29.857 12.9794 29.9914 13.308 30.26 13.5846C30.5285 13.8615 30.8466 14 31.2141 14C31.5816 14 31.8997 13.862 32.1686 13.5841L37.5971 7.98418C37.8656 7.7072 38 7.37896 38 6.99992C38 6.62081 37.8656 6.2928 37.5971 6.01559L32.1686 0.415587C31.8998 0.138376 31.5816 -2.80555e-07 31.2141 -2.96622e-07C30.8467 -3.1268e-07 30.5286 0.138453 30.26 0.415587C29.9914 0.692875 29.857 1.02096 29.857 1.40015L29.857 4.20023L8.14281 4.20023L8.14281 1.40038C8.14281 1.02096 8.00853 0.692797 7.74018 0.415815C7.47124 0.138681 7.15306 0.00022897 6.78548 0.000228954C6.4182 0.000228938 6.10017 0.138681 5.8313 0.415815L0.402855 6.01589C0.134208 6.29303 -2.89415e-07 6.62104 -3.0599e-07 7.00023C-3.22568e-07 7.3795 0.134208 7.70774 0.402855 7.98472L5.8313 13.5846C6.10017 13.8615 6.41813 14 6.78548 14C7.15298 14 7.47116 13.8615 7.74018 13.5846C8.00853 13.308 8.14281 12.9797 8.14281 12.6003Z" fill="black"/>
</svg>
