<?xml version="1.0" encoding="UTF-8"?>
<svg id="svg20" width="512pt" height="512pt" version="1.1" viewBox="0 0 512 512" xmlns="http://www.w3.org/2000/svg" xmlns:cc="http://creativecommons.org/ns#" xmlns:dc="http://purl.org/dc/elements/1.1/" xmlns:rdf="http://www.w3.org/1999/02/22-rdf-syntax-ns#">
 <metadata id="metadata26">
  <rdf:RDF>
   <cc:Work rdf:about="">
    <dc:format>image/svg+xml</dc:format>
    <dc:type rdf:resource="http://purl.org/dc/dcmitype/StillImage"/>
    <dc:title/>
   </cc:Work>
  </rdf:RDF>
 </metadata>
 <g id="g4506" transform="matrix(.00016935 1.2625 -1.2625 .00016935 583.87 -61.732)">
  <g id="g4584" transform="matrix(.00072577 -5.4103 5.4103 .00072577 78.487 431.66)" fill="#fca311">
   <path id="path4508" d="m9.998 64.005h44.004c3.859 0 7-3.141 7-7v-50.01c0-3.86-3.141-7-7-7h-44.004c-3.859 0-7 3.14-7 7v50.01c0 3.859 3.141 7 7 7zm44.004-2h-44.004c-2.42 0-4.441-1.729-4.9-4.017 1.264 1.242 2.993 2.011 4.9 2.011h44.004c1.907 0 3.637-0.769 4.9-2.011-0.459 2.287-2.48 4.017-4.9 4.017zm-49.004-55.01c0-2.757 2.243-5 5-5h44.004c2.757 0 5 2.243 5 5v46.004c0 2.757-2.243 5-5 5h-44.004c-2.757 0-5-2.243-5-5v-41.998z"/>
   <path id="path4510" d="m19.018 17c0.552 0 1-0.448 1-1s-0.448-1-1-1h-0.011c-0.552 0-0.994 0.448-0.994 1s0.452 1 1.005 1z"/>
   <path id="path4512" d="m15.014 21.004c0.552 0 1-0.448 1-1s-0.448-1-1-1h-0.011c-0.552 0-0.994 0.448-0.994 1s0.452 1 1.005 1z"/>
   <path id="path4514" d="m23.021 21.004c0.552 0 1-0.448 1-1s-0.448-1-1-1h-0.011c-0.552 0-0.994 0.448-0.994 1s0.453 1 1.005 1z"/>
   <path id="path4516" d="m23.021 12.996c0.552 0 1-0.448 1-1s-0.448-1-1-1h-0.011c-0.552 0-0.994 0.448-0.994 1s0.453 1 1.005 1z"/>
   <path id="path4518" d="m15.014 12.996c0.552 0 1-0.448 1-1s-0.448-1-1-1h-0.011c-0.552 0-0.994 0.448-0.994 1s0.452 1 1.005 1z"/>
   <path id="path4520" d="m18.987 56c6.617 0 12-5.383 12-12v-3c0-4.918-2.976-9.148-7.219-11 4.243-1.852 7.219-6.083 7.219-11.001v-2.999c0-6.617-5.383-12-12-12s-12 5.383-12 12v2.999c0 4.917 2.976 9.149 7.219 11.001-4.243 1.852-7.219 6.082-7.219 11v3c0 6.617 5.383 12 12 12zm0-2c-3.35 0-6.313-1.662-8.129-4.198 2.14 1.978 4.992 3.198 8.129 3.198s5.989-1.22 8.129-3.198c-1.815 2.536-4.779 4.198-8.129 4.198zm0-48c5.514 0 10 4.486 10 10s-4.486 10-10 10-10-4.486-10-10 4.487-10 10-10zm-8.129 18.802c2.141 1.978 4.992 3.198 8.129 3.198s5.988-1.22 8.129-3.198c-1.815 2.536-4.779 4.198-8.129 4.198s-6.313-1.662-8.129-4.198zm8.129 6.198c5.514 0 10 4.486 10 10s-4.486 10-10 10-10-4.486-10-10 4.487-10 10-10z"/>
   <path id="path4522" d="m19.018 42c0.552 0 1-0.447 1-1s-0.448-1-1-1h-0.011c-0.552 0-0.994 0.447-0.994 1s0.452 1 1.005 1z"/>
   <path id="path4524" d="m15.014 46.004c0.552 0 1-0.447 1-1s-0.448-1-1-1h-0.011c-0.552 0-0.994 0.447-0.994 1s0.452 1 1.005 1z"/>
   <path id="path4526" d="m23.021 46.004c0.552 0 1-0.447 1-1s-0.448-1-1-1h-0.011c-0.552 0-0.994 0.447-0.994 1s0.453 1 1.005 1z"/>
   <path id="path4528" d="m23.021 37.997c0.552 0 1-0.447 1-1s-0.448-1-1-1h-0.011c-0.552 0-0.994 0.447-0.994 1s0.453 1 1.005 1z"/>
   <path id="path4530" d="m15.014 37.997c0.552 0 1-0.447 1-1s-0.448-1-1-1h-0.011c-0.552 0-0.994 0.447-0.994 1s0.452 1 1.005 1z"/>
   <path id="path4532" d="m45.029 17c0.552 0 1-0.448 1-1s-0.448-1-1-1h-0.011c-0.552 0-0.994 0.448-0.994 1s0.453 1 1.005 1z"/>
   <path id="path4534" d="m41.025 21.004c0.552 0 1-0.448 1-1s-0.448-1-1-1h-0.011c-0.552 0-0.994 0.448-0.994 1s0.453 1 1.005 1z"/>
   <path id="path4536" d="m49.033 21.004c0.552 0 1-0.448 1-1s-0.448-1-1-1h-0.011c-0.552 0-0.994 0.448-0.994 1s0.452 1 1.005 1z"/>
   <path id="path4538" d="m49.033 12.996c0.552 0 1-0.448 1-1s-0.448-1-1-1h-0.011c-0.552 0-0.994 0.448-0.994 1s0.452 1 1.005 1z"/>
   <path id="path4540" d="m41.025 12.996c0.552 0 1-0.448 1-1s-0.448-1-1-1h-0.011c-0.552 0-0.994 0.448-0.994 1s0.453 1 1.005 1z"/>
   <path id="path4542" d="m44.999 56c6.617 0 12-5.383 12-12v-3c0-4.918-2.976-9.148-7.219-11 4.243-1.852 7.219-6.083 7.219-11.001v-2.999c0-6.617-5.383-12-12-12s-12 5.383-12 12v2.999c0 4.917 2.976 9.149 7.219 11.001-4.243 1.852-7.219 6.082-7.219 11v3c0 6.617 5.383 12 12 12zm0-2c-3.35 0-6.313-1.662-8.129-4.198 2.14 1.978 4.991 3.198 8.129 3.198s5.989-1.22 8.129-3.198c-1.815 2.536-4.779 4.198-8.129 4.198zm0-48c5.514 0 10 4.486 10 10s-4.486 10-10 10-10-4.486-10-10 4.486-10 10-10zm-8.129 18.802c2.141 1.978 4.991 3.198 8.129 3.198s5.988-1.22 8.129-3.198c-1.815 2.536-4.779 4.198-8.129 4.198s-6.313-1.662-8.129-4.198zm8.129 6.198c5.514 0 10 4.486 10 10s-4.486 10-10 10-10-4.486-10-10 4.486-10 10-10z"/>
   <path id="path4544" d="m45.029 42c0.552 0 1-0.447 1-1s-0.448-1-1-1h-0.011c-0.552 0-0.994 0.447-0.994 1s0.453 1 1.005 1z"/>
   <path id="path4546" d="m41.025 46.004c0.552 0 1-0.447 1-1s-0.448-1-1-1h-0.011c-0.552 0-0.994 0.447-0.994 1s0.453 1 1.005 1z"/>
   <path id="path4548" d="m49.033 46.004c0.552 0 1-0.447 1-1s-0.448-1-1-1h-0.011c-0.552 0-0.994 0.447-0.994 1s0.452 1 1.005 1z"/>
   <path id="path4550" d="m49.033 37.997c0.552 0 1-0.447 1-1s-0.448-1-1-1h-0.011c-0.552 0-0.994 0.447-0.994 1s0.452 1 1.005 1z"/>
   <path id="path4552" d="m41.025 37.997c0.552 0 1-0.447 1-1s-0.448-1-1-1h-0.011c-0.552 0-0.994 0.447-0.994 1s0.453 1 1.005 1z"/>
  </g>
 </g>
</svg>
