<?xml version="1.0" encoding="UTF-8"?>
<svg id="Layer_1" width="512" height="512" enable-background="new 0 0 256 256" version="1.1" viewBox="0 0 256 256" xmlns="http://www.w3.org/2000/svg" xmlns:cc="http://creativecommons.org/ns#" xmlns:dc="http://purl.org/dc/elements/1.1/" xmlns:rdf="http://www.w3.org/1999/02/22-rdf-syntax-ns#">
 <metadata id="metadata37">
  <rdf:RDF>
   <cc:Work rdf:about="">
    <dc:format>image/svg+xml</dc:format>
    <dc:type rdf:resource="http://purl.org/dc/dcmitype/StillImage"/>
    <dc:title/>
   </cc:Work>
  </rdf:RDF>
 </metadata>
 <g id="g4521" transform="matrix(1.2822 0 0 1.2822 -33.168 -54.88)">
  <path id="path20" d="m123.12 236.13c-32.563 0-58.641-15.662-74.965-43.608l-1.983 5.651c-1.278 3.644-5.284 5.569-8.931 4.292-3.646-1.281-5.57-5.287-4.291-8.931l7.709-21.965c0.621-1.766 1.891-3.185 3.577-3.996 1.686-0.809 3.588-0.916 5.354-0.295l21.965 7.709c2.803 0.984 4.687 3.64 4.687 6.61 0 0.792-0.133 1.572-0.396 2.321-0.619 1.765-1.89 3.184-3.576 3.995-1.687 0.81-3.589 0.915-5.354 0.295l-6.349-2.229c12.664 21.311 34.644 35.189 59.542 37.387 0.825 0.073 1.435 0.801 1.362 1.626-0.073 0.826-0.8 1.437-1.626 1.362-27.228-2.404-51.099-18.256-63.855-42.405-0.288-0.546-0.213-1.212 0.19-1.68 0.402-0.467 1.051-0.642 1.633-0.436l10.096 3.544c1.01 0.356 2.097 0.294 3.062-0.169 0.964-0.463 1.691-1.275 2.045-2.285 0.151-0.429 0.227-0.875 0.227-1.327 0-1.698-1.077-3.216-2.68-3.779l-21.965-7.709c-1.009-0.355-2.097-0.294-3.062 0.168-0.964 0.463-1.69 1.275-2.045 2.285l-7.708 21.965c-0.732 2.084 0.369 4.375 2.453 5.107 2.085 0.73 4.376-0.37 5.106-2.454l3.084-8.786c0.197-0.561 0.707-0.953 1.3-0.999 0.589-0.038 1.157 0.263 1.438 0.787 15.385 28.687 40.282 44.985 72.858 44.985 2.4923 0.35354 2.3017 1.9186 1.098 2.9641z" fill="#fca311" stroke="#fca31f" stroke-opacity=".94118" stroke-width="3.8995"/>
  <path id="path22" d="m193.46 114.63h-2.701c-1.583-6.921-4.343-13.394-8.06-19.196l1.987-1.987c2.29-2.29 2.29-6.003 0-8.293l-10.558-10.558c-2.29-2.29-6.003-2.29-8.293 0l-2.062 2.062c-5.79-3.647-12.235-6.347-19.121-7.882v-2.954c0-3.238-2.625-5.864-5.864-5.864h-14.931c-3.239 0-5.864 2.626-5.864 5.864v2.954c-3.649 0.983-13.331 4.235-19.121 7.882l-2.062-2.062c-2.29-2.29-6.003-2.29-8.293 0l-10.558 10.558c-2.29 2.29-2.29 6.003 0 8.293l1.988 1.987c-3.717 5.802-6.477 12.274-8.06 19.196h-2.701c-3.239 0-5.864 2.625-5.864 5.864v14.931c0 3.239 2.625 5.864 5.864 5.864h2.561c1.523 7.007 4.249 13.564 7.953 19.443l-1.739 1.739c-2.29 2.29-2.29 6.003 0 8.293l10.558 10.558c2.29 2.29 6.003 2.29 8.293 0l1.664-1.665c5.891 3.774 12.476 6.56 19.518 8.131v2.308c0 3.238 2.625 5.864 5.864 5.864h14.931c3.238 0 5.864-2.625 5.864-5.864v-2.308c7.043-1.571 13.627-4.356 19.518-8.131l1.665 1.665c2.29 2.29 6.003 2.29 8.293 0l10.558-10.558c2.29-2.29 2.29-6.003 0-8.293l-1.739-1.739c3.704-5.88 6.43-12.437 7.953-19.443h2.561c3.238 0 5.864-2.625 5.864-5.864v-14.931c-2e-3 -3.239-2.628-5.864-5.866-5.864zm-62.138 43.816c-16.837 0-30.486-13.649-30.486-30.486s13.649-30.486 30.486-30.486 30.486 13.649 30.486 30.486-13.649 30.486-30.486 30.486z" fill="none"/>
  <path id="path24" d="m156.81 188.14h-14.931c-4.061 0-7.364-3.303-7.364-7.364v-1.118c-6.297-1.532-12.275-4.022-17.803-7.415l-0.819 0.819c-2.871 2.871-7.543 2.871-10.414 0l-10.559-10.557c-2.872-2.871-2.872-7.543 0-10.414l0.9-0.901c-3.329-5.514-5.763-11.465-7.25-17.721h-1.364c-4.06 0-7.364-3.304-7.364-7.364v-14.931c0-4.061 3.303-7.364 7.364-7.364h1.518c1.538-6.177 4.002-12.046 7.338-17.48l-1.142-1.143c-2.872-2.872-2.872-7.544 0-10.415l10.558-10.558c2.871-2.871 7.543-2.871 10.414 0l1.231 1.231c5.393-3.132 13.282-5.913 17.391-7.125v-1.82c0-4.06 3.304-7.364 7.364-7.364h14.931c4.061 0 7.364 3.304 7.364 7.364v1.763c6.137 1.494 11.979 3.902 17.399 7.173l1.224-1.223c2.871-2.871 7.543-2.871 10.414 0l10.558 10.558c2.872 2.871 2.872 7.543 0 10.414l-1.143 1.143c3.336 5.434 5.8 11.303 7.338 17.48h1.518c4.061 0 7.364 3.303 7.364 7.364v14.931c0 4.061-3.304 7.364-7.364 7.364h-1.364c-1.487 6.256-3.921 12.207-7.25 17.721l0.9 0.901c1.391 1.391 2.157 3.24 2.157 5.207s-0.766 3.816-2.157 5.207l-10.558 10.558c-1.391 1.391-3.24 2.157-5.207 2.157s-3.816-0.766-5.207-2.157l-0.819-0.819c-5.527 3.393-11.505 5.883-17.803 7.415v1.118c0 4.062-3.303 7.365-7.363 7.365zm-40.313-19.302c0.279 0 0.56 0.078 0.809 0.237 5.853 3.75 12.257 6.417 19.036 7.93 0.686 0.153 1.173 0.761 1.173 1.464v2.309c0 2.406 1.958 4.364 4.364 4.364h14.931c2.406 0 4.364-1.958 4.364-4.364v-2.309c0-0.703 0.488-1.311 1.173-1.464 6.779-1.512 13.184-4.18 19.036-7.93 0.593-0.38 1.371-0.296 1.87 0.203l1.665 1.665c1.702 1.701 4.47 1.701 6.172 0l10.558-10.558c1.701-1.702 1.701-4.47 0-6.172l-1.739-1.739c-0.496-0.495-0.582-1.268-0.208-1.86 3.682-5.845 6.292-12.225 7.756-18.962 0.15-0.69 0.76-1.182 1.466-1.182h2.561c2.406 0 4.364-1.958 4.364-4.364v-14.931c0-2.406-1.958-4.364-4.364-4.364h-2.701c-0.7 0-1.306-0.483-1.462-1.166-1.523-6.659-4.169-12.958-7.861-18.721-0.38-0.593-0.296-1.372 0.203-1.87l1.988-1.987c1.701-1.702 1.701-4.47 0-6.172l-10.558-10.558c-1.702-1.701-4.47-1.701-6.172 0l-2.062 2.062c-0.495 0.496-1.268 0.582-1.86 0.208-5.754-3.624-12.028-6.211-18.648-7.688-0.686-0.153-1.173-0.761-1.173-1.464v-2.954c0-2.406-1.958-4.364-4.364-4.364h-14.931c-2.406 0-4.364 1.958-4.364 4.364v2.954c0 0.678-0.455 1.272-1.11 1.448-3.694 0.995-13.129 4.188-18.711 7.703-0.593 0.374-1.364 0.287-1.86-0.208l-2.062-2.062c-1.702-1.701-4.47-1.701-6.172 0l-10.563 10.558c-1.702 1.702-1.702 4.47 0 6.172l1.988 1.987c0.499 0.499 0.583 1.277 0.203 1.87-3.693 5.763-6.338 12.062-7.861 18.721-0.156 0.682-0.763 1.166-1.462 1.166h-2.702c-2.406 0-4.364 1.958-4.364 4.364v14.931c0 2.406 1.957 4.364 4.364 4.364h2.561c0.705 0 1.316 0.492 1.466 1.182 1.464 6.737 4.074 13.117 7.756 18.962 0.374 0.592 0.287 1.365-0.208 1.86l-1.739 1.739c-1.702 1.702-1.702 4.47 0 6.172l10.558 10.558c1.702 1.701 4.47 1.701 6.172 0l1.664-1.665c0.288-0.289 0.672-0.439 1.06-0.439zm32.847-18.213c-17.637 0-31.986-14.349-31.986-31.986s14.349-31.986 31.986-31.986 31.986 14.349 31.986 31.986-14.349 31.986-31.986 31.986zm0-60.972c-15.983 0-28.986 13.003-28.986 28.986s13.003 28.986 28.986 28.986 28.986-13.003 28.986-28.986-13.003-28.986-28.986-28.986z" fill="#fca311" stroke="#fca31f" stroke-opacity=".94118" stroke-width="5.8493"/>
 </g>
</svg>
