<?xml version="1.0" encoding="UTF-8"?>
<!-- Generator: Adobe Illustrator 19.0.0, SVG Export Plug-In . SVG Version: 6.00 Build 0)  -->
<svg id="Capa_1" enable-background="new 0 0 512 512" version="1.1" viewBox="0 0 512 512" xml:space="preserve" xmlns="http://www.w3.org/2000/svg" xmlns:cc="http://creativecommons.org/ns#" xmlns:dc="http://purl.org/dc/elements/1.1/" xmlns:rdf="http://www.w3.org/1999/02/22-rdf-syntax-ns#"><metadata id="metadata77"><rdf:RDF><cc:Work rdf:about=""><dc:format>image/svg+xml</dc:format><dc:type rdf:resource="http://purl.org/dc/dcmitype/StillImage"/><dc:title/></cc:Work></rdf:RDF></metadata><g id="g40" transform="matrix(.84879 0 0 .84879 38.712 48.713)"><g id="g38"><g id="g36" fill="#fca311"><path id="path2" d="m442.52 315.73c-3.868-15.032-17.4-25.555-32.922-25.6v-221.87c-0.043-37.685-30.582-68.224-68.267-68.267h-170.67c-37.685 0.043-68.224 30.582-68.267 68.267v221.87c-15.522 0.045-29.054 10.568-32.922 25.6v68.266c3.868 15.032 17.4 25.555 32.922 25.6v34.133c0.043 37.685 30.582 68.224 68.267 68.267h170.67c37.685-0.043 68.224-30.582 68.267-68.267v-34.133c15.522-0.045 29.054-10.568 32.922-25.6l-1e-3 -68.267zm-323.06-59.733v-8.533c3e-3 -4.711 3.822-8.53 8.533-8.533h25.6c4.713 0 8.533-3.82 8.533-8.533s-3.821-8.533-8.533-8.533h-25.6c-4.711-3e-3 -8.53-3.822-8.533-8.533v-76.8c3e-3 -4.711 3.822-8.53 8.533-8.533h25.6c4.713 0 8.533-3.82 8.533-8.533s-3.821-8.533-8.533-8.533h-25.6c-4.711-3e-3 -8.53-3.822-8.533-8.533v-34.136c0.031-28.264 22.936-51.169 51.2-51.2h170.67c28.264 0.031 51.169 22.936 51.2 51.2v68.267c-3e-3 4.712-3.822 8.53-8.533 8.533h-25.6c-4.713 0-8.533 3.821-8.533 8.533 0 4.713 3.82 8.533 8.533 8.533h25.599c4.711 3e-3 8.53 3.822 8.533 8.533v76.8c-3e-3 4.711-3.822 8.53-8.533 8.533h-25.6c-4.713 0-8.533 3.82-8.533 8.533s3.82 8.533 8.533 8.533h25.6c4.711 3e-3 8.53 3.822 8.533 8.533v8.533h-273.07zm273.07 187.73c-0.031 28.264-22.936 51.169-51.2 51.2h-170.67c-28.264-0.031-51.169-22.936-51.2-51.2v-34.133h273.07zm34.134-68.266c-0.012 9.421-7.646 17.054-17.067 17.067h-307.2c-9.421-0.012-17.054-7.646-17.067-17.067v-51.2c0.012-9.421 7.646-17.054 17.067-17.067h307.2c9.421 0.012 17.054 7.646 17.067 17.067z"/><path id="path4" d="m125.52 326.74c-0.425-0.341-0.858-0.683-1.283-1.025-0.474-0.324-0.99-0.582-1.533-0.767-0.484-0.245-1-0.419-1.533-0.517-2.812-0.571-5.723 0.294-7.767 2.308-1.561 1.634-2.445 3.799-2.475 6.059-0.023 2.27 0.869 4.454 2.475 6.059 0.83 0.754 1.782 1.36 2.817 1.791 3.175 1.362 6.859 0.653 9.302-1.79s3.152-6.127 1.79-9.301c-0.413-1.045-1.021-2.002-1.793-2.817z"/><path id="path6" d="m159.66 326.74c-2.441-2.461-6.129-3.201-9.33-1.871-3.201 1.329-5.281 4.463-5.261 7.93-0.022 2.27 0.87 4.453 2.475 6.058s3.788 2.497 6.058 2.475c2.855 0.03 5.531-1.385 7.115-3.761s1.86-5.39 0.735-8.014c-0.412-1.045-1.02-2.002-1.792-2.817z"/><path id="path8" d="m193.79 326.74c-2.441-2.461-6.129-3.201-9.331-1.872s-5.281 4.464-5.261 7.93c-0.022 2.27 0.87 4.453 2.475 6.058s3.788 2.497 6.058 2.475c1.115-0.014 2.216-0.246 3.242-0.683 1.034-0.434 1.986-1.04 2.817-1.792 2.444-2.441 3.154-6.125 1.792-9.3-0.412-1.044-1.02-2-1.792-2.816z"/><path id="path10" d="m227.92 326.74c-2.471-2.388-6.119-3.09-9.3-1.792-1.045 0.412-2.001 1.02-2.817 1.792-1.561 1.634-2.445 3.799-2.475 6.058-0.022 2.27 0.87 4.453 2.475 6.058s3.788 2.497 6.058 2.475c2.855 0.03 5.531-1.385 7.115-3.761s1.86-5.39 0.735-8.014c-0.411-1.044-1.019-2.001-1.791-2.816z"/><path id="path12" d="m262.06 326.74c-2.044-2.013-4.955-2.878-7.767-2.308-0.534 0.096-1.05 0.271-1.533 0.517-0.546 0.184-1.065 0.442-1.542 0.767l-1.275 1.025c-0.772 0.816-1.38 1.772-1.792 2.817-0.48 1.012-0.714 2.123-0.683 3.242-0.022 2.27 0.87 4.453 2.475 6.058s3.788 2.497 6.058 2.475c2.855 0.03 5.531-1.385 7.115-3.761s1.86-5.39 0.735-8.014c-0.411-1.046-1.019-2.003-1.791-2.818z"/><path id="path14" d="m293.43 324.86c-2.099-0.872-4.464-0.841-6.539 0.086-0.546 0.184-1.065 0.442-1.542 0.767l-1.275 1.024c-0.772 0.816-1.38 1.772-1.792 2.817-0.911 2.065-0.911 4.418 0 6.483 0.434 1.034 1.039 1.986 1.792 2.817 2.866 2.925 7.408 3.395 10.811 1.119 3.404-2.276 4.705-6.653 3.097-10.419-0.806-2.124-2.453-3.822-4.552-4.694z"/><path id="path16" d="m330.32 326.74c-2.038-2.024-4.955-2.891-7.767-2.308-0.534 0.096-1.05 0.271-1.533 0.517-0.546 0.184-1.065 0.442-1.542 0.767l-1.275 1.024c-0.772 0.816-1.38 1.772-1.792 2.817-0.911 2.065-0.911 4.418 0 6.483 0.434 1.034 1.04 1.986 1.792 2.817 2.866 2.925 7.408 3.395 10.811 1.119 3.404-2.276 4.705-6.653 3.097-10.419-0.41-1.045-1.019-2.001-1.791-2.817z"/><path id="path18" d="m364.46 326.74c-2.451-2.425-6.123-3.133-9.3-1.792-1.055 0.391-2.015 1.002-2.817 1.792-0.772 0.816-1.38 1.772-1.792 2.817-0.48 1.012-0.714 2.122-0.683 3.242-0.022 2.27 0.87 4.453 2.475 6.058s3.789 2.497 6.058 2.475c2.855 0.03 5.531-1.385 7.115-3.761s1.86-5.39 0.735-8.014c-0.411-1.045-1.019-2.002-1.791-2.817z"/><path id="path20" d="m398.59 326.74c-0.817-0.77-1.773-1.378-2.817-1.792-3.177-1.342-6.849-0.634-9.3 1.792-0.772 0.816-1.38 1.772-1.792 2.817-0.437 1.026-0.669 2.127-0.683 3.242-0.022 2.27 0.87 4.453 2.475 6.058s3.788 2.497 6.058 2.475c2.855 0.03 5.532-1.385 7.115-3.761s1.86-5.39 0.735-8.014c-0.41-1.045-1.019-2.002-1.791-2.817z"/><path id="path22" d="m279.04 62.208c-0.372-0.406-0.805-0.752-1.283-1.025-0.434-0.339-0.925-0.599-1.45-0.767-0.51-0.259-1.059-0.433-1.625-0.517-1.633-0.343-3.334-0.162-4.858 0.517-2.143 0.777-3.831 2.465-4.608 4.608-0.438 1.026-0.67 2.127-0.684 3.242-0.023 2.27 0.869 4.454 2.475 6.059 0.829 0.754 1.782 1.36 2.817 1.792 3.155 1.29 6.775 0.586 9.217-1.792 1.658-1.576 2.585-3.771 2.559-6.059-0.014-1.115-0.246-2.216-0.683-3.242-0.413-1.064-1.053-2.026-1.877-2.816z"/><path id="path24" d="m313.26 36.608c-3.421-3.158-8.695-3.158-12.117 0-0.772 0.816-1.38 1.772-1.792 2.817-1.362 3.175-0.653 6.859 1.79 9.302s6.127 3.152 9.302 1.79c1.034-0.433 1.986-1.039 2.817-1.791 0.752-0.831 1.358-1.783 1.792-2.817 0.911-2.065 0.911-4.418 0-6.483-0.412-1.046-1.02-2.002-1.792-2.818z"/><path id="path26" d="m301.14 99.925c2.866 2.925 7.408 3.395 10.811 1.119s4.705-6.653 3.097-10.419c-0.412-1.045-1.02-2.001-1.792-2.817-0.831-0.752-1.783-1.358-2.817-1.792-2.076-0.858-4.407-0.858-6.483 0-1.045 0.412-2.001 1.02-2.817 1.792-0.79 0.802-1.401 1.762-1.792 2.817-0.911 2.065-0.911 4.418 0 6.483 0.435 1.034 1.041 1.986 1.793 2.817z"/><path id="path28" d="m341.33 76.8c2.855 0.03 5.531-1.385 7.115-3.761s1.86-5.39 0.735-8.014c-0.431-1.035-1.037-1.987-1.791-2.817-0.419-0.387-0.877-0.731-1.367-1.025-0.434-0.339-0.925-0.599-1.45-0.767-0.51-0.259-1.059-0.433-1.625-0.517-2.783-0.544-5.655 0.32-7.676 2.308-0.772 0.816-1.38 1.772-1.792 2.817-0.437 1.026-0.669 2.127-0.683 3.242-0.022 2.27 0.87 4.453 2.475 6.058 1.606 1.606 3.789 2.498 6.059 2.476z"/><path id="path30" d="m347.39 113.41c-0.425-0.341-0.858-0.683-1.367-1.025-0.434-0.339-0.925-0.599-1.45-0.767-0.484-0.245-1-0.419-1.533-0.517-1.664-0.348-3.394-0.167-4.95 0.517-1.055 0.392-2.015 1.002-2.817 1.792-1.561 1.634-2.445 3.799-2.475 6.058-0.018 1.109 0.183 2.21 0.592 3.242 0.5 1.018 1.133 1.966 1.883 2.817 3.365 3.3 8.752 3.3 12.117 0 0.752-0.831 1.358-1.783 1.792-2.817 0.438-1.026 0.67-2.127 0.683-3.242-0.034-2.258-0.917-4.422-2.475-6.058z"/><path id="path32" d="m279.12 113.41c-0.831-0.752-1.783-1.358-2.817-1.792-2.059-0.942-4.425-0.942-6.483 0-1.045 0.412-2.001 1.02-2.817 1.792-0.754 0.829-1.36 1.782-1.792 2.817-0.438 1.026-0.67 2.127-0.683 3.242-0.022 2.27 0.87 4.453 2.475 6.058s3.788 2.497 6.058 2.475c1.115-0.014 2.216-0.246 3.242-0.683 1.034-0.434 1.986-1.04 2.817-1.792 2.444-2.441 3.154-6.125 1.792-9.3-0.432-1.035-1.038-1.988-1.792-2.817z"/><path id="path34" d="m310.44 137.22c-2.059-0.942-4.425-0.942-6.483 0-3.251 1.228-5.373 4.375-5.292 7.85-0.031 1.119 0.203 2.23 0.683 3.242 0.434 1.034 1.04 1.986 1.792 2.817 0.829 0.754 1.782 1.36 2.817 1.792 2.065 0.911 4.418 0.911 6.483 0 1.034-0.434 1.986-1.04 2.817-1.792 1.589-1.616 2.478-3.792 2.475-6.058-0.016-2.262-0.902-4.432-2.475-6.059-0.831-0.753-1.784-1.359-2.817-1.792z"/></g></g></g></svg>
