<svg width="75" height="76" viewBox="0 0 75 76" fill="none" xmlns="http://www.w3.org/2000/svg">
<path d="M71.5269 43.8598H71.3733V36.6015C71.3733 35.2672 70.2881 34.1821 68.9538 34.1821H66.5344V29.3433C66.5344 28.0089 65.4493 26.9238 64.115 26.9238H61.6955C60.3612 26.9238 59.2761 28.0089 59.2761 29.3433V34.1821H56.8567V31.7627C56.8567 30.4284 55.7716 29.3433 54.4372 29.3433H52.0178C50.6835 29.3433 49.5984 30.4284 49.5984 31.7627V34.1821H47.1789V26.9238C48.5133 26.9238 49.5984 25.8387 49.5984 24.5044V22.085C49.5984 20.7506 48.5133 19.6655 47.1789 19.6655H46.9866C46.0418 15.2755 42.7683 11.8169 38.5912 10.5334L40.5678 7.56836H49.5984C50.9327 7.56836 52.0178 6.48324 52.0178 5.14892V2.72949C52.0178 1.39517 50.9327 0.310059 49.5984 0.310059H36.854L30.2211 10.2576C25.5407 11.2423 21.7809 14.9077 20.7575 19.6655H20.5652C19.2309 19.6655 18.1457 20.7506 18.1457 22.085V24.5044C18.1457 25.8387 19.2309 26.9238 20.5652 26.9238V43.5647L17.5602 42.7735L13.0238 38.2371C13.2101 37.7181 13.3069 37.1653 13.3069 36.6015C13.3069 33.9329 11.1366 31.7627 8.46801 31.7627C6.17439 31.7627 4.24731 33.368 3.75254 35.5152C1.60529 36.01 0 37.9371 0 40.2307C0 42.8993 2.17023 45.0696 4.83887 45.0696C5.71712 45.0696 6.56029 44.8373 7.29701 44.3994L12.2689 49.3713L14.3363 54.7473H12.0972C10.7628 54.7473 9.67773 55.8324 9.67773 57.1667V64.425L11.9048 73.4785C12.1734 74.5588 13.1387 75.3125 14.2517 75.3125H41.3953C42.5082 75.3125 43.4736 74.5588 43.7421 73.4785L44.3373 71.0966L44.6264 73.2185C44.7897 74.4112 45.8192 75.3113 47.0241 75.3113H69.1063C70.3111 75.3113 71.3418 74.4112 71.5039 73.2185L74.9673 47.8084C74.9903 47.6511 75 47.4938 75 47.3342C75.0024 45.4192 73.4431 43.8598 71.5269 43.8598ZM68.9538 36.6015V43.8598H66.5344V36.6015H68.9538ZM64.115 29.3433V43.8598H61.6955V29.3433H64.115ZM59.2761 36.6015V43.8598H56.8567V36.6015H59.2761ZM54.4372 31.7627V43.8598H52.0178V31.7627H54.4372ZM49.5984 36.6015V43.8598H47.1789V36.6015H49.5984ZM38.1484 2.72949H49.5984V5.14892H39.2734L36.0157 10.035C35.6818 10.0071 35.3467 9.98779 35.0068 9.98779H33.3095L38.1484 2.72949ZM32.7386 12.4072H35.0068C39.4876 12.4072 43.3417 15.446 44.4909 19.6655H23.2544C24.4024 15.446 28.2566 12.4072 32.7386 12.4072ZM20.5652 22.085H47.1789L47.1814 24.5044H20.5652V22.085ZM22.9846 26.9238H44.7595V43.8598H44.6059C42.6897 43.8598 41.1304 45.4192 41.1304 47.3354C41.1304 47.495 41.1412 47.6523 41.1618 47.8047L42.109 54.7473H38.6287C36.0423 50.0681 31.6268 46.4753 26.1916 45.0442L22.9846 44.201V26.9238ZM20.1865 63.2153L14.6763 48.8886L17.4151 45.2365L25.5734 47.3837C32.9152 49.3169 38.146 55.7296 38.6601 63.2153H20.1865ZM41.0795 63.2153C40.9525 61.1044 40.494 59.072 39.7513 57.1667H42.4393L43.2643 63.2153H41.0795ZM6.54819 41.94C6.08971 42.3985 5.48243 42.6501 4.83887 42.6501C3.50455 42.6501 2.41943 41.565 2.41943 40.2307C2.41943 38.8964 3.50455 37.8113 4.83887 37.8113H6.04858V36.6015C6.04858 35.2672 7.1337 34.1821 8.46801 34.1821C9.80233 34.1821 10.8874 35.2672 10.8874 36.6015C10.8874 37.0504 10.7665 37.4822 10.5378 37.8476L10.0285 38.6641L15.3392 43.9736L13.1762 46.8575L7.40346 41.0848L6.54819 41.94ZM15.2666 57.1667L17.5929 63.2153H12.0972V57.1667H15.2666ZM41.3953 72.893H14.2505L12.4359 65.6347H43.2111L41.3953 72.893ZM72.5721 47.4781L69.1075 72.893H47.0253L43.5595 47.4733C43.5534 47.4273 43.5498 47.3813 43.5498 47.3354C43.5498 46.7535 44.024 46.2793 44.6059 46.2793H71.5269C72.1088 46.2793 72.583 46.7535 72.583 47.3354C72.583 47.3813 72.5794 47.4273 72.5721 47.4781Z" fill="#FF4F4F"/>
<path d="M58.0664 47.2629L55.1933 55.9572H46.291L53.4404 61.9924L50.5601 71.3121L58.0664 65.5793L65.5727 71.3121L62.6924 61.9924L69.8418 55.9572H60.9395L58.0664 47.2629ZM59.9088 61.1771L61.0266 64.7954L58.0664 62.5344L55.1062 64.7966L56.224 61.1783L52.9057 58.3766H56.9414L58.0664 54.9737L59.1914 58.3766H63.227L59.9088 61.1771Z" fill="#FF4F4F"/>
<path d="M27.8235 31.7627H39.9206V41.4404H42.3401V31.7627C42.3401 30.4284 41.255 29.3433 39.9206 29.3433H27.8235C26.4892 29.3433 25.4041 30.4284 25.4041 31.7627V41.4404H27.8235V31.7627Z" fill="#FF4F4F"/>
<path d="M33.8721 34.1821C31.8712 34.1821 30.2429 35.8104 30.2429 37.8113C30.2429 39.8121 31.8712 41.4404 33.8721 41.4404C35.8729 41.4404 37.5012 39.8121 37.5012 37.8113C37.5012 35.8104 35.8729 34.1821 33.8721 34.1821ZM33.8721 39.021C33.2043 39.021 32.6624 38.479 32.6624 37.8113C32.6624 37.1435 33.2043 36.6016 33.8721 36.6016C34.5398 36.6016 35.0818 37.1435 35.0818 37.8113C35.0818 38.479 34.5398 39.021 33.8721 39.021Z" fill="#FF4F4F"/>
</svg>
