<?xml version="1.0" encoding="UTF-8"?>
<!-- Generator: Adobe Illustrator 19.0.0, SVG Export Plug-In . SVG Version: 6.00 Build 0)  -->
<svg id="Capa_1" enable-background="new 0 0 512.002 512.002" version="1.1" viewBox="0 0 512.002 512.002" xml:space="preserve" xmlns="http://www.w3.org/2000/svg" xmlns:cc="http://creativecommons.org/ns#" xmlns:dc="http://purl.org/dc/elements/1.1/" xmlns:rdf="http://www.w3.org/1999/02/22-rdf-syntax-ns#"><metadata id="metadata55"><rdf:RDF><cc:Work rdf:about=""><dc:format>image/svg+xml</dc:format><dc:type rdf:resource="http://purl.org/dc/dcmitype/StillImage"/><dc:title/></cc:Work></rdf:RDF></metadata><g id="g4513" transform="translate(64.492 -239.31)" fill="#fca311"><g id="g4511" fill="#fca311"><g id="g4503"><g id="g4497"><path id="path4495" d="m164.79 475.91h-0.548c-5.522 0-10-4.478-10-10s4.478-10 10-10h0.548c5.522 0 10 4.478 10 10s-4.478 10-10 10z" fill="#fca311"/></g><g id="g4501"><path id="path4499" d="m131.35 439.24h-0.549c-5.522 0-10-4.478-10-10s4.478-10 10-10h0.549c5.522 0 10 4.478 10 10s-4.478 10-10 10z" fill="#fca311"/></g></g><g id="g4509"><path id="path4505" d="m364.57 521.37c3.543 0 6.821-1.875 8.618-4.929 2.712-4.607 6.317-11.719 6.317-20.234 0-11.845-6.832-21.535-12.859-30.085-3.712-5.266-7.219-10.239-8.377-14.569-1.249-4.669-0.701-10.937-0.12-17.571 0.895-10.24 1.91-21.848-3.814-31.734-5.805-10.024-16.458-14.96-25.857-19.315-5.972-2.767-11.612-5.38-14.924-8.688s-5.926-8.944-8.694-14.911c-4.358-9.393-9.299-20.039-19.33-25.839-9.888-5.717-21.501-4.704-31.745-3.809-6.643 0.578-12.917 1.128-17.595-0.122-4.337-1.158-9.314-4.662-14.585-8.372-8.554-6.021-18.25-12.847-30.097-12.847-11.848 0-21.543 6.825-30.098 12.847-5.27 3.71-10.248 7.214-14.585 8.372-4.679 1.249-10.952 0.7-17.594 0.122-10.244-0.896-21.856-1.907-31.745 3.809-10.031 5.799-14.971 16.445-19.33 25.837-2.769 5.967-5.384 11.603-8.695 14.912-3.313 3.31-8.953 5.923-14.925 8.689-9.398 4.355-20.052 9.291-25.856 19.315-5.724 9.886-4.709 21.492-3.813 31.732 0.58 6.636 1.128 12.903-0.121 17.573-1.158 4.33-4.665 9.304-8.376 14.569-6.027 8.55-12.859 18.24-12.859 30.085 0 8.519 3.605 15.629 6.317 20.236 1.798 3.053 5.075 4.927 8.618 4.927h59.186c-2.578 5.542-5.069 10.682-8.171 13.782-3.313 3.31-8.953 5.923-14.925 8.689-9.398 4.355-20.052 9.291-25.856 19.315-5.724 9.886-4.709 21.492-3.813 31.732 0.58 6.636 1.128 12.903-0.121 17.573-1.158 4.33-4.665 9.304-8.376 14.569-6.027 8.55-12.859 18.24-12.859 30.085 0 8.519 3.605 15.629 6.317 20.236 1.798 3.053 5.075 4.927 8.618 4.927h346.13c3.543 0 6.821-1.875 8.618-4.929 2.712-4.607 6.317-11.719 6.317-20.234 0-11.845-6.832-21.535-12.859-30.085-3.712-5.266-7.219-10.239-8.377-14.569-1.249-4.669-0.701-10.937-0.12-17.571 0.895-10.24 1.91-21.848-3.814-31.733-5.805-10.024-16.458-14.961-25.857-19.316-5.972-2.767-11.612-5.38-14.924-8.688-3.102-3.099-5.592-8.241-8.17-13.783zm-79.041-26.967c-9.888-5.717-21.501-4.705-31.745-3.809-6.643 0.579-12.917 1.127-17.595-0.122-4.337-1.158-9.314-4.662-14.585-8.372-8.554-6.021-18.25-12.847-30.097-12.847-11.848 0-21.543 6.825-30.098 12.847-5.27 3.71-10.248 7.214-14.585 8.372-4.679 1.249-10.952 0.7-17.594 0.122-10.244-0.896-21.856-1.908-31.745 3.809-3.255 1.881-5.973 4.273-8.309 6.967h-9.628c-0.078-1.721-0.117-3.443-0.117-5.163 0-61.748 50.277-111.98 112.08-111.98s112.08 50.235 112.08 111.98c0 1.719-0.039 3.441-0.118 5.163h-9.628c-2.336-2.694-5.054-5.085-8.308-6.967zm-262.02 1.804c0-5.504 4.472-11.847 9.205-18.562 4.559-6.466 9.271-13.151 11.351-20.925 2.16-8.071 1.431-16.415 0.725-24.483-0.699-7.998-1.359-15.552 1.198-19.969 2.638-4.556 9.593-7.778 16.956-11.189 7.292-3.379 14.832-6.872 20.653-12.689 5.822-5.818 9.319-13.354 12.701-20.641 3.413-7.356 6.638-14.306 11.197-16.941 4.427-2.558 11.99-1.897 19.996-1.199 8.072 0.704 16.42 1.432 24.494-0.724 7.777-2.077 14.467-6.786 20.937-11.34 6.722-4.731 13.071-9.201 18.585-9.201s11.862 4.47 18.585 9.201c6.47 4.554 13.159 9.263 20.936 11.34 8.074 2.158 16.421 1.429 24.495 0.724 8.007-0.698 15.57-1.358 19.995 1.199 4.56 2.637 7.784 9.586 11.198 16.943 3.382 7.286 6.878 14.821 12.7 20.64 5.822 5.816 13.361 9.31 20.653 12.688 7.363 3.411 14.318 6.634 16.956 11.189 2.559 4.418 1.897 11.973 1.198 19.971-0.705 8.067-1.435 16.41 0.725 24.481 2.079 7.773 6.793 14.459 11.351 20.925 4.734 6.715 9.206 13.058 9.206 18.562 0 1.554-0.356 3.247-1.1 5.163h-34.923c0.067-1.722 0.1-3.445 0.1-5.163 0-72.775-59.249-131.98-132.08-131.98s-132.08 59.207-132.08 131.98c0 1.719 0.033 3.442 0.1 5.163h-34.923c-0.742-1.916-1.099-3.61-1.099-5.163zm56.039 166.07c-0.078-1.721-0.117-3.443-0.117-5.163 0-3.685 0.179-7.328 0.529-10.923h48.439c5.522 0 10-4.478 10-10s-4.478-10-10-10h-44.622c13.463-46.757 56.663-81.061 107.73-81.061 61.799 0 112.08 50.235 112.08 111.98 0 1.719-0.039 3.441-0.118 5.163h-223.92zm240.52-100.29c7.363 3.412 14.319 6.635 16.957 11.191 2.559 4.418 1.897 11.972 1.198 19.97-0.705 8.067-1.435 16.41 0.725 24.481 2.079 7.773 6.793 14.459 11.351 20.925 4.734 6.715 9.206 13.058 9.206 18.562 0 1.554-0.356 3.247-1.1 5.163h-34.923c0.067-1.722 0.1-3.445 0.1-5.163 0-72.775-59.249-131.98-132.08-131.98-64.991 0-119.17 47.153-130.08 109.02-0.042 0.201-0.077 0.405-0.106 0.611-1.246 7.267-1.895 14.735-1.895 22.351 0 1.719 0.033 3.442 0.1 5.163h-34.923c-0.742-1.916-1.099-3.609-1.099-5.163 0-5.504 4.472-11.847 9.205-18.562 4.559-6.466 9.271-13.151 11.351-20.925 2.16-8.071 1.431-16.415 0.725-24.483-0.699-7.998-1.359-15.552 1.198-19.969 2.638-4.556 9.593-7.778 16.956-11.189 7.292-3.379 14.832-6.872 20.653-12.689 5.822-5.818 9.319-13.354 12.701-20.641 3.413-7.356 6.638-14.306 11.197-16.941 4.427-2.558 11.99-1.897 19.996-1.199 8.072 0.704 16.42 1.432 24.494-0.724 7.777-2.077 14.467-6.786 20.937-11.34 6.722-4.731 13.071-9.201 18.585-9.201s11.862 4.47 18.585 9.201c6.47 4.554 13.159 9.263 20.936 11.34 8.074 2.157 16.421 1.428 24.495 0.724 8.007-0.699 15.57-1.359 19.995 1.199 4.56 2.637 7.784 9.586 11.198 16.943 3.382 7.286 6.878 14.821 12.7 20.64 5.822 5.816 13.362 9.309 20.653 12.687z" fill="#fca311"/></g></g></g></svg>
