<?xml version="1.0" encoding="UTF-8"?>
<!-- Generator: Adobe Illustrator 19.0.0, SVG Export Plug-In . SVG Version: 6.00 Build 0)  -->
<svg id="Capa_1" enable-background="new 0 0 512 512" version="1.1" fill="#fca311" viewBox="0 0 512 512" xml:space="preserve" xmlns="http://www.w3.org/2000/svg" xmlns:cc="http://creativecommons.org/ns#" xmlns:dc="http://purl.org/dc/elements/1.1/" xmlns:rdf="http://www.w3.org/1999/02/22-rdf-syntax-ns#"><metadata id="metadata151"><rdf:RDF><cc:Work rdf:about=""><dc:format>image/svg+xml</dc:format><dc:type rdf:resource="http://purl.org/dc/dcmitype/StillImage"/><dc:title/></cc:Work></rdf:RDF></metadata><g id="g114" transform="matrix(.85111 0 0 .85111 38.116 38.116)"><g id="g112"><g id="g4737" transform="translate(-8.9306,9.8705)"><g id="g4764" transform="translate(-3.0273e-6 -1.3428e-6)"><g id="g4708" transform="matrix(1.2323 0 0 1.2323 -60.906 -58.7)"><g id="g6" transform="matrix(1.6821,0,0,1.6821,-100.6,-175.68)"><g id="g4"><circle id="circle2" cx="217" cy="251.5" r="7.5"/></g></g><g id="g12" transform="matrix(1.6821,0,0,1.6821,-100.6,-175.68)"><g id="g10"><circle id="circle8" cx="217" cy="226.13" r="7.5"/></g></g><g id="g18" transform="matrix(1.6821,0,0,1.6821,-100.6,-175.68)"><g id="g16"><circle id="circle14" cx="217" cy="201.09" r="7.5"/></g></g><g id="g24" transform="matrix(1.6821,0,0,1.6821,-100.6,-175.68)"><g id="g22"><circle id="circle20" cx="217" cy="301.91" r="7.5"/></g></g><g id="g30" transform="matrix(1.6821,0,0,1.6821,-100.6,-175.68)"><g id="g28"><circle id="circle26" cx="217" cy="276.87" r="7.5"/></g></g><g id="g36" transform="matrix(1.6821,0,0,1.6821,-100.6,-175.68)"><g id="g34"><circle id="circle32" cx="234.94" cy="233.56" r="7.5"/></g></g><g id="g42" transform="matrix(1.6821,0,0,1.6821,-100.6,-175.68)"><g id="g40"><circle id="circle38" cx="252.64" cy="215.86" r="7.5"/></g></g><g id="g48" transform="matrix(1.6821,0,0,1.6821,-100.6,-175.68)"><g id="g46"><circle id="circle44" cx="181.36" cy="287.14" r="7.5"/></g></g><g id="g54" transform="matrix(1.6821,0,0,1.6821,-100.6,-175.68)"><g id="g52"><circle id="circle50" cx="199.06" cy="269.44" r="7.5"/></g></g><g id="g60" transform="matrix(1.6821,0,0,1.6821,-100.6,-175.68)"><g id="g58"><circle id="circle56" cx="242.37" cy="251.5" r="7.5"/></g></g><g id="g66" transform="matrix(1.6821,0,0,1.6821,-100.6,-175.68)"><g id="g64"><circle id="circle62" cx="267.41" cy="251.5" r="7.5"/></g></g><g id="g72" transform="matrix(1.6821,0,0,1.6821,-100.6,-175.68)"><g id="g70"><circle id="circle68" cx="166.59" cy="251.5" r="7.5"/></g></g><g id="g78" transform="matrix(1.6821,0,0,1.6821,-100.6,-175.68)"><g id="g76"><circle id="circle74" cx="191.63" cy="251.5" r="7.5"/></g></g><g id="g84" transform="matrix(1.6821,0,0,1.6821,-100.6,-175.68)"><g id="g82"><circle id="circle80" cx="234.94" cy="269.44" r="7.5"/></g></g><g id="g90" transform="matrix(1.6821,0,0,1.6821,-100.6,-175.68)"><g id="g88"><circle id="circle86" cx="252.64" cy="287.14" r="7.5"/></g></g><g id="g96" transform="matrix(1.6821,0,0,1.6821,-100.6,-175.68)"><g id="g94"><circle id="circle92" cx="181.36" cy="215.86" r="7.5"/></g></g><g id="g102" transform="matrix(1.6821,0,0,1.6821,-100.6,-175.68)"><g id="g100"><circle id="circle98" cx="199.06" cy="233.56" r="7.5"/></g></g></g><circle id="path4640" cx="264.93" cy="246.13" r="210" fill="none" stroke="#fca311" stroke-linecap="square" stroke-width="20.602"/><circle id="path4640-7" cx="264.93" cy="246.13" r="178.73" fill="none" stroke="#fca311" stroke-linecap="square" stroke-width="17.534"/></g></g></g></g></svg>
