<?xml version="1.0" encoding="iso-8859-1"?>
<!-- Generator: Adobe Illustrator 19.0.0, SVG Export Plug-In . SVG Version: 6.00 Build 0)  -->
<svg version="1.1" id="Capa_1" xmlns="http://www.w3.org/2000/svg" xmlns:xlink="http://www.w3.org/1999/xlink" x="0px" y="0px"
	 viewBox="0 0 512 512" style="enable-background:new 0 0 512 512;" xml:space="preserve" fill="#fca311">
<g>
	<g>
		<path d="M348.986,148.14c-27.29-11.632-31.243-9.205-184.607-9.326c-55.423,0-101.679,38.639-113.976,89.804l-19.956-11.524
			C16.931,209.279,0,219.026,0,234.671v42.703c0,11.826,9.707,20.328,20.298,20.328c8.676,0,12.326-4.741,30.105-14.275
			c12.367,51.457,58.775,89.804,113.976,89.804h138.791c16.242,0,31.731-3.323,45.815-9.326C425.565,396.57,512,340.273,512,256.023
			C512,171.811,425.608,115.458,348.986,148.14z M47.723,267.587l-24.805,14.325c-3.469,2.008-7.86-0.481-7.86-4.537v-42.703
			c0-3.956,4.282-6.598,7.86-4.537l24.805,14.325C46.973,252.137,46.973,259.907,47.723,267.587z M164.379,358.174
			c-19.531,0-37.786-5.525-53.318-15.068h61.683c4.158,0,7.529-3.371,7.529-7.529s-3.371-7.529-7.529-7.529H92.019
			c-5.359-5.383-10.114-11.359-14.173-17.819h73.567c4.158,0,7.529-3.371,7.529-7.529c0-4.158-3.371-7.529-7.529-7.529H70.044
			c-7.147-17.167-9.605-36.158-6.513-55.378h68.421c4.158,0,7.529-3.371,7.529-7.529s-3.371-7.529-7.529-7.529H67.143
			c1.927-5.981,4.376-11.729,7.321-17.174h77.952c4.158,0,7.529-3.371,7.529-7.529s-3.371-7.529-7.529-7.529h-67.98
			c18.729-23.522,47.598-38.633,79.943-38.633h81.38c-4.965,2.802-9.705,5.954-14.189,9.424c-1.346-0.245,4.317-0.077-89.19-0.128
			c-4.158,0-7.529,3.371-7.529,7.529c0,4.158,3.371,7.529,7.529,7.529h73.209c-11.73,13.19-20.533,29.035-25.378,46.511h-28.141
			c-4.158,0-7.529,3.371-7.529,7.529c0,4.158,3.371,7.529,7.529,7.529h25.023c-0.906,6.512-1.226,12.656-1.097,18.739h-81.761
			c-4.158,0-7.529,3.371-7.529,7.529c0,4.158,3.371,7.529,7.529,7.529h83.046c3.068,20.321,11.372,38.947,23.49,54.458h-7.908
			c-4.158,0-7.529,3.371-7.529,7.529c0,4.158,3.371,7.529,7.529,7.529h21.95c6.388,5.754,13.411,10.814,20.949,15.068H164.379z
			 M201.02,256.023c0-67.616,64.959-116.792,129.988-98.286c-71.167,46.319-71.22,150.22,0,196.573
			C265.972,372.817,201.02,323.634,201.02,256.023z M348.976,347.302c-82.773-41.686-71.901-164.044,17.969-189.576
			c65.391-18.535,129.998,30.956,129.998,98.296C496.942,331.681,416.751,381.547,348.976,347.302z"/>
	</g>
</g>
<g>
	<g>
		<circle cx="219.801" cy="263.81" r="6.905"/>
	</g>
</g>
<g>
	<g>
		<circle cx="255.809" cy="193.029" r="8.784"/>
	</g>
</g>
<g>
	<g>
		<circle cx="230.211" cy="225.362" r="8.784"/>
	</g>
</g>
<g>
	<g>
		<circle cx="264.593" cy="272.593" r="8.784"/>
	</g>
</g>
<g>
	<g>
		<circle cx="299.647" cy="170.693" r="6.905"/>
	</g>
</g>
<g>
	<g>
		<circle cx="262.716" cy="232.269" r="6.905"/>
	</g>
</g>
<g>
	<g>
		<circle cx="239.376" cy="306.593" r="12.674"/>
	</g>
</g>
<g>
	<g>
		<circle cx="285.101" cy="334.36" r="10.255"/>
	</g>
</g>
<g>
	<g>
		<circle cx="349.478" cy="193.029" r="8.784"/>
	</g>
</g>
<g>
	<g>
		<circle cx="323.88" cy="225.362" r="8.784"/>
	</g>
</g>
<g>
	<g>
		<circle cx="358.261" cy="272.593" r="8.784"/>
	</g>
</g>
<g>
	<g>
		<circle cx="393.306" cy="170.693" r="6.905"/>
	</g>
</g>
<g>
	<g>
		<circle cx="356.374" cy="232.269" r="6.905"/>
	</g>
</g>
<g>
	<g>
		<circle cx="384" cy="216.579" r="6.905"/>
	</g>
</g>
<g>
	<g>
		<circle cx="414.025" cy="216.579" r="6.905"/>
	</g>
</g>
<g>
	<g>
		<circle cx="313.46" cy="263.81" r="6.905"/>
	</g>
</g>
<g>
	<g>
		<circle cx="333.035" cy="306.593" r="12.674"/>
	</g>
</g>
<g>
	<g>
		<circle cx="448.919" cy="322.273" r="8.784"/>
	</g>
</g>
<g>
	<g>
		<circle cx="474.517" cy="289.95" r="8.784"/>
	</g>
</g>
<g>
	<g>
		<circle cx="440.135" cy="242.709" r="8.784"/>
	</g>
</g>
<g>
	<g>
		<circle cx="407.118" cy="342.481" r="6.905"/>
	</g>
</g>
<g>
	<g>
		<circle cx="431.351" cy="287.008" r="6.905"/>
	</g>
</g>
<g>
	<g>
		<circle cx="370.187" cy="313.49" r="6.905"/>
	</g>
</g>
<g>
	<g>
		<circle cx="474.517" cy="256.02" r="6.905"/>
	</g>
</g>
<g>
	<g>
		<circle cx="394.791" cy="293.915" r="6.905"/>
	</g>
</g>
<g>
	<g>
		<circle cx="377.094" cy="342.481" r="6.905"/>
	</g>
</g>
<g>
	<g>
		<circle cx="465.361" cy="208.719" r="12.675"/>
	</g>
</g>
<g>
	<g>
		<circle cx="386.399" cy="258.399" r="12.675"/>
	</g>
</g>
<g>
	<g>
		<circle cx="429.886" cy="184.245" r="10.255"/>
	</g>
</g>
<g>
</g>
<g>
</g>
<g>
</g>
<g>
</g>
<g>
</g>
<g>
</g>
<g>
</g>
<g>
</g>
<g>
</g>
<g>
</g>
<g>
</g>
<g>
</g>
<g>
</g>
<g>
</g>
<g>
</g>
</svg>
