<?xml version="1.0" encoding="UTF-8"?>
<svg id="Layer_1" width="512" height="512" enable-background="new 0 0 512 512" version="1.1" viewBox="0 0 512 512" xmlns="http://www.w3.org/2000/svg" xmlns:cc="http://creativecommons.org/ns#" xmlns:dc="http://purl.org/dc/elements/1.1/" xmlns:rdf="http://www.w3.org/1999/02/22-rdf-syntax-ns#" fill="#fca311">
 <metadata id="metadata21">
  <rdf:RDF>
   <cc:Work rdf:about="">
    <dc:format>image/svg+xml</dc:format>
    <dc:type rdf:resource="http://purl.org/dc/dcmitype/StillImage"/>
    <dc:title/>
   </cc:Work>
  </rdf:RDF>
 </metadata>
 <g id="g14">
  <path id="path2" d="m14.99 449.08 1e-3 -34.794h10.676c4.14 0 7.495-3.356 7.495-7.495s-3.356-7.495-7.495-7.495h-18.172c-4.14 0-7.495 3.356-7.495 7.495v97.549c0 4.139 3.356 7.495 7.495 7.495h497.01c4.14 0 7.495-3.356 7.495-7.495v-213.49c1e-3 -21.188-17.237-38.426-38.425-38.426h-73.184v-43.761c0-11.473-9.334-20.807-20.807-20.807h-44.302v-17.841c0-12.399-10.087-22.486-22.486-22.486h-17.595l14.724-47.535c16.759 0.692 30.539-12.75 30.539-29.284 0-16.164-13.151-29.315-29.315-29.315-29.268 0-40.455 38.51-15.541 54.154l-16.101 51.979h-30.133c-10.576 0-19.831 7.514-22.006 17.866-0.106 0.507-0.16 1.024-0.16 1.542v20.919h-38.146v-18.801c0-8.673-7.057-15.73-15.73-15.73h-1.379v-19.572c9.469-0.203 17.113-7.953 17.113-17.47v-15.616c0-9.517-7.644-17.267-17.113-17.47v-43.699c0-21.695-17.65-39.346-39.346-39.346h-51.677c-4.14 0-7.495 3.356-7.495 7.495s3.356 7.495 7.495 7.495h51.678c13.429 0 24.355 10.926 24.355 24.355v43.682h-37.957v-22.584c0-4.14-3.356-7.495-7.495-7.495h-96.2v-37.957h35.638c4.14 0 7.495-3.356 7.495-7.495s-3.355-7.495-7.495-7.495h-43.133c-4.14 0-7.495 3.356-7.495 7.495v52.947c0 4.14 3.356 7.495 7.495 7.495h96.2v15.109c-9.468 0.203-17.112 7.954-17.112 17.47v15.616c0 9.516 7.644 17.267 17.112 17.47v19.572h-1.379c-8.673 0-15.73 7.057-15.73 15.73v18.801h-22.555c-11.473 0-20.807 9.334-20.807 20.807v2.489l-33.402 7.589c-3.413 0.775-5.835 3.809-5.835 7.309v107.24c0 3.499 2.421 6.533 5.833 7.308l33.404 7.598v2.487c0 11.473 9.334 20.807 20.807 20.807h6.424v27.799h-15.127c-4.14 0-7.495 3.356-7.495 7.495 0 4.14 3.356 7.495 7.495 7.495h333.85c1.378 0 2.498 1.121 2.498 2.498v32.16m-80.846-392.55c7.898 0 14.325 6.426 14.325 14.324s-6.426 14.325-14.325 14.325c-7.898 0-14.324-6.426-14.324-14.325s6.426-14.324 14.324-14.324zm-267.6 276.44-24.247-5.515v-95.277l24.247-5.509zm198.65-164.97c0.947-3.125 3.867-5.333 7.176-5.333h63.42c4.133 0 7.495 3.362 7.495 7.495v17.841h-78.091zm-140.3-51.569v-15.616c0-1.378 1.121-2.498 2.498-2.498h67.185c1.378 0 2.498 1.121 2.498 2.498v15.616c0 1.378-1.121 2.498-2.498 2.498h-67.185c-1.377 1e-3 -2.498-1.12-2.498-2.498zm55.069 17.489v19.553h-37.957v-19.553zm-55.066 35.283c0-0.407 0.332-0.739 0.739-0.739h70.696c0.407 0 0.739 0.332 0.739 0.739v18.801h-72.175v-18.801zm-3e-3 33.791h240.15v153.66h-240.15zm-37.542 153.66c-3.207 0-5.816-2.609-5.816-5.816v-142.02c0-3.207 2.609-5.816 5.816-5.816h22.551v153.66c-5.211-1e-3 -17.488-1e-3 -22.551-1e-3zm299.37 42.79h-277.96v-27.799h277.96v27.799zm7.495-42.794c-0.029 0-0.058 4e-3 -0.087 4e-3h-14.099v-153.66h22.551c3.207 0 5.816 2.609 5.816 5.816v142.02c0 3.207-2.609 5.816-5.816 5.816h-8.278c-0.029 0-0.058-4e-3 -0.087-4e-3zm125.79 107.22c1e-3 10.556 1e-3 10.585 1e-3 33.121h-482.02v-33.121c128.31 0 188.47 0.19219 392.42 0.19219h69.928m4.007-14.972h-20.798l-0.0678-37.696c-7e-3 -4.139-3.356-7.495-7.495-7.495s-7.495 3.356-7.495 7.495v37.696h-38.506v-32.159c0-9.643-7.846-17.489-17.489-17.489h-10.783v-27.799c13.342 0 21.676-10.049 21.676-20.807v-31.755h45.102v62.331c0 4.139 3.356 7.495 7.495 7.495s7.495-3.356 7.495-7.495v-69.826c0-4.139-3.356-7.495-7.495-7.495h-52.597v-36.527h73.184c12.923 0 23.436 10.513 23.436 23.435l-1.017 158.09z"/>
  <path id="path4" d="m211.02 227.15h-79.726c-4.14 0-7.495 3.356-7.495 7.495v90.07c0 4.14 3.356 7.495 7.495 7.495h79.726c4.14 0 7.495-3.356 7.495-7.495v-90.07c1e-3 -4.139-3.355-7.495-7.495-7.495zm-7.495 90.07h-64.735v-75.079h64.735z"/>
  <path id="path6" d="m312.635 240.97h-64.505c-4.139 0-7.495 3.356-7.495 7.495 0 4.14 3.356 7.495 7.495 7.495h64.505c4.139 0 7.495-3.356 7.495-7.495.001-4.139-3.355-7.495-7.495-7.495z"/>
  <path id="path8" d="m312.64 272.19h-64.505c-4.139 0-7.495 3.356-7.495 7.495s3.356 7.495 7.495 7.495h64.505c4.139 0 7.495-3.356 7.495-7.495s-3.355-7.495-7.495-7.495z"/>
  <path id="path10" d="m312.64 303.41h-64.505c-4.139 0-7.495 3.356-7.495 7.495s3.356 7.495 7.495 7.495h64.505c4.139 0 7.495-3.356 7.495-7.495s-3.355-7.495-7.495-7.495z"/>
 </g>
</svg>
