<?xml version="1.0" encoding="UTF-8"?>
<svg id="Layer_3" width="512" height="512" enable-background="new 0 0 64 64" version="1.1" viewBox="0 0 64 64" xmlns="http://www.w3.org/2000/svg" xmlns:cc="http://creativecommons.org/ns#" xmlns:dc="http://purl.org/dc/elements/1.1/" xmlns:rdf="http://www.w3.org/1999/02/22-rdf-syntax-ns#">
 <metadata id="metadata21">
  <rdf:RDF>
   <cc:Work rdf:about="">
    <dc:format>image/svg+xml</dc:format>
    <dc:type rdf:resource="http://purl.org/dc/dcmitype/StillImage"/>
    <dc:title/>
   </cc:Work>
  </rdf:RDF>
 </metadata>
 <g id="g14" transform="matrix(.85566 0 0 .85566 4.6188 4.6186)" fill="#fca311">
  <path id="path2" d="m14.082 6.989 1.847-4.618c0.148-0.371 0.061-0.795-0.222-1.078-0.282-0.283-0.707-0.369-1.079-0.222l-4.628 1.852-4.628-1.852c-0.372-0.147-0.796-0.061-1.079 0.222s-0.37 0.707-0.222 1.078l1.847 4.618c-2.914 1.491-4.918 4.518-4.918 8.011v34c0 3.493 2.004 6.52 4.918 8.011l-1.847 4.618c-0.148 0.371-0.061 0.795 0.222 1.078s0.707 0.369 1.079 0.222l4.628-1.852 4.628 1.852c0.121 0.048 0.247 0.071 0.372 0.071 0.26 0 0.516-0.102 0.707-0.293 0.283-0.283 0.37-0.707 0.222-1.078l-1.847-4.618c2.914-1.491 4.918-4.518 4.918-8.011v-34c0-3.493-2.004-6.52-4.918-8.011zm-7.287-3.194 2.833 1.134c0.239 0.096 0.504 0.096 0.743 0l2.833-1.134-0.996 2.491c-0.708-0.18-1.445-0.286-2.208-0.286s-1.5 0.106-2.209 0.286zm6.41 56.41-2.833-1.134c-0.239-0.096-0.504-0.096-0.743 0l-2.833 1.134 0.996-2.491c0.708 0.18 1.445 0.286 2.208 0.286s1.5-0.106 2.209-0.286zm3.795-14.205h-8v-28h8zm0-30h-9c-0.552 0-1 0.447-1 1v30c0 0.553 0.448 1 1 1h9v1c0 3.859-3.14 7-7 7s-7-3.141-7-7v-34c0-3.859 3.14-7 7-7s7 3.141 7 7z"/>
  <path id="path4" d="m33.301 7.635 2.594-5.188c0.186-0.371 0.123-0.819-0.159-1.124-0.281-0.305-0.72-0.405-1.107-0.252l-4.629 1.852-4.628-1.852c-0.385-0.153-0.826-0.054-1.107 0.252-0.281 0.305-0.344 0.753-0.159 1.124l2.594 5.188c-3.333 1.32-5.7 4.568-5.7 8.365v8c0 3.484 1.993 6.505 4.896 8-2.903 1.495-4.896 4.516-4.896 8v8c0 3.797 2.367 7.045 5.699 8.365l-2.594 5.188c-0.186 0.371-0.123 0.819 0.159 1.124 0.281 0.306 0.722 0.407 1.107 0.252l4.629-1.852 4.628 1.852c0.121 0.048 0.247 0.071 0.372 0.071 0.274 0 0.542-0.113 0.736-0.323 0.281-0.305 0.344-0.753 0.159-1.124l-2.594-5.188c3.332-1.32 5.699-4.568 5.699-8.365v-8c0-3.484-1.993-6.505-4.896-8 2.903-1.495 4.896-4.516 4.896-8v-8c0-3.797-2.367-7.045-5.699-8.365zm-6.23-3.73 2.558 1.023c0.239 0.096 0.504 0.096 0.743 0l2.558-1.023-1.602 3.204c-0.435-0.065-0.876-0.109-1.328-0.109s-0.893 0.044-1.327 0.109zm5.858 56.19-2.558-1.023c-0.239-0.096-0.504-0.096-0.743 0l-2.558 1.023 1.602-3.204c0.435 0.065 0.876 0.109 1.328 0.109s0.893-0.044 1.327-0.109zm4.071-20.095v8c0 3.859-3.14 7-7 7s-7-3.141-7-7v-8c0-3.859 3.14-7 7-7s7 3.141 7 7zm0-16c0 3.859-3.14 7-7 7s-7-3.141-7-7v-8c0-3.859 3.14-7 7-7s7 3.141 7 7z"/>
  <path id="path6" d="m49.013 7.036 0.968-4.84c0.08-0.396-0.088-0.802-0.424-1.027s-0.774-0.226-1.111-1e-3l-2.446 1.63-2.445-1.63c-0.335-0.225-0.774-0.224-1.111 1e-3 -0.337 0.226-0.504 0.631-0.424 1.027l0.968 4.84c-1.2 0.914-1.988 2.343-1.988 3.964v42c0 1.621 0.788 3.05 1.987 3.964l-0.968 4.84c-0.08 0.396 0.088 0.802 0.424 1.027 0.337 0.225 0.776 0.227 1.111 1e-3l2.446-1.63 2.445 1.63c0.168 0.112 0.362 0.168 0.555 0.168 0.194 0 0.388-0.057 0.557-0.169 0.336-0.226 0.503-0.631 0.424-1.027l-0.968-4.84c1.199-0.914 1.987-2.343 1.987-3.964v-42c0-1.621-0.788-3.05-1.987-3.964zm-3.013 48.964c-1.654 0-3-1.346-3-3v-17h6v17c0 1.654-1.346 3-3 3zm-3-22v-4h6v4zm0-6v-17c0-1.654 1.346-3 3-3s3 1.346 3 3v17zm1.454-23.829 0.991 0.661c0.336 0.225 0.773 0.225 1.109 0l0.991-0.661-0.395 1.976c-0.37-0.088-0.752-0.147-1.15-0.147s-0.78 0.059-1.151 0.147zm3.092 55.658-0.991-0.661c-0.336-0.225-0.773-0.225-1.109 0l-0.991 0.661 0.395-1.976c0.37 0.088 0.752 0.147 1.15 0.147s0.78-0.059 1.151-0.147z"/>
  <path id="path8" d="m63 53v-42c0-1.621-0.788-3.05-1.987-3.964l0.968-4.84c0.08-0.396-0.088-0.802-0.424-1.027s-0.774-0.226-1.111-1e-3l-2.446 1.63-2.445-1.63c-0.335-0.225-0.774-0.224-1.111 1e-3 -0.337 0.226-0.504 0.631-0.424 1.027l0.968 4.84c-1.2 0.914-1.988 2.343-1.988 3.964v42c0 1.621 0.788 3.05 1.987 3.964l-0.968 4.84c-0.08 0.396 0.088 0.802 0.424 1.027 0.337 0.225 0.776 0.227 1.111 1e-3l2.446-1.63 2.445 1.63c0.168 0.112 0.362 0.168 0.555 0.168 0.194 0 0.388-0.057 0.557-0.169 0.336-0.226 0.503-0.631 0.424-1.027l-0.968-4.84c1.199-0.914 1.987-2.343 1.987-3.964zm-5 3c-1.654 0-3-1.346-3-3v-17h6v17c0 1.654-1.346 3-3 3zm0-48c1.654 0 3 1.346 3 3v17h-6v-17c0-1.654 1.346-3 3-3zm3 22v4h-6v-4zm-4.546-25.829 0.991 0.661c0.336 0.225 0.773 0.225 1.109 0l0.991-0.661-0.395 1.976c-0.37-0.088-0.752-0.147-1.15-0.147s-0.78 0.059-1.151 0.147zm3.092 55.658-0.991-0.661c-0.336-0.225-0.773-0.225-1.109 0l-0.991 0.661 0.395-1.976c0.37 0.088 0.752 0.147 1.15 0.147s0.78-0.059 1.151-0.147z"/>
  <path id="path10" d="m30 27v2c2.757 0 5-2.243 5-5h-2c0 1.654-1.346 3-3 3z"/>
  <path id="path12" d="m35 48h-2c0 1.654-1.346 3-3 3v2c2.757 0 5-2.243 5-5z"/>
 </g>
</svg>
