<svg width="76" height="74" viewBox="0 0 76 74" fill="none" xmlns="http://www.w3.org/2000/svg">
<path d="M1.18786 42.9704C1.49188 42.9704 1.7959 42.8534 2.02747 42.6207L12.1574 32.4398L16.6393 72.9378C16.707 73.5429 17.2141 74 17.8197 74H58.1803C58.7859 74 59.2942 73.5429 59.3607 72.9378L63.8426 32.4398L73.9725 42.6207C74.2041 42.8534 74.5081 42.9704 74.8121 42.9704C75.1162 42.9704 75.4202 42.8534 75.6517 42.6207C76.1161 42.154 76.1161 41.3997 75.6517 40.933L63.7749 28.9976C63.7048 28.9284 63.6205 28.8902 63.541 28.8413C63.4923 28.8126 63.4531 28.7709 63.402 28.7482C63.2524 28.6837 63.0944 28.6479 62.9353 28.6479C62.9341 28.6479 62.9341 28.6479 62.9341 28.6479H61.6991C61.0863 20.6476 54.4276 14.3231 46.313 14.3231C43.3322 14.3231 40.4761 15.1753 37.9917 16.7758C35.5916 15.2314 32.7474 14.3231 29.6918 14.3231C21.576 14.3231 14.9161 20.6476 14.301 28.6479H13.0659C13.0659 28.6479 13.0659 28.6479 13.0647 28.6479C12.9056 28.6479 12.7476 28.6837 12.598 28.7482C12.5469 28.7709 12.5077 28.8114 12.459 28.8413C12.3795 28.8902 12.294 28.9284 12.2251 28.9976L0.348253 40.933C-0.116084 41.3997 -0.116084 42.154 0.348253 42.6207C0.579829 42.8534 0.883845 42.9704 1.18786 42.9704ZM34.2805 28.6479C33.7473 26.5926 31.9007 25.0649 29.6906 25.0649C27.4806 25.0649 25.6339 26.5926 25.1007 28.6479H23.862C24.419 25.9255 26.8203 23.8714 29.6918 23.8714C32.5621 23.8714 34.9634 25.9255 35.5192 28.6479H34.2805ZM31.7427 28.6479H27.6373C28.0518 27.9366 28.813 27.452 29.6906 27.452C30.5682 27.452 31.3295 27.9366 31.7427 28.6479ZM37.9192 28.6479C37.335 24.6042 33.8732 21.4843 29.6918 21.4843C25.508 21.4843 22.0463 24.6042 21.462 28.6479H20.2613C20.8539 23.9442 24.8525 20.2908 29.6918 20.2908C34.5299 20.2908 38.5273 23.9442 39.1187 28.6479H37.9192ZM18.9443 31.035C18.961 31.035 18.974 31.0445 18.9906 31.0445C19.0073 31.0445 19.0203 31.0362 19.037 31.035H22.507C22.5237 31.035 22.5367 31.0445 22.5533 31.0445C22.57 31.0445 22.583 31.0362 22.5997 31.035H26.0697C26.0863 31.035 26.0994 31.0445 26.116 31.0445C26.1327 31.0445 26.1457 31.0362 26.1624 31.035H33.2177C33.2343 31.035 33.2474 31.0445 33.264 31.0445C33.2806 31.0445 33.2937 31.0362 33.3103 31.035H36.7804C36.797 31.035 36.8101 31.0445 36.8267 31.0445C36.8433 31.0445 36.8564 31.0362 36.873 31.035H40.3431C40.3597 31.035 40.3728 31.0445 40.3894 31.0445C40.406 31.0445 40.4191 31.0362 40.4357 31.035H43.9058C43.9224 31.035 43.9355 31.0445 43.9521 31.0445C43.9687 31.0445 43.9818 31.0362 43.9984 31.035H49.8388C49.8555 31.035 49.8685 31.0445 49.8852 31.0445C49.9018 31.0445 49.9148 31.0362 49.9315 31.035H53.4015C53.4182 31.035 53.4312 31.0445 53.4478 31.0445C53.4645 31.0445 53.4775 31.0362 53.4942 31.035H56.9642C56.9809 31.035 56.9939 31.0445 57.0105 31.0445C57.0272 31.0445 57.0402 31.0362 57.0569 31.035H60.0697L50.568 40.5833H38.1378C38.0926 40.5833 38.0475 40.5761 38.0012 40.5761C37.9549 40.5761 37.9097 40.5833 37.8646 40.5833H25.4344L15.9327 31.035H18.9443ZM50.9017 28.6479C50.3685 26.5926 48.5218 25.0649 46.3118 25.0649C45.6776 25.0649 45.0613 25.189 44.4924 25.4254C44.3796 25.0458 44.2454 24.6746 44.1053 24.307C44.8047 24.0265 45.5505 23.8714 46.313 23.8714C49.1833 23.8714 51.5846 25.9255 52.1403 28.6479H50.9017ZM54.5404 28.6479C53.9573 24.6042 50.4956 21.4843 46.313 21.4843C45.1978 21.4843 44.1029 21.7135 43.0852 22.1443C42.8833 21.7934 42.6778 21.4461 42.4522 21.1131C43.6611 20.5736 44.9746 20.2908 46.313 20.2908C51.1511 20.2908 55.1484 23.9442 55.7398 28.6479H54.5404ZM44.9971 27.8482C45.3843 27.5916 45.8379 27.452 46.3118 27.452C47.1894 27.452 47.9506 27.9366 48.3651 28.6479H45.0803C45.0589 28.3794 45.0316 28.1132 44.9971 27.8482ZM38.1378 42.9704C43.9675 43.0444 48.6893 47.8281 48.6893 53.7051C48.6893 59.6286 43.8951 64.4469 38.0012 64.4469C32.1073 64.4469 27.3131 59.6286 27.3131 53.7051C27.3131 47.8281 32.0349 43.0444 37.8646 42.9704H38.1378ZM57.1198 71.6129H18.8826L14.6192 33.0915L24.1007 42.6195C24.21 42.7305 24.3418 42.8176 24.4879 42.8785C24.6328 42.9394 24.7872 42.9704 24.9415 42.9704H30.5041C27.1433 45.3479 24.938 49.2687 24.938 53.7051C24.938 60.9439 30.7986 66.834 38.0012 66.834C45.2038 66.834 51.0644 60.9439 51.0644 53.7051C51.0644 49.2687 48.8591 45.3479 45.4971 42.9704H51.0608C51.2152 42.9704 51.3696 42.9394 51.5145 42.8785C51.6606 42.8176 51.7924 42.7305 51.9016 42.6195L61.382 33.0927L57.1198 71.6129ZM46.313 16.7101C53.1177 16.7101 58.7183 21.9641 59.3263 28.6479H58.1387C57.5366 22.6229 52.4634 17.9037 46.313 17.9037C44.4271 17.9037 42.5923 18.3763 40.9285 19.2285C40.6388 18.9182 40.3359 18.6234 40.0212 18.3381C41.9403 17.2747 44.0851 16.7101 46.313 16.7101ZM29.6918 16.7101C36.4965 16.7101 42.0971 21.9641 42.7051 28.6479H41.5176C40.9155 22.6229 35.8422 17.9037 29.6918 17.9037C23.5402 17.9037 18.4669 22.6229 17.8637 28.6479H16.6761C17.2841 21.9641 22.8847 16.7101 29.6918 16.7101Z" fill="#FF4F4F"/>
<path d="M28.3356 9.10009C28.2442 9.50112 27.9675 9.67299 27.9675 9.67538C27.3808 9.97018 27.1433 10.6875 27.4366 11.2771C27.6456 11.6948 28.0648 11.9359 28.5007 11.9359C28.6788 11.9359 28.8605 11.8954 29.0303 11.8106C29.1538 11.7486 30.2476 11.1637 30.6217 9.74938C30.9649 8.45319 30.5837 6.95888 29.4875 5.30703C28.8213 4.30326 28.528 3.42601 28.6634 2.83759C28.7524 2.45089 29.0125 2.27663 29.0576 2.24799C29.6253 1.94483 29.8509 1.24064 29.5624 0.66058C29.2678 0.069778 28.5565 -0.16893 27.9687 0.127068C27.8451 0.189132 26.7514 0.773966 26.3773 2.18831C26.0341 3.48449 26.4153 4.9788 27.5114 6.63066C28.1777 7.63443 28.471 8.51048 28.3356 9.10009Z" fill="#FF4F4F"/>
<path d="M37.8373 9.46273C37.7459 9.86376 37.4692 10.0356 37.4692 10.038C36.8825 10.3328 36.645 11.0501 36.9383 11.6397C37.1473 12.0575 37.5666 12.2986 38.0024 12.2986C38.1805 12.2986 38.3622 12.258 38.532 12.1733C38.6555 12.1112 39.7493 11.5264 40.1234 10.112C40.4666 8.81584 40.0854 7.32153 38.9893 5.66967C38.323 4.6659 38.0297 3.78865 38.1651 3.20024C38.2542 2.81353 38.5142 2.63927 38.5594 2.61063C39.127 2.30747 39.3527 1.60328 39.0641 1.02322C38.7696 0.432421 38.057 0.193713 37.4704 0.489711C37.3469 0.551775 36.2531 1.13661 35.879 2.55095C35.5358 3.84713 35.917 5.34144 37.0131 6.9933C37.6794 7.99707 37.9727 8.87313 37.8373 9.46273Z" fill="#FF4F4F"/>
<path d="M47.339 9.10009C47.2476 9.50112 46.9709 9.67299 46.9709 9.67538C46.3842 9.97018 46.1467 10.6875 46.44 11.2771C46.649 11.6948 47.0683 11.9359 47.5041 11.9359C47.6822 11.9359 47.8639 11.8954 48.0337 11.8106C48.1573 11.7486 49.251 11.1637 49.6251 9.74938C49.9683 8.45319 49.5871 6.95888 48.491 5.30703C47.8247 4.30326 47.5314 3.42601 47.6668 2.83759C47.7559 2.45089 48.0159 2.27663 48.0611 2.24799C48.6287 1.94483 48.8544 1.24064 48.5658 0.66058C48.2713 0.069778 47.5587 -0.16893 46.9721 0.127068C46.8486 0.189132 45.7548 0.773966 45.3807 2.18831C45.0375 3.48449 45.4187 4.9788 46.5148 6.63066C47.1799 7.63443 47.4744 8.51048 47.339 9.10009Z" fill="#FF4F4F"/>
</svg>
