<svg width="74" height="74" viewBox="0 0 74 74" fill="none" xmlns="http://www.w3.org/2000/svg">
<path d="M63.163 10.8369C56.1747 3.8485 46.883 0 37 0C27.117 0 17.8253 3.8485 10.8371 10.8369C3.84858 17.8251 0 27.1165 0 36.9994C0 48.0322 4.82908 58.3287 13.2774 65.3887L12.4327 68.5409C12.1338 69.6564 12.2886 70.8243 12.8689 71.8292C13.4492 72.8341 14.3832 73.5523 15.4987 73.8511C15.8731 73.9514 16.2494 73.9994 16.6199 73.9994C18.5341 73.9993 20.2906 72.7201 20.809 70.7854L20.93 70.3339C25.9132 72.7358 31.4325 73.9987 37 73.9987C42.5525 73.9987 48.0704 72.7332 53.0681 70.3264L53.1911 70.7854C53.49 71.901 54.208 72.835 55.213 73.4151C55.8836 73.8021 56.6265 74 57.378 74C57.753 74 58.1302 73.9507 58.5013 73.8513C60.8107 73.2326 62.186 70.8504 61.5674 68.5412L60.7229 65.3897C64.7371 62.0326 68.0456 57.7959 70.3202 53.0848C72.7275 48.0987 74 42.5365 74 36.9996C74.0001 27.1165 70.1514 17.8251 63.163 10.8369ZM16.2466 71.0591C15.8768 70.96 15.5663 70.7202 15.3721 70.3841C15.1779 70.0477 15.1256 69.659 15.2246 69.2893L21.2097 46.9527C21.3088 46.583 21.5486 46.2724 21.8849 46.0783C22.1101 45.9484 22.3586 45.8819 22.6095 45.8819C22.7332 45.8819 22.8576 45.8981 22.9799 45.9309H22.98C23.3499 46.03 23.6605 46.2698 23.8546 46.6061C24.0488 46.9425 24.1012 47.3312 24.0022 47.7009L18.017 70.0375C17.8106 70.8068 17.0165 71.265 16.2466 71.0591ZM30.1608 35.8846L29.7867 37.2806C29.5803 38.0505 28.786 38.5084 28.0167 38.3026L25.2255 37.5546C25.2252 37.5545 25.2248 37.5543 25.2245 37.5543C25.2242 37.5543 25.2237 37.5542 25.2234 37.5542L22.4323 36.8063C22.0626 36.7071 21.7521 36.4673 21.5578 36.1312C21.3636 35.7949 21.3113 35.4061 21.4103 35.0362L21.7843 33.6402L30.1608 35.8846ZM37 71.108C31.6821 71.108 26.4128 69.859 21.6925 67.4877L23.4599 60.8923C27.577 63.2311 32.2198 64.4596 37 64.4596C41.7731 64.4596 46.4151 63.2302 50.5394 60.8896L52.3054 67.4803C47.5696 69.8565 42.3018 71.108 37 71.108ZM49.7241 52.2628C49.3538 52.3618 48.9653 52.3095 48.6291 52.1154C48.2929 51.9213 48.0532 51.6107 47.954 51.2409L43.465 34.4885C42.968 32.6332 43.2274 30.6877 44.1961 29.0101C44.9171 27.7613 45.9635 26.7783 47.2166 26.1525L53.9123 51.1407L49.7241 52.2628ZM57.7534 71.0591C57.3831 71.1583 56.9945 71.1058 56.6583 70.9117C56.3221 70.7176 56.0823 70.407 55.9832 70.0372L51.8684 54.6809L54.6607 53.9327L58.7755 69.289C58.9816 70.0587 58.5232 70.8528 57.7534 71.0591ZM59.891 62.2843L57.891 54.8201C62.1327 49.8499 64.4611 43.5507 64.4611 36.9994C64.4611 24.4361 55.9694 13.4944 43.8112 10.3911C43.0371 10.1936 42.2505 10.6608 42.0532 11.4341C41.8558 12.2074 42.3228 12.9945 43.0962 13.192C53.9736 15.9683 61.5705 25.7584 61.5705 36.9995C61.5705 42.1735 59.9468 47.1714 56.9562 51.3312L49.5971 23.868C49.3904 23.097 48.5978 22.639 47.827 22.846C42.4384 24.2898 39.2293 29.8482 40.6731 35.2367L45.1621 51.9891C45.4609 53.1047 46.179 54.0386 47.184 54.6188C47.7541 54.948 48.3766 55.1402 49.0123 55.1905L49.7634 57.9935C45.9144 60.3356 41.5231 61.5693 37.0001 61.5693C32.4691 61.5693 28.0766 60.3365 24.2362 57.9961L26.7944 48.449C27.0933 47.3335 26.9383 46.1658 26.3582 45.1609C26.0289 44.5907 25.5858 44.1132 25.0603 43.7519L25.8725 40.7208L27.2687 41.0948C27.6432 41.1951 28.0193 41.243 28.3898 41.243C30.304 41.243 32.0605 39.9636 32.5789 38.029L33.3243 35.2471C33.3253 35.2436 33.3263 35.2403 33.3272 35.2368C33.3282 35.2334 33.329 35.2299 33.3299 35.2264L35.5717 26.8606C35.7784 26.0895 35.3208 25.2971 34.5498 25.0904C33.7785 24.8837 32.9864 25.3414 32.7797 26.1123L30.9093 33.0926L28.1173 32.3445L29.9876 25.3643C30.1943 24.5932 29.7367 23.8008 28.9657 23.5941C28.1943 23.3871 27.4023 23.8451 27.1956 24.616L25.3252 31.5963L22.533 30.8481L24.4032 23.868C24.6099 23.0969 24.1523 22.3045 23.3813 22.0978C22.6099 21.891 21.8179 22.3488 21.6112 23.1197L19.3707 31.4814C19.3692 31.4862 19.3679 31.4909 19.3668 31.4959C19.3655 31.5008 19.3642 31.5055 19.363 31.5105L18.6188 34.288C18.3199 35.4036 18.4747 36.5714 19.0551 37.5765C19.6354 38.5814 20.5693 39.2994 21.6847 39.5983L23.0809 39.9723L22.2687 43.0033C21.6329 43.0535 21.0104 43.2454 20.4403 43.5747C19.4353 44.1549 18.7172 45.0889 18.4183 46.2043L17.0444 51.3316C14.0539 47.1737 12.4303 42.175 12.4303 36.9992C12.4303 25.7585 20.0268 15.9686 30.9035 13.192C31.6771 12.9945 32.1439 12.2074 31.9465 11.4341C31.749 10.6607 30.9626 10.1943 30.1885 10.3911C18.0307 13.4949 9.53964 24.4364 9.53964 36.9992C9.53964 43.5528 11.8679 49.8534 16.1096 54.8204L14.11 62.2827C6.95513 55.8139 2.89106 46.7163 2.89106 36.9992C2.89048 18.1918 18.192 2.89056 37 2.89056C55.808 2.89056 71.1095 18.1918 71.1095 36.9994C71.1095 46.7265 67.0457 55.8234 59.891 62.2843Z" fill="#FF4F4F"/>
<path d="M36.9998 9.53906H36.9988C36.2006 9.53906 35.554 10.1861 35.554 10.9844C35.554 11.7826 36.2015 12.4297 36.9998 12.4297C37.798 12.4297 38.4451 11.7826 38.4451 10.9844C38.4451 10.1861 37.798 9.53906 36.9998 9.53906Z" fill="#FF4F4F"/>
</svg>
