<?xml version="1.0" encoding="UTF-8"?>
<svg id="Layer_3" width="512" height="512" enable-background="new 0 0 64 64" version="1.1" viewBox="0 0 64 64" xmlns="http://www.w3.org/2000/svg" xmlns:cc="http://creativecommons.org/ns#" xmlns:dc="http://purl.org/dc/elements/1.1/" xmlns:rdf="http://www.w3.org/1999/02/22-rdf-syntax-ns#" fill="#fca311">
 <metadata id="metadata33">
  <rdf:RDF>
   <cc:Work rdf:about="">
    <dc:format>image/svg+xml</dc:format>
    <dc:type rdf:resource="http://purl.org/dc/dcmitype/StillImage"/>
    <dc:title/>
   </cc:Work>
  </rdf:RDF>
 </metadata>
 <g id="g26" transform="matrix(.81192 0 0 .81192 6.0186 6.0186)">
  <path id="path2" d="m15 15h18c0.553 0 1-0.448 1-1v-6c0-0.552-0.447-1-1-1h-18c-0.553 0-1 0.448-1 1v6c0 0.552 0.447 1 1 1zm1-6h16v4h-16z"/>
  <path id="path4" d="m10 27c2.757 0 5-2.243 5-5s-2.243-5-5-5-5 2.243-5 5 2.243 5 5 5zm0-8c1.654 0 3 1.346 3 3s-1.346 3-3 3-3-1.346-3-3 1.346-3 3-3z"/>
  <path id="path6" d="m17 25h24v2h-24z"/>
  <path id="path8" d="m17 21h24v2h-24z"/>
  <path id="path10" d="m10 39c2.757 0 5-2.243 5-5 0-0.754-0.18-1.463-0.481-2.105l2.188-2.188-1.414-1.414-1.986 1.986c-0.884-0.786-2.034-1.279-3.307-1.279-2.757 0-5 2.243-5 5s2.243 5 5 5zm0-8c0.722 0 1.376 0.267 1.894 0.693l-1.619 1.619-0.38-0.759-1.789 0.895 1 2c0.144 0.288 0.417 0.488 0.734 0.54 0.054 8e-3 0.107 0.012 0.16 0.012 0.263 0 0.519-0.104 0.707-0.293l2.239-2.239c0.031 0.173 0.054 0.35 0.054 0.532 0 1.654-1.346 3-3 3s-3-1.346-3-3 1.346-3 3-3z"/>
  <path id="path12" d="m17 33h22v2h-22z"/>
  <path id="path14" d="m17 37h18v2h-18z"/>
  <path id="path16" d="m63 23.829c0-2.112-1.718-3.829-3.828-3.829-1.023 0-1.984 0.398-2.707 1.122l-3.172 3.171-6.293 6.293v-28.586c0-0.552-0.447-1-1-1h-34c-0.266 0-0.52 0.105-0.707 0.293l-10 10c-0.188 0.187-0.293 0.442-0.293 0.707v50c0 0.552 0.447 1 1 1h44c0.553 0 1-0.448 1-1v-20.586l11.707-11.707 1.027-1.027c-0.518 2.58-1.78 4.952-3.683 6.855l-4.758 4.757 1.414 1.414 4.758-4.757c2.827-2.827 4.411-6.557 4.515-10.538 0.652-0.707 1.02-1.614 1.02-2.582zm-5.121-1.294c0.341-0.34 0.811-0.535 1.293-0.535 1.008 0 1.828 0.82 1.828 1.829 0 0.488-0.19 0.948-0.535 1.293l-2.465 2.464-2.586-2.586zm-3.879 3.879 0.586 0.586-12.586 12.586-0.586-0.586zm-23.741 25.431 1.94-3.233 2.189 2.189-3.232 1.939zm3.155-4.845 6.586-6.586 2.586 2.586-6.586 6.586zm-22.414-42.586v6.586h-6.586zm34 56.586h-42v-48h9c0.553 0 1-0.448 1-1v-9h32v29.586l-5.707 5.707-8 8c-0.06 0.06-0.093 0.133-0.134 0.202l-0.016-0.01-3 5c-0.236 0.394-0.174 0.897 0.15 1.222l0.293 0.293-2.293 2.293 1.414 1.414 2.293-2.293 0.293 0.293c0.192 0.193 0.449 0.293 0.707 0.293 0.177 0 0.354-0.047 0.515-0.143l5-3-0.01-0.016c0.069-0.041 0.142-0.075 0.202-0.134l8-8 0.293-0.293zm-1-19.414-0.586-0.586 12.586-12.586 0.586 0.586z"/>
  <path id="path18" d="m5 55h20v2h-20z"/>
  <path id="path20" d="m5 51h20v2h-20z"/>
  <path id="path22" d="m5 47h20v2h-20z"/>
  <path id="path24" d="m5 43h10v2h-10z"/>
 </g>
</svg>
