<svg width="152" height="25" viewBox="0 0 152 25" fill="none" xmlns="http://www.w3.org/2000/svg">
<path d="M16.16 13.26H19.85V21.63C18.77 22.49 17.51 23.15 16.07 23.61C14.63 24.07 13.15 24.3 11.63 24.3C9.49 24.3 7.56 23.84 5.84 22.92C4.12 21.98 2.77 20.69 1.79 19.05C0.81 17.41 0.32 15.56 0.32 13.5C0.32 11.44 0.81 9.59 1.79 7.95C2.77 6.31 4.12 5.03 5.84 4.11C7.58 3.17 9.53 2.7 11.69 2.7C13.45 2.7 15.05 2.99 16.49 3.57C17.93 4.15 19.14 5 20.12 6.12L17.66 8.52C16.06 6.92 14.13 6.12 11.87 6.12C10.39 6.12 9.07 6.43 7.91 7.05C6.77 7.67 5.87 8.54 5.21 9.66C4.57 10.78 4.25 12.06 4.25 13.5C4.25 14.9 4.57 16.16 5.21 17.28C5.87 18.4 6.77 19.28 7.91 19.92C9.07 20.56 10.38 20.88 11.84 20.88C13.48 20.88 14.92 20.52 16.16 19.8V13.26ZM28.2038 10.32C29.2838 8.64 31.1838 7.8 33.9038 7.8V11.37C33.5838 11.31 33.2938 11.28 33.0338 11.28C31.5738 11.28 30.4338 11.71 29.6138 12.57C28.7938 13.41 28.3838 14.63 28.3838 16.23V24H24.6338V7.98H28.2038V10.32ZM37.085 7.98H40.835V24H37.085V7.98ZM38.975 5.34C38.295 5.34 37.725 5.13 37.265 4.71C36.805 4.27 36.575 3.73 36.575 3.09C36.575 2.45 36.805 1.92 37.265 1.5C37.725 1.06 38.295 0.84 38.975 0.84C39.655 0.84 40.225 1.05 40.685 1.47C41.145 1.87 41.375 2.38 41.375 3C41.375 3.66 41.145 4.22 40.685 4.68C40.245 5.12 39.675 5.34 38.975 5.34ZM45.7569 1.74H49.5069V24H45.7569V1.74ZM54.4288 1.74H58.1788V24H54.4288V1.74ZM64.3306 1.53C65.0306 1.53 65.6106 1.76 66.0706 2.22C66.5306 2.68 66.7606 3.27 66.7606 3.99C66.7606 4.35 66.7106 4.7 66.6106 5.04C66.5306 5.38 66.3606 5.89 66.1006 6.57L64.5406 10.83H62.1106L63.3106 6.21C62.8706 6.05 62.5206 5.78 62.2606 5.4C62.0206 5 61.9006 4.53 61.9006 3.99C61.9006 3.27 62.1306 2.68 62.5906 2.22C63.0506 1.76 63.6306 1.53 64.3306 1.53ZM79.5148 7.8C81.5348 7.8 83.1548 8.39 84.3748 9.57C85.5948 10.75 86.2048 12.5 86.2048 14.82V24H82.4548V15.3C82.4548 13.9 82.1248 12.85 81.4648 12.15C80.8048 11.43 79.8648 11.07 78.6448 11.07C77.2648 11.07 76.1748 11.49 75.3748 12.33C74.5748 13.15 74.1748 14.34 74.1748 15.9V24H70.4248V7.98H73.9948V10.05C74.6148 9.31 75.3948 8.75 76.3348 8.37C77.2748 7.99 78.3348 7.8 79.5148 7.8ZM92.0455 1.53C92.7455 1.53 93.3255 1.76 93.7855 2.22C94.2455 2.68 94.4755 3.27 94.4755 3.99C94.4755 4.35 94.4255 4.7 94.3255 5.04C94.2455 5.38 94.0755 5.89 93.8155 6.57L92.2555 10.83H89.8255L91.0255 6.21C90.5855 6.05 90.2355 5.78 89.9755 5.4C89.7355 5 89.6155 4.53 89.6155 3.99C89.6155 3.27 89.8455 2.68 90.3055 2.22C90.7655 1.76 91.3455 1.53 92.0455 1.53ZM112.24 24L107.95 17.85C107.77 17.87 107.5 17.88 107.14 17.88H102.4V24H98.4997V3H107.14C108.96 3 110.54 3.3 111.88 3.9C113.24 4.5 114.28 5.36 115 6.48C115.72 7.6 116.08 8.93 116.08 10.47C116.08 12.05 115.69 13.41 114.91 14.55C114.15 15.69 113.05 16.54 111.61 17.1L116.44 24H112.24ZM112.15 10.47C112.15 9.13 111.71 8.1 110.83 7.38C109.95 6.66 108.66 6.3 106.96 6.3H102.4V14.67H106.96C108.66 14.67 109.95 14.31 110.83 13.59C111.71 12.85 112.15 11.81 112.15 10.47ZM127.283 24.21C125.663 24.21 124.203 23.86 122.903 23.16C121.603 22.46 120.583 21.49 119.843 20.25C119.123 18.99 118.763 17.57 118.763 15.99C118.763 14.41 119.123 13 119.843 11.76C120.583 10.52 121.603 9.55 122.903 8.85C124.203 8.15 125.663 7.8 127.283 7.8C128.923 7.8 130.393 8.15 131.693 8.85C132.993 9.55 134.003 10.52 134.723 11.76C135.463 13 135.833 14.41 135.833 15.99C135.833 17.57 135.463 18.99 134.723 20.25C134.003 21.49 132.993 22.46 131.693 23.16C130.393 23.86 128.923 24.21 127.283 24.21ZM127.283 21C128.663 21 129.803 20.54 130.703 19.62C131.603 18.7 132.053 17.49 132.053 15.99C132.053 14.49 131.603 13.28 130.703 12.36C129.803 11.44 128.663 10.98 127.283 10.98C125.903 10.98 124.763 11.44 123.863 12.36C122.983 13.28 122.543 14.49 122.543 15.99C122.543 17.49 122.983 18.7 123.863 19.62C124.763 20.54 125.903 21 127.283 21ZM139.419 1.74H143.169V24H139.419V1.74ZM148.091 1.74H151.841V24H148.091V1.74Z" fill="#30302D"/>
</svg>
