<?xml version="1.0" encoding="UTF-8"?>
<!-- Created with Inkscape (http://www.inkscape.org/) -->
<svg width="300mm" height="50mm" version="1.1" viewBox="0 0 300 50" xmlns="http://www.w3.org/2000/svg" xmlns:cc="http://creativecommons.org/ns#" xmlns:dc="http://purl.org/dc/elements/1.1/" xmlns:rdf="http://www.w3.org/1999/02/22-rdf-syntax-ns#">
 <metadata>
  <rdf:RDF>
   <cc:Work rdf:about="">
    <dc:format>image/svg+xml</dc:format>
    <dc:type rdf:resource="http://purl.org/dc/dcmitype/StillImage"/>
    <dc:title/>
   </cc:Work>
  </rdf:RDF>
 </metadata>
 <g transform="translate(0,-247)">
  <g transform="scale(1.3573 .73676)" fill="#fefa00">
   <path d="m162.58 338.14h10.397q9.3425 0 46.863 2.411v1.2055h-6.6302v1.2055h5.726v1.2055q-8.4384 3.0137-42.192 10.849v0.60274h4.6712q7.2329 0 26.219 0.60274 0 1.2055 2.863 1.2055v1.2055q-26.973 7.8356-28.178 7.8356v1.2055l9.3425-0.60274h0.90411v1.2055q-6.9315 1.2055-8.4384 1.2055v0.60274h4.6712l4.8219-0.60274v1.2055q-63.137 22-108.95 24.712-58.315 4.8219-70.37 4.8219l-3.7671-1.2055q-1.8082 0.60274-2.7123 0.60274l-3.7671-4.8219 0.90411-1.2055q-3.7671-3.6164-3.7671-5.4247 7.8356-6.0274 10.397-6.0274h0.90411l-1.9589-1.8082q3.1644-7.2329 5.726-7.2329-1.9589-1.9589-1.9589-3.6164h2.863v-1.2055l-1.9589-1.8082q1.3562-2.411 9.4932-6.0274 0-2.5616 36.616-7.2329l76.849-12.658q18.534-2.411 24.411-2.411z" fill="#fefa00" stroke-width="4.8219"/>
  </g>
 </g>
</svg>
