<svg width="13" height="12" viewBox="0 0 13 12" fill="none" xmlns="http://www.w3.org/2000/svg">
<path d="M3.77528 0.574437L4.70681 1.50597H4.0625C1.81883 1.50597 0 3.3248 0 5.56847C0 7.81214 1.81883 9.63097 4.0625 9.63097V8.81847C2.26759 8.81847 0.8125 7.36338 0.8125 5.56847C0.8125 3.77355 2.26759 2.31847 4.0625 2.31847H4.70681L3.77528 3.25L4.34972 3.82444L6.26194 1.91222L4.34972 0L3.77528 0.574437Z" fill="#6DAC52"/>
<path d="M13.0002 5.56847C12.9978 3.32584 11.1803 1.50843 8.93772 1.50597V2.31847C10.7326 2.31847 12.1877 3.77355 12.1877 5.56847C12.1877 7.36338 10.7326 8.81847 8.93772 8.81847H8.29341L9.22494 7.88694L8.6505 7.3125L6.73828 9.22472L8.6505 11.1369L9.22494 10.5625L8.29341 9.63097H8.93772C11.1803 9.6285 12.9978 7.81109 13.0002 5.56847Z" fill="#6DAC52"/>
<path d="M8.125 1.50597H7.3125V2.31847H8.125V1.50597Z" fill="#6DAC52"/>
<path d="M5.6875 8.81847H4.875V9.63097H5.6875V8.81847Z" fill="#6DAC52"/>
</svg>
