<svg width="22" height="22" viewBox="0 0 22 22" fill="none" xmlns="http://www.w3.org/2000/svg">
<rect width="21.2143" height="22" fill="black" fill-opacity="0"/>
<rect width="21.2143" height="22" fill="black" fill-opacity="0"/>
<path d="M20.9946 0.0838819C20.8347 -0.0223751 20.6275 -0.0280391 20.4623 0.0689289L0.243724 11.9137C0.0720852 12.0143 -0.021995 12.2062 0.00439333 12.4013C0.0303228 12.5961 0.172361 12.7572 0.364193 12.8102L5.50166 14.2224C5.6577 14.265 5.82498 14.2306 5.95049 14.1295L14.158 7.50963L8.4326 14.7249C8.36354 14.8115 8.32659 14.9184 8.32659 15.0283V21.5084C8.32659 21.7272 8.47253 21.9193 8.68524 21.9803C8.73137 21.9939 8.77818 22 8.82453 22C8.99158 22 9.15152 21.9171 9.24445 21.7725L12.8188 16.2331L18.0442 17.6691C18.1814 17.7069 18.3287 17.6842 18.4489 17.6077C18.5685 17.5309 18.6493 17.4072 18.6708 17.2681L21.2087 0.56487C21.2374 0.377278 21.1541 0.189912 20.9946 0.0838819Z" fill="white"/>
</svg>
