<svg width="32" height="31" viewBox="0 0 32 31" fill="none" xmlns="http://www.w3.org/2000/svg">
<path d="M14.5443 23.6331C14.3002 23.8692 14.3002 24.2526 14.5443 24.4891C14.789 24.7253 15.1849 24.7253 15.4288 24.4891C15.6734 24.2526 15.6734 23.8692 15.4288 23.6331C15.1849 23.3964 14.789 23.3964 14.5443 23.6331Z" fill="#00AF80"/>
<path d="M30.5889 22.5816L25.8389 18.6727C25.8169 18.6547 25.7937 18.6382 25.7695 18.6233C24.5233 17.8556 22.9233 18.0256 21.8785 19.0365L19.2887 21.5426C19.1093 21.7164 18.8417 21.7677 18.6071 21.6741C15.6827 20.5033 13.2803 18.7408 11.4666 16.436C10.0836 14.6785 9.58504 13.2819 9.5193 13.0851C9.51148 13.043 9.49902 13.0011 9.48142 12.9602C9.3844 12.7332 9.43743 12.4747 9.6173 12.3011L12.2069 9.79425C13.2517 8.78316 13.4271 7.2347 12.6339 6.02873C12.6275 6.01903 12.6209 6.00957 12.6141 6.00011L9.18375 1.38692C8.10451 -0.233431 5.75369 -0.478222 4.34281 0.886932L3.82421 1.38881C3.82396 1.38929 3.82347 1.38976 3.82298 1.38999L1.97146 3.18182C-0.236387 5.31871 -0.597601 8.52961 0.927169 12.468C2.23321 15.8417 4.84773 19.5339 8.28903 22.8642C11.8117 26.2733 15.7301 28.8503 19.3222 30.1207C22.8776 31.3777 26.6596 31.5326 29.3364 28.9419L31.0826 27.2522C32.4871 25.8927 32.242 23.6326 30.5889 22.5816ZM25.0637 19.624L29.8096 23.5295C29.8313 23.5475 29.8545 23.564 29.8787 23.5789C30.8925 24.2036 31.0459 25.5753 30.1977 26.396L30.0681 26.5216L21.9736 20.6566L22.7632 19.8926C23.3803 19.2952 24.3207 19.1871 25.0637 19.624ZM8.13848 2.05223C8.14483 2.06193 8.15143 2.07163 8.15828 2.08085L11.5871 6.69238C12.0529 7.41398 11.9451 8.3352 11.3222 8.93807L10.557 9.67883L5.08063 1.88525L5.22751 1.74311C6.07922 0.918861 7.49548 1.07472 8.13848 2.05223ZM19.7513 28.9833C16.3269 27.7723 12.5703 25.2951 9.17373 22.008C5.85585 18.7974 3.34324 15.2584 2.09855 12.0433C1.16423 9.62987 0.537362 6.28203 2.85616 4.03823L4.18004 2.7568L9.65641 10.5504L8.73284 11.4446C8.2074 11.9522 8.04219 12.7034 8.30442 13.3722C8.50189 14.1565 9.41055 15.7844 10.3273 16.984C11.6763 18.7493 14.1249 21.1899 18.1288 22.793C18.8324 23.0747 19.6347 22.92 20.1734 22.399L21.0798 21.5215L29.1744 27.3866L28.4517 28.0857C25.966 30.4915 22.3485 29.9016 19.7513 28.9833Z" fill="#00AF80"/>
<path d="M13.3703 22.1876C12.7095 21.6268 11.5664 20.6623 10.9645 20.063C9.48836 18.595 7.93964 16.8154 7.01877 15.5298C6.82203 15.2549 6.43222 15.1864 6.14824 15.377C5.86426 15.5674 5.79363 15.9446 5.99036 16.2194C7.15172 17.841 8.85807 19.7042 10.0676 20.9071C10.703 21.54 11.8558 22.513 12.5452 23.0979C12.8045 23.3179 13.1997 23.2938 13.4282 23.0419C13.656 22.7907 13.6301 22.408 13.3703 22.1876Z" fill="#00AF80"/>
</svg>
