<?xml version="1.0" encoding="UTF-8"?>
<!-- Created with Inkscape (http://www.inkscape.org/) -->
<svg width="200mm" height="200mm" version="1.1" viewBox="0 0 200 200" xmlns="http://www.w3.org/2000/svg" xmlns:cc="http://creativecommons.org/ns#" xmlns:dc="http://purl.org/dc/elements/1.1/" xmlns:rdf="http://www.w3.org/1999/02/22-rdf-syntax-ns#">
 <metadata>
  <rdf:RDF>
   <cc:Work rdf:about="">
    <dc:format>image/svg+xml</dc:format>
    <dc:type rdf:resource="http://purl.org/dc/dcmitype/StillImage"/>
    <dc:title/>
   </cc:Work>
  </rdf:RDF>
 </metadata>
 <g transform="translate(0,-97)">
  <g transform="matrix(32.172 0 0 32.172 -992.47 -5889.7)" fill="#fefa00" aria-label=".">
   <path d="m34.542 186.1q0.27561 0.10335 0.27561 0.20671 0.0689 0 0.0689-0.0689 0.37896 0.0689 0.55122 0.0689l0.1378-0.0689q0.34451 0 0.34451 0.49954l0.1378-0.0689h0.0689q0.41341 0.10335 0.41341 0.86128 0 2.3427-1.5158 4.048-0.72347 0.22393-1.1713 0.63735l-0.0689-0.13781-0.1378 0.0689q-0.41341-0.63734-0.75792-0.63734-0.99908 0.77515-1.1024 0.77515v-0.0689q0.0689-0.13781 0.0689-0.20671-0.1378 0-0.1378 0.20671h-0.1378l-0.0689-0.36174q0-0.82682-0.1378-2.2738 0.60289-2.1704 0.82682-2.4116 0.27561 0 0.27561-0.43064l0.1378-0.0689v0.20671h0.20671q0.1378 0 0.1378-0.20671h0.1378q0.03445 0.29284 0.20671 0.29284 0.27561 0 0.27561-0.56845h0.27561q0.31006 0.27561 0.34451 0.27561h0.0689v-0.0689l-0.0689-0.36174q0.22393-0.1378 0.34451-0.1378z" fill="#fefa00" stroke-width=".26458"/>
  </g>
 </g>
</svg>
