<svg width="28" height="28" viewBox="0 0 28 28" fill="none" xmlns="http://www.w3.org/2000/svg">
<path d="M17.5977 23.4021L21.4046 18.3262L22.7171 19.3106L18.9102 24.3865L17.5977 23.4021Z" fill="#6DAC52"/>
<path d="M17.2734 18.4061H18.9141V20.0469H17.2734V18.4061Z" fill="#6DAC52"/>
<path d="M21.4961 22.4635H23.1367V24.1042H21.4961V22.4635Z" fill="#6DAC52"/>
<path d="M20.2044 14.5103C20.0548 14.5103 19.9065 14.5158 19.7594 14.5254L19.2837 6.3832H15.402V4.8C15.402 2.15327 13.2487 0 10.602 0C7.95529 0 5.80197 2.15327 5.80197 4.8V6.3832H1.92023L1.05808 21.1419C0.990923 22.2911 1.389 23.3851 2.1788 24.2224C2.96865 25.0598 4.03758 25.5209 5.18864 25.5209H14.9839C16.2218 27.0331 18.1023 28 20.2045 28C23.9236 28 26.9493 24.9743 26.9493 21.2552C26.9493 17.5361 23.9236 14.5103 20.2044 14.5103ZM7.44254 4.8C7.44254 3.05792 8.85988 1.64063 10.602 1.64063C12.344 1.64063 13.7613 3.05792 13.7613 4.8V6.3832H7.44254V4.8ZM5.18864 23.8803C4.494 23.8803 3.8489 23.602 3.37225 23.0966C2.89559 22.5913 2.6554 21.9311 2.69592 21.2376L3.46778 8.02389H5.80191V10.0795H7.44254V8.02389H13.7614V10.0795H15.402V8.02389H17.7361L18.1341 14.8358C15.4248 15.7117 13.4597 18.2581 13.4597 21.2552C13.4597 22.1858 13.6492 23.073 13.9915 23.8803H5.18864ZM20.2044 26.3594C17.39 26.3594 15.1002 24.0697 15.1002 21.2552C15.1002 18.4407 17.39 16.151 20.2044 16.151C23.0189 16.151 25.3086 18.4407 25.3086 21.2552C25.3086 24.0697 23.0189 26.3594 20.2044 26.3594Z" fill="#6DAC52"/>
</svg>
