<?xml version="1.0" encoding="UTF-8"?>
<!-- Created with Inkscape (http://www.inkscape.org/) -->
<svg width="500mm" height="500mm" version="1.1" viewBox="0 0 500 500" xmlns="http://www.w3.org/2000/svg" xmlns:cc="http://creativecommons.org/ns#" xmlns:dc="http://purl.org/dc/elements/1.1/" xmlns:rdf="http://www.w3.org/1999/02/22-rdf-syntax-ns#">
 <metadata>
  <rdf:RDF>
   <cc:Work rdf:about="">
    <dc:format>image/svg+xml</dc:format>
    <dc:type rdf:resource="http://purl.org/dc/dcmitype/StillImage"/>
    <dc:title/>
   </cc:Work>
  </rdf:RDF>
 </metadata>
 <g transform="translate(0,203)">
  <g transform="rotate(30)" fill="#fefa00" stroke-width=".34637" aria-label="skills">
   <path d="m126.58-161.82v0.9922l-4.51 1.353v0.5412h1.353q1.804-0.9922 3.157-0.9922v0.9922q-3.2472 2.9766-19.754 14.252l-5.863 5.2316q0.451 0 0.451 0.451-2.5256 1.4432-3.5178 1.4432v0.451h0.451q2.4354-0.451 3.5178-0.451-5.2316 6.0434-27.782 23.272-6.4944 3.9688-12.177 8.569 7.9376 0.0902 39.057 11.906 10.824 3.7884 10.824 7.667 0.451 0 0.902 1.353-0.451 0.9922-0.451 1.4432 0.902 0.1804 0.902 0.9922v0.451q0 0.3608-1.353 1.4432 0.902 1.5334 0.902 2.7962l-1.804 0.9922 0.451 0.9922v0.451q-9.3808 11.546-26.068 22.821-15.965 11.185-38.155 21.919-4.059 3.5178-20.656 11.816-19.844 11.906-22.009 11.906 0-0.9922 4.51-3.3374v-0.451h-0.451q-3.3374 1.6236-4.961 2.8864h-0.451v-0.5412q0-1.9844 16.597-17.048h-0.451q-8.6592 3.7884-10.283 3.7884 0.0902-1.1726 4.961-3.3374v-0.451h-0.451q-3.608 1.8942-4.961 1.8942h-0.451q3.6982-5.0512 21.558-20.024 6.4944-7.0356 32.292-29.496l7.667-8.569v-0.451h-0.451q-19.122-3.7884-23.813-3.7884-6.314 0.451-12.087 0.451-12.808 0-15.334-4.7806-0.9922 0-3.9688-2.7962 0 0.902-0.902 0.902-0.902-1.1726-0.902-1.8942h-0.451v0.451q0.451 0.902 0.451 1.9844h-0.451q-4.51-2.7962-4.51-7.667 0-19.844 30.488-36.621 37.614-21.919 49.881-21.919h1.353q2.706 0 10.373 0.9922 12.718-1.8942 27.331-5.2316z"/>
   <path d="m248.26-167.06q0.451 0.54121 0.451 0.81181v0.0902l1.1726-0.2706 0.9922 2.1648q-2.5256 7.4866-16.507 18.581 16.416-9.471 17.228-9.471v0.3608l-3.7884 3.3374h0.5412q3.6982-2.255 3.7884-2.7962h1.1726q-0.3608 2.8864-18.491 21.468-11.726 12.087-49.791 37.974-12.087 9.922-12.177 10.644 3.9688 4.8708 14.342 34.637 3.7884 7.216 8.118 33.284 2.7962 6.765 3.4276 11.365h-1.0824l-0.45101-1.5334h-0.5412l-0.1804 1.2628q-3.3374-0.7216-9.922-10.734-3.0668-1.804-16.958-20.205-16.867-18.852-22.821-30.939h-1.1726q-6.8552 4.059-7.7572 13.169l-14.793 41.673q-0.6314 0-0.902 3.0668h-0.6314q-0.99221 0-0.99221-1.6236 0-0.451 0.0902-0.902h-0.5412l-0.902 2.7962q-5.863-0.9922-6.0434-25.076 0.7216-7.3964 2.7962-21.468l1.2628-44.649q1.9844-18.942 20.205-60.254 2.255-3.6982 9.6514-3.6982h1.7138q0 0.6314 0.5412 0.6314 1.1726-0.3608 1.804-0.3608l4.1492 4.3296-0.1804 1.5334 2.3452 0.2706v-0.63141l-0.99221-0.902v-0.6314l4.2394-1.5334h0.5412q1.6236 0.6314 10.914 1.5334 3.8786 5.1414 3.8786 6.6748v0.0902l-19.844 46.183q8.7494-6.0434 32.923-27.241l29.496-26.88q1.6236 0 3.608-0.902 0.99221 0 0.99221 0.902v0.2706h2.3452q0.451-1.1726 1.8942-1.1726h0.5412l1.7138 0.5412q8.8396-3.2472 15.605-5.1414 1.9844-0.63141 2.9766-0.63141z"/>
   <path d="m276.76-182.48q1.353 0.5412 1.353 1.0824 0.3608 0 0.3608-0.3608 1.9844 0.3608 2.8864 0.3608l0.72161-0.3608q1.5334 0 1.5334 1.9844v0.6314l0.81181-0.3608h0.3608q1.804 0.451 1.804 3.608v0.902q-1.0824 12.267-9.8318 21.197-3.8786 1.1726-6.4042 3.3374l-0.36081-0.7216-0.7216 0.3608q-1.8942-3.3374-3.6982-3.3374-5.5924 4.059-6.1336 4.059l0.0902-0.3608q0.3608-0.7216 0.451-1.0824-0.7216 0-0.8118 1.0824h-0.72161l-0.1804-1.8942q0.2706-3.4276 0.2706-9.02v-2.8864q4.1492-11.365 5.412-12.628 1.4432 0 1.6236-2.255l0.81181-0.3608-0.0902 1.0824h1.0824q0.72161 0 0.81181-1.0824h0.7216q0 1.5334 0.902 1.5334 1.4432 0 1.7138-2.9766h1.4432q1.5334 1.4432 1.7138 1.4432h0.36081v-0.3608l-0.1804-1.8942q1.2628-0.7216 1.8942-0.7216zm-22.37 40.68h1.0824q2.1648 2.255 3.7884 2.255 1.7138-1.8942 5.2316-1.8942h0.3608v0.2706q0 1.2628 0.99221 1.2628 0.0902-0.72161 0.7216-0.72161-0.0902 0.6314-0.0902 0.99221 0 0.8118 0.2706 0.8118l1.8942-0.3608v0.0902q0 0.8118 1.7138 1.0824l0.3608-0.8118q2.1648 0.2706 2.1648 0.8118l1.4432-0.8118q0 0.3608 0.3608 0.3608l-0.451 0.81181 1.7138 1.4432q-0.7216 0.1804-1.6236 1.8942 1.804 0 1.804 4.4198-0.7216 7.667-27.962 100.57l-15.154 37.614h-0.7216v-0.3608l0.7216-3.3374v-0.3608h-0.3608q-0.90201 2.255-1.0824 3.6982h-0.7216q-0.3608-2.4354-0.3608-3.4276v-0.2706l0.5412-5.9532q-1.1726-4.4198-1.1726-9.471 0-1.8942 0.18041-3.9688l1.1726-14.161v-0.1804q0-0.5412-0.6314-0.5412l-5.6826 15.244h-0.7216q0.0902-0.7216 1.6236-6.314l0.0902-0.3608h-0.3608l-1.9844 5.5924h-0.72161q0.0902-0.902 0.1804-5.5924 9.471-55.112 18.04-82.353 3.9688-12.628 8.7494-34.998 2.255 0 3.8786-2.6158z"/>
   <path d="m328.81-185.01h0.3608l1.2628 0.81181 1.8942-0.2706-0.0902 0.2706 0.8118-0.2706h0.72161q2.6158 3.3374 2.6158 5.5022 0 0.451-0.0902 0.8118-20.836 52.406-33.194 96.695l-10.102 35.99q-6.314 22.64-14.432 34.998h-0.7216l0.5412-1.8942h-0.3608l-0.902 1.8942h-0.72161q-0.902-0.9922-0.902-2.7962 0-0.451 0.0902-1.0824l0.451-1.353h-0.3608l-0.7216 2.5256h-0.72161l0.2706-3.608h-0.7216q-1.7138 4.961-2.1648 6.5846h-0.7216l0.5412-3.2472h-0.3608l-0.99221 3.5178h-0.7216l0.1804-0.5412h-0.3608l-3.157 11.185h-0.72161q0.1804-0.6314 0.72161-5.2316h-0.36081l-0.5412 1.9844q-0.5412 3.3374-0.6314 3.5178h-0.7216q-0.90201-5.9532-0.90201-10.102 0-3.5178 0.6314-5.7728 0.72161-24.264 4.6904-38.516l-0.0902-1.0824h0.3608l-0.1804-0.5412 1.353-4.8708q0.0902-0.2706 0.0902-0.451 0-0.3608-0.1804-0.6314l0.5412-0.5412q2.1648-14.071 3.0668-17.228l1.0824-4.1492q0.0902-0.2706 0.0902-0.5412t-0.0902-0.5412q0.451-0.451 0.63141-1.0824l1.5334-5.412q0.1804-0.451 0.1804-0.8118t-0.1804-0.5412l0.81181-1.7138 0.7216-2.4354q0.0902-0.3608 0.0902-0.5412 0-0.2706-0.1804-0.2706l0.6314-1.0824q8.569-30.488 28.413-71.8l0.8118-0.2706h0.7216l0.90201 0.5412h0.7216q1.804-2.4354 5.412-10.373 5.2316-3.0668 5.5924-3.0668h1.0824l0.6314 0.27061 1.6236-0.54121q0.5412 0.2706 0.9922 0.2706 1.2628-1.4432 3.4276-2.1648z"/>
   <path d="m373.19-185.01h0.3608l1.2628 0.81181 1.8942-0.2706-0.0902 0.2706 0.81181-0.2706h0.7216q2.6158 3.3374 2.6158 5.5022 0 0.451-0.0902 0.8118-20.836 52.406-33.194 96.695l-10.102 35.99q-6.314 22.64-14.432 34.998h-0.7216l0.5412-1.8942h-0.3608l-0.902 1.8942h-0.72161q-0.902-0.9922-0.902-2.7962 0-0.451 0.0902-1.0824l0.451-1.353h-0.3608l-0.7216 2.5256h-0.72161l0.2706-3.608h-0.7216q-1.7138 4.961-2.1648 6.5846h-0.7216l0.5412-3.2472h-0.3608l-0.99221 3.5178h-0.7216l0.1804-0.5412h-0.3608l-3.157 11.185h-0.72161q0.1804-0.6314 0.72161-5.2316h-0.36081l-0.5412 1.9844q-0.5412 3.3374-0.6314 3.5178h-0.7216q-0.90201-5.9532-0.90201-10.102 0-3.5178 0.63141-5.7728 0.7216-24.264 4.6904-38.516l-0.0902-1.0824h0.3608l-0.1804-0.5412 1.353-4.8708q0.0902-0.2706 0.0902-0.451 0-0.3608-0.1804-0.6314l0.5412-0.5412q2.1648-14.071 3.0668-17.228l1.0824-4.1492q0.0902-0.2706 0.0902-0.5412t-0.0902-0.5412q0.45101-0.451 0.63141-1.0824l1.5334-5.412q0.1804-0.451 0.1804-0.8118t-0.1804-0.5412l0.81181-1.7138 0.7216-2.4354q0.0902-0.3608 0.0902-0.5412 0-0.2706-0.1804-0.2706l0.6314-1.0824q8.569-30.488 28.413-71.8l0.8118-0.2706h0.72161l0.902 0.5412h0.7216q1.804-2.4354 5.412-10.373 5.2316-3.0668 5.5924-3.0668h1.0824l0.6314 0.27061 1.6236-0.54121q0.5412 0.2706 0.9922 0.2706 1.2628-1.4432 3.4276-2.1648z"/>
   <path d="m476.92-161.82v0.9922l-4.51 1.353v0.5412h1.353q1.804-0.9922 3.157-0.9922v0.9922q-3.2472 2.9766-19.754 14.252l-5.863 5.2316q0.451 0 0.451 0.451-2.5256 1.4432-3.5178 1.4432v0.451h0.451q2.4354-0.451 3.5178-0.451-5.2316 6.0434-27.782 23.272-6.4944 3.9688-12.177 8.569 7.9376 0.0902 39.057 11.906 10.824 3.7884 10.824 7.667 0.45101 0 0.90201 1.353-0.451 0.9922-0.451 1.4432 0.902 0.1804 0.902 0.9922v0.451q0 0.3608-1.353 1.4432 0.90201 1.5334 0.90201 2.7962l-1.804 0.9922 0.451 0.9922v0.451q-9.3808 11.546-26.068 22.821-15.965 11.185-38.155 21.919-4.059 3.5178-20.656 11.816-19.844 11.906-22.009 11.906 0-0.9922 4.51-3.3374v-0.451h-0.45101q-3.3374 1.6236-4.961 2.8864h-0.451v-0.5412q0-1.9844 16.597-17.048h-0.451q-8.6592 3.7884-10.283 3.7884 0.0902-1.1726 4.961-3.3374v-0.451h-0.451q-3.608 1.8942-4.961 1.8942h-0.451q3.6982-5.0512 21.558-20.024 6.4944-7.0356 32.292-29.496l7.667-8.569v-0.451h-0.45101q-19.122-3.7884-23.813-3.7884-6.314 0.451-12.087 0.451-12.808 0-15.334-4.7806-0.99221 0-3.9688-2.7962 0 0.902-0.90201 0.902-0.902-1.1726-0.902-1.8942h-0.451v0.451q0.451 0.902 0.451 1.9844h-0.451q-4.51-2.7962-4.51-7.667 0-19.844 30.488-36.621 37.614-21.919 49.881-21.919h1.353q2.706 0 10.373 0.9922 12.718-1.8942 27.331-5.2316z"/>
  </g>
 </g>
</svg>
