<svg width="36" height="36" viewBox="0 0 36 36" fill="none" xmlns="http://www.w3.org/2000/svg">
<path d="M25.4531 0H10.5469C4.73133 0 0 4.73133 0 10.5469V25.4531C0 31.2687 4.73133 36 10.5469 36H25.4531C31.2687 36 36 31.2687 36 25.4531V10.5469C36 4.73133 31.2687 0 25.4531 0ZM34.5938 25.4531C34.5938 30.4933 30.4933 34.5938 25.4531 34.5938H10.5469C5.50673 34.5938 1.40625 30.4933 1.40625 25.4531V10.5469C1.40625 5.50673 5.50673 1.40625 10.5469 1.40625H25.4531C30.4933 1.40625 34.5938 5.50673 34.5938 10.5469V25.4531Z" fill="#FF3030"/>
<path d="M25.4531 3.09375H10.5469C6.43718 3.09375 3.09375 6.43718 3.09375 10.5469V25.4531C3.09375 29.5628 6.43718 32.9062 10.5469 32.9062H14.8359C15.2243 32.9062 15.5391 32.5915 15.5391 32.2031C15.5391 31.8148 15.2243 31.5 14.8359 31.5H10.5469C7.21266 31.5 4.5 28.7873 4.5 25.4531V10.5469C4.5 7.21266 7.21266 4.5 10.5469 4.5H25.4531C28.7873 4.5 31.5 7.21266 31.5 10.5469V25.4531C31.5 28.7873 28.7873 31.5 25.4531 31.5H21.211C20.8226 31.5 20.5078 31.8148 20.5078 32.2031C20.5078 32.5915 20.8226 32.9062 21.211 32.9062H25.4531C29.5628 32.9062 32.9062 29.5628 32.9062 25.4531V10.5469C32.9062 6.43718 29.5628 3.09375 25.4531 3.09375Z" fill="#FF3030"/>
<path d="M18.4971 31.706C18.3663 31.5752 18.1849 31.5 18 31.5C17.8151 31.5 17.6337 31.5752 17.5029 31.706C17.3721 31.8368 17.2969 32.0182 17.2969 32.2031C17.2969 32.388 17.3721 32.5695 17.5029 32.7002C17.6337 32.831 17.8151 32.9062 18 32.9062C18.1849 32.9062 18.3663 32.831 18.4971 32.7002C18.6279 32.5695 18.7031 32.388 18.7031 32.2031C18.7031 32.0182 18.6279 31.8368 18.4971 31.706Z" fill="#FF3030"/>
<path d="M12.363 10.9482C12.0975 10.6648 11.6526 10.6504 11.3692 10.9158L11.338 10.9451C11.0556 11.2116 11.0426 11.6566 11.3092 11.9391C11.4475 12.0857 11.6339 12.1596 11.8207 12.1596C11.9938 12.1596 12.1673 12.0961 12.3031 11.9679L12.3306 11.9421C12.614 11.6766 12.6285 11.2316 12.363 10.9482Z" fill="#FF3030"/>
<path d="M18 8.29688C16.4557 8.29688 14.9186 8.6689 13.5551 9.37273C13.21 9.55083 13.0747 9.97495 13.2528 10.32C13.431 10.6651 13.8551 10.8004 14.2001 10.6223C15.3817 10.0124 16.6602 9.70312 18 9.70312C22.5749 9.70312 26.2969 13.4251 26.2969 18C26.2969 22.5749 22.5749 26.2969 18 26.2969C13.4251 26.2969 9.70312 22.5749 9.70312 18C9.70312 16.5643 10.0754 15.1497 10.7798 13.9094C10.9716 13.5717 10.8533 13.1425 10.5156 12.9507C10.1779 12.759 9.74876 12.8772 9.55695 13.215C8.7326 14.6666 8.29688 16.3213 8.29688 18C8.29688 23.3503 12.6497 27.7031 18 27.7031C23.3503 27.7031 27.7031 23.3503 27.7031 18C27.7031 12.6497 23.3503 8.29688 18 8.29688Z" fill="#FF3030"/>
<path d="M18 11.6719C14.5107 11.6719 11.6719 14.5107 11.6719 18C11.6719 21.4893 14.5107 24.3281 18 24.3281C21.4893 24.3281 24.3281 21.4893 24.3281 18C24.3281 14.5107 21.4893 11.6719 18 11.6719ZM18 22.9219C15.2861 22.9219 13.0781 20.7139 13.0781 18C13.0781 15.2861 15.2861 13.0781 18 13.0781C20.7139 13.0781 22.9219 15.2861 22.9219 18C22.9219 20.7139 20.7139 22.9219 18 22.9219Z" fill="#FF3030"/>
<path d="M27.2285 6.09961C25.7553 6.09961 24.5566 7.29823 24.5566 8.77148C24.5566 10.2447 25.7553 11.4434 27.2285 11.4434C28.7018 11.4434 29.9004 10.2447 29.9004 8.77148C29.9004 7.29823 28.7018 6.09961 27.2285 6.09961ZM27.2285 10.0371C26.5307 10.0371 25.9629 9.46934 25.9629 8.77148C25.9629 8.07363 26.5307 7.50586 27.2285 7.50586C27.9264 7.50586 28.4941 8.07363 28.4941 8.77148C28.4941 9.46934 27.9264 10.0371 27.2285 10.0371Z" fill="#FF3030"/>
</svg>
