<svg width="35" height="35" viewBox="0 0 35 35" fill="none" xmlns="http://www.w3.org/2000/svg">
<path d="M29.7219 23.4313L29.3751 22.8647C28.6972 21.7575 27.8768 20.7422 26.9367 19.847L25.777 18.7427C25.6668 18.6377 25.6502 18.471 25.7377 18.3464L27.3212 16.09C27.5495 15.7646 27.7602 15.4219 27.9475 15.0715L29.3006 12.5397C29.5365 12.0985 29.5239 11.5788 29.2669 11.1495C29.01 10.7203 28.5578 10.4636 28.0575 10.463L25.1287 10.4597C25.1281 10.4597 25.1275 10.4597 25.1269 10.4597C24.5133 10.4597 23.9576 10.8226 23.711 11.3845L23.4008 12.0913C22.6094 13.8947 21.529 15.539 20.1887 16.9807V11.8205C20.1887 11.0698 19.578 10.459 18.8273 10.459H14.6792C13.9981 10.459 13.444 11.0131 13.444 11.6942C13.444 11.9543 13.5242 12.2035 13.6758 12.4146L13.9661 12.819C14.2506 13.2152 14.401 13.6826 14.401 14.1706V17.9412C13.8895 17.3471 13.2667 16.5403 12.7394 15.6127C11.932 14.1922 11.3533 12.5358 11.0802 11.6748C10.8495 10.9476 10.182 10.459 9.4192 10.459H6.45282C6.03419 10.459 5.64919 10.6504 5.39626 10.9841C5.14353 11.3179 5.06362 11.7405 5.17716 12.1436L5.73053 14.1076C6.06966 15.3115 6.53587 16.4834 7.11618 17.591C7.29131 17.9253 7.70434 18.0545 8.03889 17.8793C8.37337 17.7041 8.50237 17.2909 8.32716 16.9565C7.79088 15.9328 7.36002 14.8496 7.04652 13.7369L6.50819 11.8262H9.41927C9.58354 11.8262 9.7273 11.9314 9.777 12.0882C10.0664 13.0003 10.6816 14.759 11.5509 16.2883C12.2642 17.5431 13.1295 18.5884 13.73 19.2444C14.059 19.6038 14.5651 19.7221 15.0194 19.5454C15.4743 19.3687 15.7682 18.9392 15.7682 18.4514V14.1706C15.7682 13.3947 15.529 12.6516 15.0767 12.0215L14.9364 11.8262H18.8216V17.3083C18.8216 17.7093 19.0229 18.0781 19.3603 18.295C19.6976 18.5119 20.1167 18.5419 20.4816 18.3753L20.7634 18.2466C20.8933 18.1874 21.0086 18.1048 21.1065 18.0009C22.59 16.4255 23.7831 14.6221 24.6528 12.6407L24.963 11.9338C24.9915 11.8688 25.0559 11.8268 25.1269 11.8268H25.1271L28.056 11.8301C28.0659 11.8301 28.081 11.8302 28.0939 11.8517C28.1068 11.8732 28.0996 11.8865 28.095 11.8953L26.7419 14.427C26.5805 14.729 26.3989 15.0242 26.2021 15.3046L24.6186 17.561C24.1393 18.2441 24.23 19.1574 24.8342 19.7328L25.9939 20.8371C26.848 21.6504 27.5933 22.5728 28.2091 23.5786L28.556 24.1452C28.5643 24.1588 28.5897 24.2003 28.5581 24.2567C28.5265 24.3131 28.4779 24.3131 28.4619 24.3131H25.9334C25.6085 24.3131 25.2923 24.1795 25.0658 23.9466L22.5374 21.3469C21.9416 20.7343 21.1855 20.3135 20.3508 20.1303C19.9766 20.0481 19.5904 20.1387 19.2917 20.379C18.9929 20.6192 18.8216 20.9768 18.8216 21.3601V23.9144C18.8216 24.1343 18.6428 24.3132 18.4229 24.3132C16.4636 24.3132 14.5274 23.6576 12.9711 22.4673C12.3441 21.9877 11.7461 21.4588 11.1937 20.8954C10.9294 20.6259 10.4966 20.6215 10.2269 20.8858C9.95733 21.1502 9.95309 21.583 10.2174 21.8526C10.815 22.4622 11.4621 23.0344 12.1405 23.5532C13.9339 24.9249 16.165 25.6804 18.4228 25.6804C19.3965 25.6804 20.1887 24.8881 20.1887 23.9144V21.4977C20.7093 21.6366 21.1801 21.9123 21.5573 22.3002L24.0856 24.8999C24.568 25.3958 25.2415 25.6804 25.9334 25.6804H28.4619C28.996 25.6804 29.4899 25.3909 29.7509 24.925C30.0119 24.4591 30.0008 23.8867 29.7219 23.4313Z" fill="#FF2222"/>
<path d="M9.57412 18.9734L9.56653 18.9628C9.34648 18.656 8.91951 18.5856 8.61264 18.8056C8.30584 19.0256 8.23543 19.4527 8.45541 19.7595C8.45569 19.76 8.45979 19.7656 8.46006 19.766L9.01856 19.3717L8.463 19.7701C8.59651 19.9563 8.8063 20.0554 9.01917 20.0554C9.15699 20.0554 9.29623 20.0138 9.41689 19.9273C9.72369 19.7073 9.7941 19.2802 9.57412 18.9734Z" fill="#FF2222"/>
<path d="M14.0043 30.3516H8.43304C8.05556 30.3516 7.74945 30.6576 7.74945 31.0352C7.74945 31.4127 8.05556 31.7188 8.43304 31.7188H14.0043C14.3819 31.7188 14.6879 31.4127 14.6879 31.0352C14.6879 30.6576 14.3818 30.3516 14.0043 30.3516Z" fill="#FF2222"/>
<path d="M17.1147 30.3516H17.1066C16.7291 30.3516 16.423 30.6576 16.423 31.0352C16.423 31.4127 16.7291 31.7188 17.1066 31.7188H17.1147C17.4923 31.7188 17.7983 31.4127 17.7983 31.0352C17.7983 30.6576 17.4922 30.3516 17.1147 30.3516Z" fill="#FF2222"/>
<path d="M30.4883 0H4.51172C2.02392 0 0 2.02392 0 4.51172V30.4883C0 32.9761 2.02392 35 4.51172 35H30.4883C32.9761 35 35 32.9761 35 30.4883V4.51172C35 2.02392 32.9761 0 30.4883 0ZM33.6328 30.4883C33.6328 32.2221 32.2221 33.6328 30.4883 33.6328H4.51172C2.77785 33.6328 1.36719 32.2221 1.36719 30.4883V4.51172C1.36719 2.77785 2.77785 1.36719 4.51172 1.36719H30.4883C32.2221 1.36719 33.6328 2.77785 33.6328 4.51172V30.4883Z" fill="#FF2222"/>
</svg>
