<?xml version="1.0" encoding="UTF-8"?>
<!-- Created with Inkscape (http://www.inkscape.org/) -->
<svg width="1122" height="1122" version="1.1" viewBox="0 0 296.86249 296.86251" xmlns="http://www.w3.org/2000/svg" xmlns:cc="http://creativecommons.org/ns#" xmlns:dc="http://purl.org/dc/elements/1.1/" xmlns:rdf="http://www.w3.org/1999/02/22-rdf-syntax-ns#">
 <metadata>
  <rdf:RDF>
   <cc:Work rdf:about="">
    <dc:format>image/svg+xml</dc:format>
    <dc:type rdf:resource="http://purl.org/dc/dcmitype/StillImage"/>
    <dc:title/>
   </cc:Work>
  </rdf:RDF>
 </metadata>
 <g transform="translate(0 -.13748)">
  <g transform="matrix(.26458 0 0 .26458 336.32 -67.52)" fill="none">
   <path d="m11.548 0.0049936-2.8782-0.0049936c-3.2336 0-5.3233 2.3183-5.3233 5.9064v2.7233h-2.894c-0.25007 0-0.45258 0.21922-0.45258 0.48963v3.9457c0 0.2704 0.20274 0.4894 0.45258 0.4894h2.894v9.9562c0 0.2704 0.20251 0.4894 0.45258 0.4894h3.7758c0.25007 0 0.45258-0.2192 0.45258-0.4894v-9.9562h3.3837c0.2501 0 0.4526-0.219 0.4526-0.4894l0.0014-3.9457c0-0.12984-0.0478-0.25418-0.1326-0.34606-0.0847-0.09188-0.2002-0.14357-0.3203-0.14357h-3.3848v-2.3085c0-1.1096 0.24453-1.6729 1.5812-1.6729l1.939-7.4e-4c0.2498 0 0.4523-0.21922 0.4523-0.48938v-3.6638c0-0.2699-0.2023-0.48887-0.4519-0.48937z" fill="#fff"/>
  </g>
  <g transform="matrix(12.139 0 0 12.139 75.595 2.8967)" fill="#fff">
   <path d="m11.548 0.0049936-2.8782-0.0049936c-3.2336 0-5.3233 2.3183-5.3233 5.9064v2.7233h-2.894c-0.25007 0-0.45258 0.21922-0.45258 0.48963v3.9457c0 0.2704 0.20274 0.4894 0.45258 0.4894h2.894v9.9562c0 0.2704 0.20251 0.4894 0.45258 0.4894h3.7758c0.25007 0 0.45258-0.2192 0.45258-0.4894v-9.9562h3.3837c0.2501 0 0.4526-0.219 0.4526-0.4894l0.0014-3.9457c0-0.12984-0.0478-0.25418-0.1326-0.34606-0.0847-0.09188-0.2002-0.14357-0.3203-0.14357h-3.3848v-2.3085c0-1.1096 0.24453-1.6729 1.5812-1.6729l1.939-7.4e-4c0.2498 0 0.4523-0.21922 0.4523-0.48938v-3.6638c0-0.2699-0.2023-0.48887-0.4519-0.48937z" fill="#fff"/>
  </g>
 </g>
</svg>
