<svg width="24" height="24" viewBox="0 0 24 24" fill="none" xmlns="http://www.w3.org/2000/svg">
<path d="M12 24.0004C18.6168 24.0004 24 18.6168 24 11.9996C24 5.38301 18.6168 0 12 0C5.38316 0 0 5.38301 0 11.9996C0 18.6168 5.38324 24.0004 12 24.0004ZM12 21.2053C10.0991 21.2053 8.29402 20.6362 6.74971 19.5544C7.37951 18.5096 9.29379 15.8915 13.3942 14.3274C14.4278 17.1296 14.9542 19.5208 15.1678 20.6425C14.1564 21.0162 13.093 21.2053 12 21.2053ZM17.8454 19.1007C17.6134 17.9672 17.1453 15.9728 16.3327 13.6229C16.7436 13.582 17.1644 13.5614 17.5911 13.5614C19.0804 13.5614 20.323 13.8105 20.9792 13.9742C20.541 15.9767 19.4298 17.7894 17.8454 19.1007ZM19.5323 6.75642C20.4544 8.0765 21.0167 9.62636 21.156 11.2305C20.3105 11.0917 18.8619 10.9038 17.213 10.9038C16.5596 10.9038 15.927 10.9339 15.3264 10.9931C15.3106 10.9555 15.2947 10.9177 15.2786 10.8798C15.1533 10.5867 15.0188 10.2861 14.877 9.98133C17.3269 8.88236 18.8115 7.53638 19.5323 6.75642ZM12 2.82423C14.0632 2.82423 16.0576 3.5187 17.6737 4.7904C17.1165 5.41333 15.8468 6.59931 13.612 7.52297C12.4979 5.53051 11.3546 3.8413 10.7009 2.91611C11.1295 2.85501 11.564 2.82423 12 2.82423ZM7.66994 3.91063C8.20907 4.66987 9.39825 6.39337 10.5988 8.45722C7.3696 9.23581 4.53211 9.4048 3.17768 9.43771C3.86804 7.08564 5.49737 5.07665 7.66994 3.91063ZM11.9783 11.0084C12.0829 11.2198 12.1832 11.4282 12.2792 11.6327C8.2003 13.0345 5.66811 16.1608 4.68945 17.5778C3.52724 16.0539 2.8704 14.2092 2.81326 12.2891C4.23337 12.2742 8.01981 12.1207 11.9783 11.0084Z" fill="white"/>
</svg>
