<?xml version="1.0" encoding="UTF-8" standalone="no"?>
<svg
   xmlns:dc="http://purl.org/dc/elements/1.1/"
   xmlns:cc="http://creativecommons.org/ns#"
   xmlns:rdf="http://www.w3.org/1999/02/22-rdf-syntax-ns#"
   xmlns:svg="http://www.w3.org/2000/svg"
   xmlns="http://www.w3.org/2000/svg"
   xmlns:sodipodi="http://sodipodi.sourceforge.net/DTD/sodipodi-0.dtd"
   xmlns:inkscape="http://www.inkscape.org/namespaces/inkscape"
   width="20"
   height="24"
   viewBox="0 0 20 24"
   fill="none"
   version="1.1"
   id="svg4"
   sodipodi:docname="socials-youtube.svg"
   inkscape:version="0.92.1 r15371">
  <metadata
     id="metadata10">
    <rdf:RDF>
      <cc:Work
         rdf:about="">
        <dc:format>image/svg+xml</dc:format>
        <dc:type
           rdf:resource="http://purl.org/dc/dcmitype/StillImage" />
      </cc:Work>
    </rdf:RDF>
  </metadata>
  <defs
     id="defs8" />
  <sodipodi:namedview
     pagecolor="#ffffff"
     bordercolor="#666666"
     borderopacity="1"
     objecttolerance="10"
     gridtolerance="10"
     guidetolerance="10"
     inkscape:pageopacity="0"
     inkscape:pageshadow="2"
     inkscape:window-width="1366"
     inkscape:window-height="705"
     id="namedview6"
     showgrid="false"
     inkscape:zoom="9.8333333"
     inkscape:cx="10"
     inkscape:cy="12"
     inkscape:window-x="-8"
     inkscape:window-y="-8"
     inkscape:window-maximized="1"
     inkscape:current-layer="svg4" />
  <path
     d="m 15.967465,16.792536 h -1.136279 l 0.0053,-0.660061 c 0,-0.293322 0.240869,-0.533242 0.535141,-0.533242 h 0.07247 c 0.294961,0 0.53652,0.23992 0.53652,0.533242 z M 11.705408,15.37812 c -0.288232,0 -0.524096,0.193765 -0.524096,0.430925 v 3.209978 c 0,0.236728 0.235865,0.429976 0.524096,0.429976 0.289441,0 0.525478,-0.193248 0.525478,-0.429976 v -3.209978 c 0,-0.237419 -0.236038,-0.430925 -0.525478,-0.430925 z m 6.921711,-1.795562 v 6.10662 c 0,1.464798 -1.27017,2.663364 -2.822794,2.663364 H 4.1959077 c -1.5531143,0 -2.8230262,-1.198566 -2.8230262,-2.663364 v -6.10662 c 0,-1.464798 1.2699119,-2.663623 2.8230262,-2.663623 H 15.804326 c 1.552623,0 2.822793,1.198825 2.822793,2.663623 z m -13.6568412,6.769614 -9.231e-4,-6.432552 1.4390034,4.31e-4 v -0.953124 l -3.835962,-0.0058 v 0.937077 l 1.197444,0.0035 v 6.450497 z M 9.2838371,14.877747 H 8.0840896 v 3.434974 c 0,0.496922 0.030135,0.745383 -0.00184,0.833034 -0.097547,0.266406 -0.5360374,0.549375 -0.7069665,0.02882 -0.028987,-0.0911 -0.00345,-0.366049 -0.00391,-0.838125 l -0.00483,-3.458703 H 6.1734676 l 0.00368,3.404434 c 9.231e-4,0.521768 -0.011733,0.910765 0.00414,1.08788 0.02922,0.312215 0.018868,0.676193 0.3085058,0.884107 0.5397126,0.388824 1.5742766,-0.05797 1.8330902,-0.613734 l -0.0023,0.709236 0.9634766,0.0011 z m 3.8380589,3.933535 -0.0026,-2.858941 c -8.63e-4,-1.089519 -0.815953,-1.741988 -1.922295,-0.860382 l 0.0048,-2.125464 -1.198393,0.0018 -0.00575,7.336502 0.985536,-0.01423 0.08972,-0.456892 c 1.259128,1.155085 2.050753,0.36346 2.048941,-1.0224 z m 3.754694,-0.378903 -0.899463,0.0048 c -5.17e-4,0.03563 -0.0019,0.07687 -0.0023,0.121729 v 0.501926 c 0,0.268734 -0.221976,0.487518 -0.49166,0.487518 h -0.176165 c -0.270115,0 -0.492091,-0.218784 -0.492091,-0.487518 v -0.05565 -0.552136 -0.712514 h 2.059896 v -0.775232 c 0,-0.56663 -0.01449,-1.133086 -0.06142,-1.456948 -0.147438,-1.024729 -1.585751,-1.187351 -2.312327,-0.662822 -0.227928,0.163829 -0.40211,0.383044 -0.503306,0.677488 -0.102145,0.294702 -0.153045,0.69733 -0.153045,1.208745 v 1.704719 c 5.18e-4,2.833836 3.442565,2.433279 3.031915,-0.0041 z M 12.262116,9.1776639 c 0.06194,0.1504565 0.15805,0.2723925 0.288492,0.3644095 0.128888,0.09065 0.293581,0.136196 0.49097,0.136196 0.172973,0 0.326191,-0.0467 0.459652,-0.143098 0.132944,-0.09593 0.245011,-0.2392556 0.336544,-0.4304325 l -0.02278,0.4706955 H 15.15237 V 3.8882049 h -1.052768 v 4.4262899 c 0,0.2397218 -0.197388,0.4359542 -0.438689,0.4359542 -0.240006,0 -0.438085,-0.1962325 -0.438085,-0.4359542 V 3.8882049 h -1.098749 v 3.835962 c 0,0.48864 0.009,0.8144001 0.02347,0.9795835 0.01501,0.1640275 0.05271,0.3213861 0.114567,0.4739135 z M 8.2094676,5.9656151 c 0,-0.5459241 0.045551,-0.9722159 0.1359633,-1.2795743 C 8.4365333,4.3798385 8.6001035,4.1336809 8.8370646,3.9480253 9.0733354,3.7614467 9.375854,3.6680408 9.7437143,3.6680408 c 0.3094287,0 0.5744537,0.060735 0.7957397,0.179677 0.222493,0.1196323 0.394087,0.2749204 0.513055,0.4665546 0.121211,0.1923244 0.2036,0.3899458 0.247512,0.5921654 0.04486,0.2049804 0.06695,0.5141763 0.06695,0.9312716 v 1.4383132 c 0,0.5275138 -0.02114,0.915622 -0.06229,1.1620125 -0.04072,0.2470807 -0.128199,0.476217 -0.263645,0.6910926 -0.133461,0.2125717 -0.305745,0.3715357 -0.514693,0.4729907 -0.211192,0.102378 -0.452752,0.152527 -0.7255669,0.152527 -0.3048306,0 -0.5615737,-0.0421 -0.7732228,-0.129976 C 8.8152121,9.5372424 8.651176,9.4054194 8.5343131,9.2303497 8.4162941,9.0550467 8.3332408,8.8415513 8.2830914,8.5926331 8.232709,8.3439391 8.2087774,7.9698673 8.2087774,7.4713406 Z m 1.0474529,2.2591577 c 0,0.3220762 0.2397132,0.5850308 0.5316548,0.5850308 0.2921747,0 0.5309737,-0.2629546 0.5309737,-0.5850308 V 5.1972321 c 0,-0.321619 -0.238799,-0.5845735 -0.5309737,-0.5845735 -0.2919416,0 -0.5316548,0.2629545 -0.5316548,0.5845735 z M 5.5557659,9.7534984 H 6.8173957 L 6.818776,5.391627 8.3095421,1.6550493 H 6.929669 L 6.1371215,4.4304538 5.333307,1.6474575 H 3.9676859 l 1.5860094,3.74624 z"
     id="path2"
     style="fill:#ffffff;fill-opacity:1;stroke-width:0.86271185"
     inkscape:connector-curvature="0" />
</svg>
