<svg width="36" height="36" viewBox="0 0 36 36" fill="none" xmlns="http://www.w3.org/2000/svg">
<g clip-path="url(#clip0)">
<path d="M27.3771 32.5597C27.1511 32.2343 26.6869 32.1422 26.34 32.3542C23.943 33.8192 21.1566 34.5935 18.2823 34.5935C10.1307 34.5935 3.49883 28.3714 3.49883 20.7233C3.49883 17.946 4.37033 15.2666 6.01927 12.9742C6.25083 12.6523 6.16038 12.2153 5.8173 11.9981C5.47429 11.7808 5.00838 11.8657 4.77681 12.1876C2.9603 14.7131 2 17.6648 2 20.7234C2 24.8039 3.69368 28.6401 6.76898 31.5255C9.84428 34.4109 13.9332 35.9999 18.2823 35.9999C21.4478 35.9999 24.5169 35.1468 27.1582 33.5327C27.5051 33.3208 27.6031 32.8851 27.3771 32.5597Z" fill="#00AF80"/>
<path d="M29.8948 30.4276C29.5992 30.1557 29.1247 30.1602 28.8349 30.4374L28.81 30.4611C28.5185 30.7367 28.5203 31.1819 28.8141 31.4555C28.9603 31.5916 29.1511 31.6595 29.342 31.6595C29.5347 31.6595 29.7275 31.5902 29.874 31.4516L29.905 31.4221C30.1949 31.1448 30.1903 30.6996 29.8948 30.4276Z" fill="#00AF80"/>
<path d="M32.9303 11.5234C33.0767 11.6608 33.2685 11.7294 33.4603 11.7294C33.652 11.7294 33.8438 11.6607 33.9902 11.5234L35.2386 10.3522C36.128 9.51749 36.128 8.15941 35.2386 7.32473L32.5631 4.81457C32.1321 4.41028 31.5591 4.1876 30.9498 4.1876C30.3403 4.1876 29.7674 4.41028 29.3365 4.81457L28.0881 5.98577C27.9476 6.1176 27.8686 6.29648 27.8686 6.48295C27.8686 6.66942 27.9476 6.84829 28.0881 6.98013L28.4425 7.31263L27.5445 8.15512C25.6403 6.91425 23.487 6.07739 21.2054 5.69158V4.50021H22.8542C23.268 4.50021 23.6036 4.18542 23.6036 3.79708V0.703124C23.6036 0.314789 23.268 0 22.8542 0H13.7109C13.2971 0 12.9615 0.314789 12.9615 0.703124V3.79701C12.9615 4.18535 13.2971 4.50014 13.7109 4.50014H15.3597V5.69299C13.2147 6.05791 11.1678 6.82432 9.32989 7.96141C8.98434 8.17523 8.88894 8.61131 9.11676 8.93559C9.34473 9.2598 9.8096 9.34931 10.1551 9.13549C12.5683 7.6424 15.3788 6.85321 18.2826 6.85321C26.4342 6.85321 33.0661 13.0754 33.0661 20.7235C33.0661 23.3172 32.2985 25.8463 30.8464 28.0372C30.6278 28.367 30.7355 28.8005 31.0871 29.0057C31.2103 29.0776 31.347 29.1118 31.4821 29.1118C31.7326 29.1118 31.9772 28.9941 32.1193 28.7799C33.7193 26.3658 34.565 23.5799 34.565 20.7235C34.565 17.5726 33.5542 14.5679 31.6782 12.0336L32.5761 11.1911L32.9303 11.5234ZM19.7064 5.50525C19.2354 5.46721 18.7607 5.44689 18.2824 5.44689C17.8051 5.44682 17.3301 5.46665 16.8585 5.50511V4.50021H19.7063V5.50525H19.7064ZM16.1091 3.09389H14.4603V1.40632H22.1047V3.09389H20.4559H16.1091ZM30.7586 10.9072C30.4543 10.568 30.1339 10.2385 29.7957 9.92123C29.4576 9.60398 29.1065 9.30339 28.7448 9.01778L29.5022 8.30713L31.516 10.1965L30.7586 10.9072ZM30.0323 6.8156C30.0321 6.81546 30.032 6.81539 30.0318 6.81525L29.6779 6.48316L30.3964 5.80914C30.5442 5.67042 30.7407 5.59406 30.9498 5.59406C31.1588 5.59406 31.3554 5.67042 31.5032 5.80921L34.1787 8.3193C34.4838 8.60561 34.4838 9.07157 34.1787 9.35795L33.4603 10.0319L33.107 9.70045C33.1066 9.7001 33.1063 9.69974 33.1059 9.69939L30.0323 6.8156Z" fill="#00AF80"/>
<path d="M18.2825 10.7573C17.8687 10.7573 17.5331 11.0721 17.5331 11.4604V13.0074C17.5331 13.3957 17.8686 13.7105 18.2825 13.7105C18.6963 13.7105 19.0319 13.3957 19.0319 13.0074V11.4604C19.0319 11.0721 18.6963 10.7573 18.2825 10.7573Z" fill="#00AF80"/>
<path d="M25.7933 13.6762C25.6539 13.5454 25.4607 13.4702 25.2635 13.4702C25.0664 13.4702 24.8731 13.5454 24.7337 13.6762C24.5943 13.807 24.5141 13.9884 24.5141 14.1733C24.5141 14.359 24.5943 14.5397 24.7337 14.6704C24.8731 14.8012 25.0664 14.8765 25.2635 14.8765C25.4607 14.8765 25.6539 14.8012 25.7933 14.6704C25.9327 14.5397 26.0129 14.3583 26.0129 14.1733C26.0129 13.9884 25.9328 13.807 25.7933 13.6762Z" fill="#00AF80"/>
<path d="M28.1553 20.0203H26.5065C26.0927 20.0203 25.7571 20.3351 25.7571 20.7234C25.7571 21.1117 26.0927 21.4265 26.5065 21.4265H28.1553C28.5691 21.4265 28.9047 21.1117 28.9047 20.7234C28.9047 20.3351 28.5691 20.0203 28.1553 20.0203Z" fill="#00AF80"/>
<path d="M25.7933 26.7761C25.6539 26.6453 25.4607 26.5701 25.2635 26.5701C25.0664 26.5701 24.8731 26.6453 24.7337 26.7761C24.5943 26.9069 24.5141 27.0883 24.5141 27.2732C24.5141 27.4588 24.5943 27.6402 24.7337 27.7703C24.8731 27.9018 25.0664 27.9763 25.2635 27.9763C25.4607 27.9763 25.6539 27.9018 25.7933 27.7703C25.9327 27.6395 26.0129 27.4588 26.0129 27.2732C26.0129 27.0883 25.9328 26.9076 25.7933 26.7761Z" fill="#00AF80"/>
<path d="M18.2825 27.7366C17.8687 27.7366 17.5331 28.0514 17.5331 28.4397V29.9866C17.5331 30.375 17.8687 30.6898 18.2825 30.6898C18.6963 30.6898 19.0319 30.375 19.0319 29.9866V28.4397C19.0319 28.0514 18.6963 27.7366 18.2825 27.7366Z" fill="#00AF80"/>
<path d="M11.8311 26.7761C11.6917 26.6453 11.4984 26.5701 11.3013 26.5701C11.1042 26.5701 10.9109 26.6453 10.7715 26.7761C10.6321 26.9069 10.5519 27.0883 10.5519 27.2732C10.5519 27.4588 10.6321 27.6395 10.7715 27.7703C10.9109 27.9018 11.1042 27.9763 11.3013 27.9763C11.4984 27.9763 11.6917 27.9018 11.8311 27.7703C11.9705 27.6395 12.0507 27.4588 12.0507 27.2732C12.0508 27.0883 11.9706 26.9069 11.8311 26.7761Z" fill="#00AF80"/>
<path d="M10.0583 20.0203H8.40954C7.99571 20.0203 7.66013 20.3351 7.66013 20.7234C7.66013 21.1117 7.99571 21.4265 8.40954 21.4265H10.0583C10.4722 21.4265 10.8077 21.1117 10.8077 20.7234C10.8078 20.3351 10.4722 20.0203 10.0583 20.0203Z" fill="#00AF80"/>
<path d="M11.8311 13.6762C11.6917 13.5454 11.4984 13.4702 11.3013 13.4702C11.1042 13.4702 10.9109 13.5454 10.7715 13.6762C10.6321 13.807 10.5519 13.9884 10.5519 14.1733C10.5519 14.3583 10.6321 14.5397 10.7715 14.6704C10.9109 14.8012 11.1042 14.8765 11.3013 14.8765C11.4984 14.8765 11.6917 14.8012 11.8311 14.6704C11.9705 14.5397 12.0507 14.3583 12.0507 14.1733C12.0507 13.9884 11.9706 13.807 11.8311 13.6762Z" fill="#00AF80"/>
<path d="M24.1338 15.2335C23.8898 15.0047 23.5109 14.9616 23.2157 15.1292L17.0295 18.643C16.9625 18.6787 16.8689 18.7304 16.8055 18.7772C16.1579 19.2111 15.7344 19.9215 15.7344 20.7234C15.7344 22.0417 16.8775 23.1141 18.2825 23.1141C19.1338 23.1141 19.8886 22.72 20.3515 22.1163C20.4069 22.0519 20.4585 21.9675 20.5005 21.8979L24.2449 16.0948C24.4236 15.818 24.3776 15.4625 24.1338 15.2335ZM19.2093 21.1836L19.1474 21.2795C18.9581 21.5379 18.6412 21.7079 18.2824 21.7079C17.7039 21.7079 17.2332 21.2663 17.2332 20.7235C17.2332 20.3869 17.4145 20.0894 17.6901 19.9118L17.7917 19.854C17.9382 19.7809 18.1051 19.7391 18.2823 19.7391C18.8609 19.7391 19.3316 20.1807 19.3316 20.7236C19.3316 20.8897 19.2871 21.0462 19.2093 21.1836ZM20.3804 19.3687C20.2039 19.1289 19.9821 18.9208 19.7264 18.7552L21.3837 17.8138L20.3804 19.3687Z" fill="#00AF80"/>
<path d="M7.87482 9.87862C7.73535 9.74784 7.54208 9.67261 7.34498 9.67261C7.14789 9.67261 6.95454 9.74784 6.81522 9.87862C6.67583 10.0094 6.59557 10.1908 6.59557 10.3757C6.59557 10.5614 6.67575 10.7421 6.81522 10.8728C6.95454 11.0036 7.14789 11.0789 7.34498 11.0789C7.54208 11.0789 7.73543 11.0036 7.87482 10.8728C8.01421 10.7421 8.0944 10.5607 8.0944 10.3757C8.0944 10.1909 8.01428 10.0095 7.87482 9.87862Z" fill="#00AF80"/>
<path d="M63.7031 2.40625H59.6067V1.64062C59.6067 0.735984 58.4502 0 57.0286 0C55.607 0 54.4505 0.735984 54.4505 1.64062V2.40625H40.013V1.64062C40.013 0.735984 38.8564 0 37.4349 0C36.0133 0 34.8567 0.735984 34.8567 1.64062V2.42648C34.7837 2.41363 34.7071 2.40625 34.6276 2.40625H31.2035C28.8342 2.40625 26.9067 3.63289 26.9067 5.14062V14.4557C26.9067 14.7578 27.2915 15.0026 27.766 15.0026C28.2406 15.0026 28.6254 14.7578 28.6254 14.4557V8.03906H59.6067C60.0813 8.03906 60.4661 7.79423 60.4661 7.49219C60.4661 7.19015 60.0813 6.94531 59.6067 6.94531H28.6254V5.14062C28.6254 4.23598 29.782 3.5 31.2035 3.5H34.6276C34.7071 3.5 34.7837 3.49256 34.8567 3.47977V4.18359C34.8567 5.08823 36.0133 5.82422 37.4349 5.82422C38.8564 5.82422 40.013 5.08823 40.013 4.18359V3.5H54.4505V4.18359C54.4505 5.08823 55.607 5.82422 57.0286 5.82422C58.4502 5.82422 59.6067 5.08823 59.6067 4.18359V3.5H63.7031C65.1247 3.5 66.2812 4.23598 66.2812 5.14062V25.9215C66.2812 26.4645 65.5871 26.9062 64.7339 26.9062C63.8806 26.9062 63.1865 26.4645 63.1865 25.9215V24.5068C63.1865 24.2048 62.8016 23.96 62.3271 23.96H52.3308C51.8562 23.96 51.4714 24.2048 51.4714 24.5068C51.4714 24.8089 51.8562 25.0537 52.3308 25.0537H61.4677V25.9215C61.4677 26.2776 61.6093 26.613 61.8583 26.9062H27.2656C26.4127 26.9062 25.7188 26.4646 25.7188 25.9219V25.0537H44.9537C45.4283 25.0537 45.8131 24.8089 45.8131 24.5068C45.8131 24.2048 45.4283 23.96 44.9537 23.96H36.3672C37.8689 23.137 38.8224 21.9196 38.8224 20.5625C38.8224 18.0898 35.6612 16.0781 31.7755 16.0781C27.8899 16.0781 24.7287 18.0898 24.7287 20.5625C24.7287 21.9196 25.6822 23.137 27.1839 23.96H24.8594C24.3848 23.96 24 24.2048 24 24.5068V25.9219C24 27.0677 25.465 28 27.2656 28H64.7339C66.5348 28 68 27.0676 68 25.9215V5.14062C68 3.63289 66.0724 2.40625 63.7031 2.40625ZM38.2942 4.18359C38.2942 4.48514 37.9087 4.73047 37.4349 4.73047C36.961 4.73047 36.5755 4.48514 36.5755 4.18359V1.64062C36.5755 1.33908 36.961 1.09375 37.4349 1.09375C37.9087 1.09375 38.2942 1.33908 38.2942 1.64062V4.18359ZM57.888 4.18359C57.888 4.48514 57.5025 4.73047 57.0286 4.73047C56.5548 4.73047 56.1692 4.48514 56.1692 4.18359V1.64062C56.1692 1.33908 56.5548 1.09375 57.0286 1.09375C57.5025 1.09375 57.888 1.33908 57.888 1.64062V4.18359ZM26.4474 20.5625C26.4474 18.6929 28.8376 17.1719 31.7755 17.1719C34.7135 17.1719 37.1037 18.6929 37.1037 20.5625C37.1037 22.4321 34.7135 23.9531 31.7755 23.9531C28.8376 23.9531 26.4474 22.4321 26.4474 20.5625Z" fill="#00AF80"/>
<path d="M35.4221 10.9375C33.6215 10.9375 32.1565 11.8698 32.1565 13.0156C32.1565 14.1615 33.6215 15.0938 35.4221 15.0938C37.2228 15.0938 38.6878 14.1615 38.6878 13.0156C38.6878 11.8698 37.2228 10.9375 35.4221 10.9375ZM35.4221 14C34.5692 14 33.8753 13.5584 33.8753 13.0156C33.8753 12.4729 34.5692 12.0312 35.4221 12.0312C36.2751 12.0312 36.969 12.4729 36.969 13.0156C36.969 13.5584 36.2751 14 35.4221 14Z" fill="#00AF80"/>
<path d="M34.8371 19.2297C34.5014 19.0162 33.9574 19.0162 33.6216 19.2297L30.823 21.0108L29.8666 20.4021C29.5309 20.1886 28.987 20.1886 28.6512 20.4021C28.3156 20.6157 28.3156 20.962 28.6512 21.1756L30.2153 22.1708C30.3766 22.2734 30.5951 22.331 30.823 22.331C31.0509 22.331 31.2695 22.2734 31.4307 22.1708L34.8371 20.0031C35.1726 19.7896 35.1726 19.4433 34.8371 19.2297Z" fill="#00AF80"/>
</g>
<defs>
<clipPath id="clip0">
<rect width="36" height="36" fill="white"/>
</clipPath>
</defs>
</svg>
